<svg width="44" height="38" viewBox="0 0 44 38" fill="none" xmlns="http://www.w3.org/2000/svg" class="flex w-full justify-center mb-3 mt-2"><path d="M32.4553 38C32.1089 38 31.755 37.9585 31.4046 37.8722L3.05319 30.7194C0.866095 30.1511 -0.437436 28.0197 0.1346 25.9608L3.25126 14.7009C3.44193 14.0099 4.19189 13.5902 4.92876 13.7752C5.66227 13.9548 6.10405 14.663 5.91169 15.3556L2.7947 26.6174C2.60234 27.3116 3.04044 28.0283 3.77394 28.2183L32.1089 35.3677C32.8367 35.5489 33.5883 35.1412 33.779 34.459L34.7468 30.7798C34.9304 30.0856 35.6747 29.664 36.4115 29.8335C37.1487 30.0062 37.5979 30.7074 37.4163 31.4016L36.4448 35.0982C35.955 36.8478 34.2832 38 32.4553 38Z" fill="#DEE3E6"></path><path d="M39.8746 27.6364H11.4571C9.18208 27.6364 7.33203 25.8934 7.33203 23.7501V3.88634C7.33203 1.74297 9.18208 0 11.4571 0H39.8746C42.1497 0 43.9997 1.74297 43.9997 3.88634V23.7501C43.9997 25.8934 42.1497 27.6364 39.8746 27.6364ZM11.4571 2.59089C10.6981 2.59089 10.0821 3.17125 10.0821 3.88634V23.7501C10.0821 24.4652 10.6981 25.0455 11.4571 25.0455H39.8746C40.6336 25.0455 41.2497 24.4652 41.2497 23.7501V3.88634C41.2497 3.17125 40.6336 2.59089 39.8746 2.59089H11.4571Z" fill="#DEE3E6"></path><path d="M16.4989 12.0914C14.4766 12.0914 12.832 10.542 12.832 8.63676C12.832 6.73154 14.4766 5.18213 16.4989 5.18213C18.5212 5.18213 20.1654 6.73154 20.1654 8.63676C20.1654 10.542 18.5212 12.0914 16.4989 12.0914ZM16.4989 7.77302C15.9927 7.77302 15.5821 8.16014 15.5821 8.63676C15.5821 9.11338 15.9927 9.5005 16.4989 9.5005C17.0048 9.5005 17.4154 9.11338 17.4154 8.63676C17.4154 8.16014 17.0048 7.77302 16.4989 7.77302Z" fill="#DEE3E6"></path><path d="M8.74399 25.8744C8.39218 25.8744 8.04003 25.7482 7.77247 25.4946C7.23535 24.9886 7.23535 24.1678 7.77247 23.6618L16.0593 15.8546C17.3135 14.673 19.3538 14.673 20.606 15.8546L22.8227 17.943L29.6317 10.2427C30.2403 9.55515 31.1333 9.15791 32.0813 9.15285C33.1005 9.0994 33.9257 9.53617 34.5397 10.2152L43.6664 20.247C44.1612 20.7894 44.0934 21.6082 43.5177 22.0744C42.9403 22.5409 42.0731 22.477 41.578 21.9346L32.4479 11.8993C32.3267 11.7627 32.1783 11.7697 32.0957 11.7453C32.0172 11.7453 31.8648 11.7678 31.7439 11.9025L23.9704 20.6945C23.7227 20.9741 23.3618 21.1436 22.9767 21.1591C22.5843 21.1797 22.214 21.038 21.9424 20.7809L18.661 17.689C18.428 17.4695 18.2356 17.4695 18.0026 17.689L9.71585 25.4946C9.44796 25.7482 9.09614 25.8744 8.74399 25.8744Z" fill="#DEE3E6"></path></svg>