<svg xmlns="http://www.w3.org/2000/svg" viewBox="0 0 800 131.23"><defs><style>.cls-1{fill:#00ce7c;}.cls-2{fill:#0a2240;}</style></defs><g id="Capa_2" data-name="Capa 2"><g id="Capa_2-2" data-name="Capa 2"><path class="cls-1" d="M159.21,119a18.14,18.14,0,0,1-16.42,10.43H83.55a1.21,1.21,0,0,1-1.09-1.73L96.38,98.12a2.43,2.43,0,0,1,2.19-1.39h30A6.06,6.06,0,0,0,134,93.25l28.29-58.87a1.21,1.21,0,0,0-1.09-1.73H27a1.22,1.22,0,0,1-1.1-1.73L39.87,1.39A2.42,2.42,0,0,1,42.06,0H200.62a9.68,9.68,0,0,1,8.73,13.84Z"/><path class="cls-1" d="M91.29,58.54,60.19,128a2.41,2.41,0,0,1-2.2,1.41H25.31a1.21,1.21,0,0,1-1.1-1.7l16-37.35a.6.6,0,0,0-.55-.85H1.21A1.21,1.21,0,0,1,.12,87.75L14,58.22a2.42,2.42,0,0,1,2.19-1.39h74A1.21,1.21,0,0,1,91.29,58.54Z"/><path class="cls-2" d="M272.16,41.45H234.57c-.58,3.62-1.32,7.23-2.06,10.84-1.63,8.27-3.09,16.53-4.71,24.78-.74,3.63-1.48,7.25-2.06,10.86H268c5.14,0,10.05-4.22,11.08-9.37q2.22-11.5,4.42-23.06C285,47.77,279.71,41.45,272.16,41.45Zm-5.32,17.33c-.83,4.68-1.76,9.32-2.81,14A5.36,5.36,0,0,1,259,77.07H243.86c1.63-8.25,3.09-16.51,4.71-24.78h13A5.27,5.27,0,0,1,266.84,58.78Z"/><path class="cls-2" d="M333.76,41.45H302.91a11.9,11.9,0,0,0-11.24,9.37c-.89,4.63-1.77,9.24-2.65,13.86-.59,3.08-1.19,6.14-1.77,9.2-1.48,7.72,3.46,14.05,11.17,14.05h31a12.07,12.07,0,0,0,11.24-9.37c.88-4.61,1.77-9.25,2.65-13.88l1.77-9.18C346.56,47.77,341.47,41.45,333.76,41.45Zm-5.32,17.33c-.37,2-.74,3.93-1.19,5.9-.29,1.81-.74,3.62-1,5.42a15.34,15.34,0,0,1-.59,2.65,5.2,5.2,0,0,1-4.91,4.32H309.15a5.14,5.14,0,0,1-5.25-6.49c.42-2,.73-3.93,1.18-5.9.29-1.79.74-3.61,1-5.42a16.25,16.25,0,0,1,.6-2.65,5.19,5.19,0,0,1,4.9-4.32h11.57A5.26,5.26,0,0,1,328.44,58.78Z"/><path class="cls-2" d="M365.24,70.58c.83-4.66,1.76-9.3,2.81-14,.87-5,1.91-10.1,2.78-15.16h-15.9c-.88,5.06-1.91,10.12-2.79,15.16-1.19,5.76-2.33,11.53-3.39,17.27-1.44,7.73,3.45,14.05,11.17,14.05h27c.58-3.61,1.32-7.23,2.06-10.86h-18.5A5.27,5.27,0,0,1,365.24,70.58Z"/><path class="cls-2" d="M410.3,70.58c.83-4.66,1.76-9.3,2.81-14,.87-5,1.91-10.1,2.78-15.16H400c-.88,5.06-1.91,10.12-2.79,15.16-1.19,5.76-2.33,11.53-3.39,17.27-1.44,7.73,3.45,14.05,11.17,14.05H422.5l8.25-10.86h-15.2A5.27,5.27,0,0,1,410.3,70.58Z"/><path class="cls-2" d="M476,41.45c-5.79,0-11.2,2.91-15.29,8-9.9,12.84-19.8,25.66-29.37,38.48h18.31q5-6.68,10.09-13.35h18.31q-1.28,6.67-2.53,13.35h16.07L496,64.7q2.21-11.62,4.42-23.25H476Zm-7.92,22.28c1.91-2.48,3.84-4.95,5.76-7.43a10,10,0,0,1,7.81-4h.64q-1.07,5.72-2.16,11.44Z"/><path class="cls-2" d="M546.38,41.45H508.62c-.58,3.62-1.32,7.23-2.06,10.84-1.62,8.27-3.24,16.53-4.71,24.78q-1.11,5.45-2.22,10.86H515.7q1.11-5.42,2.22-10.86c.15-.9.29-1.81.43-2.71h12c1.69,4.53,3.38,9.06,5.22,13.57H554.1c-1.85-4.79-3.7-9.57-5.55-14.38A12.22,12.22,0,0,0,555.79,65c.45-1.93.89-3.87,1.18-5.8a.48.48,0,0,1,.15-.41c.15-1.09.39-2.2.59-3.28C559.12,47.76,553.93,41.45,546.38,41.45Zm-5.32,17.33a.47.47,0,0,0-.16.41,5.36,5.36,0,0,1-5.06,4.33H520.41l2.22-11.23H535.8C539.34,52.29,541.64,55.21,541.06,58.78Z"/><path class="cls-1" d="M621.87,41.45h-37.6c-.57,3.62-1.32,7.23-2.06,10.84-1.62,8.27-3.08,16.53-4.7,24.78-.74,3.63-1.48,7.25-2.06,10.86h15.9q1.11-5.42,2.22-10.86c.15-.9.29-1.81.44-2.71H620.2c5.14,0,10.37-4.21,11.24-9.37.45-1.93.9-3.87,1.18-5.8a.47.47,0,0,1,.16-.41c.14-1.09.38-2.2.58-3.28C634.78,47.76,629.58,41.45,621.87,41.45Zm-5.16,17.33c0,.14-.16.28-.15.41a5.55,5.55,0,0,1-5.23,4.33H596.07q1.09-5.62,2.21-11.23h13.18C615,52.29,617.29,55.21,616.71,58.78Z"/><path class="cls-1" d="M652.82,70.58c.83-4.66,1.77-9.3,2.81-14,.88-5,1.91-10.1,2.79-15.16H642.51c-.87,5.06-1.91,10.12-2.78,15.16-1.19,5.76-2.34,11.53-3.4,17.27-1.43,7.73,3.46,14.05,11.17,14.05h26.36c.58-3.61,1.32-7.23,2.06-10.86H658.08A5.27,5.27,0,0,1,652.82,70.58Z"/><path class="cls-1" d="M725.4,41.45c-1,5.95-2.2,11.88-3.38,17.81-.74,3.63-1.32,7.23-2.06,10.84-.15.89-.45,1.78-.6,2.65a5.36,5.36,0,0,1-5.06,4.32H702.73a5.23,5.23,0,0,1-5.26-6.49c.92-4.64,1.77-9.3,2.81-14,.88-5,1.92-10.1,2.79-15.16H687c-.87,5.06-1.91,10.12-2.78,15.16-1.19,5.76-2.26,11.51-3.4,17.27-1.52,7.71,3.62,14.05,11.33,14.05H723a12.27,12.27,0,0,0,11.41-9.37q2.21-11.5,4.41-23.06,1.33-7,2.65-14H725.4Z"/><path class="cls-1" d="M794.54,41.45h-37c-5,0-10,4.2-11.08,9.37a8.22,8.22,0,0,0-.29,2l-.45,1.64a8.08,8.08,0,0,1-.29,1.64c-1.52,7.73,3.78,14,11.33,14h19.12a2.17,2.17,0,0,1,2.13,2.6,15,15,0,0,0-.59,2.65,2.14,2.14,0,0,1-1.9,1.72H741.5c-.45,1.82-.74,3.63-1,5.42-.45,1.81-.74,3.63-1,5.44h42.25a12.07,12.07,0,0,0,11.24-9.37,8.53,8.53,0,0,1,.29-2,5.85,5.85,0,0,0,.3-1.64c.15-.54.34-1.08.45-1.64,1.51-7.71-3.78-14.05-11.49-14.05h-19a2,2,0,0,1-2-2.6c.15-.87.3-1.76.44-2.65A2.17,2.17,0,0,1,764,52.29h33.9c.45-1.8.74-3.61,1-5.42.45-1.8.74-3.61,1-5.42Z"/><path class="cls-1" d="M307.51,127.56a15.11,15.11,0,0,1-5.18-.8l1.43-3a16.16,16.16,0,0,0,4.4.66c1.77,0,3.36,0,3.62-1,.17-.76-.28-.82-2.38-1-2.81-.19-5.7-1.06-5-4s4-4.14,6.9-4.14a17.86,17.86,0,0,1,4.39.49l-1.25,3a20.32,20.32,0,0,0-3.89-.44c-2.12,0-2.71.15-2.89,1s.81.83,2.66,1c2.76.19,5.42,1,4.72,3.9C314.23,126.67,310.54,127.56,307.51,127.56Z"/><path class="cls-1" d="M328.89,122.35h-4.28l-.5,2.05h7.14l-1,3.08h-10.1l3.18-13h10.3l-1,3.09h-6.84l-.41,1.72h4.56Z"/><path class="cls-1" d="M346.69,124.19l.85-3.47h3.2l-1.36,5.59a15.58,15.58,0,0,1-6.16,1.25c-4,0-6.59-2.07-5.48-6.59s4.65-6.57,8.68-6.57a13.87,13.87,0,0,1,4.47.68L349.26,118a13.47,13.47,0,0,0-3.58-.51c-2.56,0-4.17,1.18-4.72,3.47s.45,3.48,3,3.48A12.68,12.68,0,0,0,346.69,124.19Z"/><path class="cls-1" d="M370.68,120.7c-1.21,4.89-4.32,6.86-8.37,6.86s-6.19-2-5-6.86l1.53-6.25H362l-1.51,6.25c-.53,2.12-.7,3.75,2.54,3.75s3.88-1.63,4.41-3.75l1.51-6.25h3.2Z"/><path class="cls-1" d="M386.92,127.48H383l-1.91-3.63h-1.42l-.88,3.63h-3.22l3.18-13h5.11c3.24,0,6.1,1,5.18,4.76a5.61,5.61,0,0,1-4.38,4.28Zm-4.62-6.64c2.27,0,3.18-.14,3.53-1.63s-.45-1.67-2.72-1.67h-1.9l-.79,3.3Z"/><path class="cls-1" d="M396.37,127.48h-3.2l3.18-13h3.2Z"/><path class="cls-1" d="M403.21,127.48l3.17-13h4.41c4.15,0,6.85,2,5.73,6.54s-4.77,6.49-8.9,6.49Zm3.94-3.08h1.2c3.2,0,4.41-1.12,5-3.41s-.1-3.45-3.28-3.45h-1.21Z"/><path class="cls-1" d="M429.22,127.48l-.16-1.91h-4.91l-1.1,1.91h-3.47l7.7-12.82,3.94-.21,1.49,13Zm-3.26-5h2.8l-.39-4.14Z"/><path class="cls-1" d="M438.35,127.48l3.17-13h4.42c4.14,0,6.84,2,5.73,6.54s-4.78,6.49-8.91,6.49Zm3.94-3.08h1.2c3.2,0,4.41-1.12,5-3.41s-.1-3.45-3.28-3.45H444Z"/><path class="cls-1" d="M456.09,125.72a2.51,2.51,0,0,1,2.41-1.84,1.46,1.46,0,0,1,1.55,1.84,10.06,10.06,0,0,1-3.1,5.51H455.3c1.79-1.91,2-3.07,1.16-4A1.59,1.59,0,0,1,456.09,125.72Z"/><path class="cls-1" d="M477.56,127.48h-3.92l-1.9-3.63h-1.42l-.88,3.63h-3.22l3.18-13h5.11c3.24,0,6.1,1,5.18,4.76a5.61,5.61,0,0,1-4.38,4.28Zm-4.63-6.64c2.28,0,3.19-.14,3.54-1.63s-.45-1.67-2.73-1.67h-1.89l-.79,3.3Z"/><path class="cls-1" d="M492.48,127.48l-.16-1.91h-4.91l-1.1,1.91h-3.47l7.7-12.82,3.94-.21,1.49,13Zm-3.26-5H492l-.39-4.14Z"/><path class="cls-1" d="M504.83,127.48h-3.22l3.17-13H510c3.05,0,6,1,5.05,4.76s-4.34,4.71-7.39,4.71h-2Zm3.62-6.64c2.45,0,3.12-.48,3.41-1.63s-.15-1.67-2.6-1.67h-2l-.79,3.3Z"/><path class="cls-1" d="M522.42,127.48h-3.2l3.17-13h3.2Z"/><path class="cls-1" d="M529.25,127.48l3.18-13h4.41c4.15,0,6.84,2,5.73,6.54s-4.78,6.49-8.91,6.49Zm4-3.08h1.19c3.2,0,4.41-1.12,5-3.41s-.1-3.45-3.28-3.45h-1.21Z"/><path class="cls-1" d="M555.85,122.35h-4.28l-.5,2.05h7.14l-1,3.08H547.11l3.17-13h10.3l-1,3.09h-6.83l-.42,1.72h4.56Z"/><path class="cls-1" d="M575.57,124.4l-1,3.08H563.1l1.06-3.16,8.17-6.78h-6.66l1-3.09h11l-1.05,3.11-8.12,6.84Z"/><path class="cls-1" d="M597.53,119.3l3.73-4.64,4-.21-6.93,8.11h0l-1.18,4.92H594l1.18-4.92-2.9-7.92,3.76-.21Z"/><path class="cls-1" d="M625.55,127.48l-.16-1.91h-4.91l-1.1,1.91h-3.47l7.69-12.82,3.95-.21,1.48,13Zm-3.26-5h2.8l-.39-4.14Z"/><path class="cls-1" d="M646.17,127.48H643l1.25-5.19h-5l-1.27,5.19h-3.22l3.18-13h3.22l-1.18,4.76H645l1.17-4.76h3.22Z"/><path class="cls-1" d="M653.84,121c1.08-4.51,4.67-6.57,8.72-6.57s6.64,2.06,5.56,6.57-4.72,6.59-8.76,6.59S652.73,125.49,653.84,121Zm3.22,0c-.48,2,.11,3.52,3.05,3.52s4.31-1.57,4.79-3.52-.15-3.51-3.08-3.51S657.52,119,657.06,121Z"/><path class="cls-1" d="M684,127.48H680l-1.91-3.63h-1.42l-.87,3.63h-3.22l3.17-13h5.12c3.23,0,6.1,1,5.18,4.76a5.61,5.61,0,0,1-4.38,4.28Zm-4.63-6.64c2.27,0,3.19-.14,3.54-1.63s-.46-1.67-2.73-1.67h-1.89l-.79,3.3Z"/><path class="cls-1" d="M701.53,127.48h-3.92l-1.91-3.63h-1.42l-.87,3.63h-3.22l3.17-13h5.12c3.23,0,6.1,1,5.18,4.76a5.61,5.61,0,0,1-4.38,4.28Zm-4.63-6.64c2.28,0,3.19-.14,3.54-1.63s-.46-1.67-2.73-1.67h-1.89l-.79,3.3Z"/><path class="cls-1" d="M708.88,121c1.08-4.51,4.67-6.57,8.72-6.57s6.64,2.06,5.56,6.57-4.72,6.59-8.76,6.59S707.77,125.49,708.88,121Zm3.22,0c-.48,2,.11,3.52,3,3.52s4.31-1.57,4.79-3.52-.15-3.51-3.08-3.51S712.56,119,712.1,121Z"/></g></g></svg>