<?xml version="1.0" encoding="UTF-8" standalone="no"?>
<!-- Created with Inkscape (http://www.inkscape.org/) -->

<svg
   width="420"
   height="420"
   viewBox="0 0 111.125 111.125"
   version="1.1"
   id="svg5"
   xml:space="preserve"
   inkscape:version="1.2.1 (9c6d41e410, 2022-07-14)"
   sodipodi:docname="GOZO.svg"
   xmlns:inkscape="http://www.inkscape.org/namespaces/inkscape"
   xmlns:sodipodi="http://sodipodi.sourceforge.net/DTD/sodipodi-0.dtd"
   xmlns="http://www.w3.org/2000/svg"
   xmlns:svg="http://www.w3.org/2000/svg"><sodipodi:namedview
     id="namedview7"
     pagecolor="#ffffff"
     bordercolor="#000000"
     borderopacity="0.25"
     inkscape:showpageshadow="2"
     inkscape:pageopacity="0.0"
     inkscape:pagecheckerboard="0"
     inkscape:deskcolor="#d1d1d1"
     inkscape:document-units="mm"
     showgrid="false"
     inkscape:zoom="0.63234634"
     inkscape:cx="-23.721178"
     inkscape:cy="45.070238"
     inkscape:window-width="1280"
     inkscape:window-height="748"
     inkscape:window-x="-8"
     inkscape:window-y="-8"
     inkscape:window-maximized="1"
     inkscape:current-layer="layer1" /><defs
     id="defs2" /><g
     inkscape:label="Capa 1"
     inkscape:groupmode="layer"
     id="layer1"
     transform="translate(-0.55330471,-0.87143375)"><path
       style="fill:#0f74ac;stroke-width:0.180574;fill-opacity:1"
       d="m 33.643819,105.70209 c -2.606155,-0.4841 -5.343876,-1.55359 -7.80271,-3.04814 -2.670313,-1.62309 -4.533719,-2.50566 -6.225556,-2.948645 -1.57993,-0.413682 -1.845327,-0.434424 -3.335951,-0.26071 -2.666666,0.310768 -3.669053,0.624685 -6.6389915,2.079105 -1.5592202,0.76357 -2.8710763,1.38831 -2.9152326,1.38831 -0.044172,0 -0.3977651,0.21159 -0.7857966,0.47018 -0.3880337,0.2586 -0.7911652,0.41688 -0.8958458,0.35173 -0.1269132,-0.0789 -0.190326,-1.91672 -0.190326,-5.515927 0,-4.914347 0.028201,-5.422197 0.3149002,-5.673831 0.5838213,-0.512407 3.7244922,-2.08445 4.9033633,-2.454352 2.592482,-0.813452 3.990314,-1.037597 6.477841,-1.038724 1.791577,-0.001 2.783421,0.08894 3.778741,0.342008 1.948215,0.495353 3.98282,1.171018 4.445472,1.476304 0.220136,0.145247 0.487633,0.264098 0.594437,0.264098 0.106806,0 1.142057,0.54198 2.300565,1.204415 5.374444,3.073084 5.674728,3.18096 8.854129,3.18096 2.203258,0 2.546341,-0.04527 3.688771,-0.486651 1.49303,-0.576843 3.662775,-1.651249 4.06282,-2.011811 0.156243,-0.140826 0.344549,-0.256044 0.418458,-0.256044 0.0739,0 0.674827,-0.317675 1.33538,-0.705949 1.449985,-0.852301 4.459034,-2.133692 5.387033,-2.294059 0.369794,-0.06387 1.07722,-0.236216 1.572049,-0.382919 1.371104,-0.406498 4.946617,-0.503811 6.567813,-0.178762 2.584669,0.518231 3.160058,0.702093 4.948351,1.581192 1.820085,0.894721 3.938721,2.035604 4.301005,2.316067 0.557791,0.431829 2.247546,1.217336 4.132621,1.921096 1.104809,0.41247 1.50098,0.461456 3.732154,0.461456 2.235306,0 2.641002,-0.05037 3.88229,-0.482049 0.762367,-0.265129 1.593056,-0.590806 1.845971,-0.723716 0.252916,-0.132921 0.528318,-0.242178 0.612009,-0.242783 0.08373,-5.1e-4 0.367094,-0.152547 0.629791,-0.337631 1.105729,-0.779045 4.468483,-2.554768 4.8475,-2.559773 0.127186,-10e-4 0.416679,-0.125397 0.643299,-0.274926 0.518501,-0.342126 3.262468,-1.176862 3.880591,-1.180518 0.254709,-10e-4 0.787008,-0.120233 1.182877,-0.263854 1.670669,-0.606118 7.012589,-0.153249 9.591449,0.813134 1.33947,0.50194 4.30236,1.981303 4.53601,2.264817 0.11366,0.137904 0.19045,2.266134 0.20314,5.628722 0.0212,5.63199 -0.016,5.90552 -0.719,5.26493 -0.84095,-0.76641 -5.82932,-3.18032 -7.58361,-3.669765 -2.008487,-0.560362 -4.505619,-0.589264 -6.146919,-0.07109 -0.627356,0.198036 -1.262109,0.361655 -1.410557,0.363595 -0.148461,0.002 -1.160612,0.50198 -2.249258,1.11123 -4.826516,2.70116 -6.147175,3.27087 -9.626785,4.1529 -2.194096,0.55619 -6.321208,0.56912 -8.367216,0.0262 -3.354242,-0.89001 -4.021284,-1.17586 -7.435718,-3.18661 -2.231691,-1.31423 -3.313991,-1.83294 -5.070114,-2.42993 -1.649697,-0.560798 -4.801238,-0.568364 -6.47784,-0.01562 -1.447579,0.47731 -1.635012,0.57197 -6.747754,3.40807 -1.132703,0.62833 -2.749007,1.33872 -3.778739,1.66082 -0.98967,0.30958 -2.001831,0.64743 -2.249248,0.75079 -0.457688,0.19119 -6.196862,0.36505 -7.017663,0.21258 z m 1.159549,-15.173671 c -0.891407,-0.29553 -4.314693,-2.036091 -4.829434,-2.45551 -0.252116,-0.205433 -3.433398,-1.840626 -4.22619,-2.172274 -0.328205,-0.137309 -0.851882,-0.3152 -1.163726,-0.39532 -0.311845,-0.08012 -0.903662,-0.270581 -1.315148,-0.423244 -0.788939,-0.292694 -2.483785,-0.63958 -3.840314,-0.785984 -0.445352,-0.04803 -0.897398,-0.158849 -1.004548,-0.246173 -0.107145,-0.08735 -0.339067,-0.832867 -0.515372,-1.656733 -0.176303,-0.823866 -0.432774,-1.973409 -0.569927,-2.554524 -0.137157,-0.581125 -0.249376,-1.220811 -0.249376,-1.421536 0,-0.200726 -0.153693,-0.907642 -0.341546,-1.570938 -0.187857,-0.663286 -0.475305,-1.899102 -0.638786,-2.746249 -0.163477,-0.847148 -0.448579,-2.233396 -0.633553,-3.080543 -0.184976,-0.847147 -0.474882,-2.192613 -0.644236,-2.989929 -0.529325,-2.492074 -0.981968,-4.50342 -1.173263,-5.213459 -0.101237,-0.375792 -0.135066,-0.763123 -0.07515,-0.860738 0.0706,-0.115037 15.267931,-0.177481 43.193943,-0.177481 h 43.085023 v 0.394854 c 0,0.217167 -0.07804,0.645272 -0.173461,0.951341 -0.160782,0.515928 -0.487016,1.964515 -1.206752,5.358506 -0.15851,0.747476 -0.439129,1.951158 -0.623608,2.674842 -0.184466,0.723674 -0.335407,1.547328 -0.335407,1.83034 0,0.283003 -0.0729,0.750972 -0.161946,1.039925 -0.08908,0.288953 -0.337084,1.3408 -0.551129,2.337445 -0.214044,0.996646 -0.50328,2.301338 -0.642728,2.899327 -0.139459,0.597989 -0.333207,1.551493 -0.430547,2.118889 -0.09736,0.567408 -0.307762,1.484667 -0.4676,2.038355 -0.319641,1.107283 -0.29181,1.090845 -2.154585,1.272582 -0.593796,0.05791 -1.52498,0.231466 -2.069297,0.385628 -0.544329,0.154173 -1.29086,0.356014 -1.658966,0.448545 -0.368119,0.09256 -1.015901,0.322797 -1.439531,0.511706 -0.423617,0.188909 -1.215574,0.535158 -1.759892,0.76945 -0.544317,0.234293 -1.943404,0.967105 -3.109081,1.628478 -1.165678,0.661373 -2.731624,1.421367 -3.479867,1.688865 -1.203255,0.430173 -1.561358,0.47798 -3.098857,0.413629 -2.072674,-0.08671 -3.105134,-0.428111 -5.683801,-1.879252 -7.107344,-3.999629 -8.671709,-4.498605 -14.048588,-4.480997 -3.652013,0.012 -4.867255,0.203221 -8.006101,1.260011 -1.209571,0.407241 -5.008549,2.212695 -5.48207,2.605347 -0.232651,0.192915 -3.118923,1.657731 -4.305594,2.185132 -1.099139,0.488498 -3.151401,0.635042 -4.168981,0.297687 z m 2.578226,-11.280005 c 2.145757,-0.446345 2.020306,-0.261537 2.020306,-2.976184 0,-2.235818 0.01888,-2.357008 0.404862,-2.599579 0.222675,-0.139944 0.633294,-0.30792 0.912484,-0.37328 0.283353,-0.06631 0.475551,-0.215963 0.435035,-0.338673 -0.05213,-0.157849 -0.918097,-0.233836 -3.071761,-0.269507 -2.503042,-0.04144 -2.999181,-0.0064 -2.999181,0.209311 0,0.145672 0.334625,0.365641 0.764745,0.502706 l 0.764744,0.243708 0.05071,2.13148 0.05072,2.131492 -0.467294,0.17891 c -0.709573,0.271687 -3.650822,0.213806 -4.859578,-0.09563 -2.461948,-0.630229 -4.976767,-2.342568 -5.581698,-3.800583 -0.366842,-0.884158 -0.324973,-2.737971 0.08224,-3.640873 0.692189,-1.534799 2.441029,-2.726618 4.636755,-3.159909 1.660887,-0.327752 4.80378,-0.163744 5.830817,0.304269 0.869709,0.396325 2.146707,1.581316 2.146707,1.992043 0,0.134207 0.112676,0.244015 0.250387,0.244015 0.237522,0 0.829253,-2.082281 0.829253,-2.918105 0,-0.411413 -0.242822,-0.472866 -2.78907,-0.70585 -6.210909,-0.568305 -9.969117,0.144779 -12.103694,2.296565 -1.308966,1.319516 -1.74666,2.369005 -1.715273,4.112828 0.06169,3.427429 2.334137,5.643174 6.711336,6.543867 1.689702,0.347683 5.997378,0.340393 7.696456,-0.01307 z m 18.647484,-0.07023 c 1.634579,-0.421002 3.229617,-1.236209 4.333712,-2.214917 1.765966,-1.565423 2.291937,-4.111372 1.279776,-6.194739 -0.903362,-1.859413 -3.555646,-3.767595 -6.064616,-4.363179 -0.639959,-0.151914 -1.99718,-0.274428 -3.056628,-0.275918 -4.251973,-0.0059 -7.705597,1.647613 -8.807426,4.216979 -0.490352,1.143454 -0.662296,3.095451 -0.366345,4.158945 0.61512,2.210421 3.061213,4.031294 6.400897,4.76485 1.692951,0.371846 4.647699,0.328556 6.28063,-0.09202 z m -2.691788,-6.25613 c -7.6e-5,-3.089597 0.02448,-4.378998 0.05452,-2.865335 0.03004,1.513664 0.03015,4.041517 1.38e-4,5.617449 -0.03,1.575932 -0.0546,0.337482 -0.05466,-2.752114 z m 1.179574,0 c 0,-4.397138 0.04361,-5.345641 0.245731,-5.345641 0.504031,0 2.811019,1.304071 3.262163,1.844011 1.234024,1.476887 1.631916,3.425377 1.087242,5.324266 -0.39496,1.37694 -1.562405,2.578624 -3.049497,3.138933 -1.683112,0.63417 -1.545639,1.075458 -1.545639,-4.961569 z m -5.320001,4.733471 c -2.139701,-1.003371 -3.133668,-2.533516 -3.133668,-4.824079 0,-1.692882 0.506308,-2.897436 1.622169,-3.859302 0.671237,-0.578597 2.357082,-1.395731 2.879568,-1.395731 0.106982,0 0.173188,2.009021 0.173188,5.255033 0,5.969457 0.117437,5.601892 -1.541257,4.824079 z m 22.760239,1.563511 c -0.02434,-0.552584 -0.630816,-2.104024 -0.851498,-2.178098 -0.116588,-0.0391 -0.289574,0.134366 -0.384421,0.385565 -0.282086,0.747188 -0.703619,0.841187 -3.772327,0.841187 h -2.886571 l 4.584175,-5.8719 c 2.521293,-3.229552 4.584173,-5.961259 4.584173,-6.070475 0,-0.206957 -11.712518,-0.302848 -11.91637,-0.09756 -0.17705,0.1783 0.644779,2.435903 0.886739,2.435903 0.128272,0 0.233223,-0.0967 0.233223,-0.214826 0,-0.118162 0.176059,-0.403563 0.391246,-0.634232 0.378933,-0.4062 0.486623,-0.419397 3.422408,-0.419397 h 3.031166 l -4.412075,5.893689 c -2.42665,3.241527 -4.412088,5.973239 -4.412088,6.070468 0,0.111222 2.135403,0.176784 5.758086,0.176784 5.369238,0 5.757141,-0.02146 5.744134,-0.317111 z m 12.862377,-0.04081 c 1.634582,-0.421002 3.229629,-1.236208 4.333716,-2.214917 1.765972,-1.565423 2.291936,-4.111371 1.279774,-6.194738 -0.903364,-1.859413 -3.555651,-3.767596 -6.064614,-4.36318 -1.68137,-0.399124 -4.645728,-0.360107 -6.369383,0.08384 -3.816845,0.983066 -5.744017,2.887121 -5.985241,5.91344 -0.226563,2.842372 1.21674,4.898524 4.334927,6.17559 1.639997,0.671681 3.042694,0.927406 5.17541,0.943526 1.348501,0.01063 2.311883,-0.09022 3.295411,-0.343561 z m -2.691775,-6.256125 c -8.1e-5,-3.089597 0.02445,-4.378998 0.0545,-2.865334 0.03004,1.513663 0.03016,4.041515 1.28e-4,5.617448 -0.03004,1.575932 -0.05462,0.337482 -0.05462,-2.752114 z m 1.17957,0 c 0,-4.397137 0.04355,-5.345641 0.245729,-5.345641 0.504027,0 2.811019,1.304071 3.262155,1.844011 1.234031,1.476887 1.631926,3.425377 1.087248,5.324267 -0.39496,1.376939 -1.562407,2.578622 -3.049494,3.138932 -1.683107,0.63417 -1.545638,1.075458 -1.545638,-4.961569 z m -5.320004,4.733474 c -2.139703,-1.003372 -3.133665,-2.533516 -3.133665,-4.824079 0,-1.692882 0.506309,-2.897436 1.622158,-3.859302 0.671246,-0.578597 2.357089,-1.395731 2.879571,-1.395731 0.107017,0 0.173195,2.009022 0.173195,5.255033 0,5.969457 0.117427,5.601893 -1.541259,4.824079 z M 23.811485,56.575471 c -0.05482,-0.220164 -0.01424,-0.954057 0.0902,-1.630873 0.340823,-2.208759 0.860363,-7.019256 1.111441,-10.290977 0.149776,-1.951703 0.480733,-4.569273 0.603031,-4.769425 0.04139,-0.06776 0.102317,-0.775542 0.13536,-1.572855 l 0.06009,-1.449669 -3.236509,-0.0906 -3.23651,-0.0906 v -5.073826 -5.073828 l 9.266912,-0.09061 9.266911,-0.09061 v -3.17114 -3.17114 l -2.069309,-0.09061 -2.069311,-0.09061 v -2.536901 -2.53691 l 14.916973,-0.03616 c 8.204333,-0.01989 14.98222,-0.101904 15.061988,-0.182221 0.07977,-0.08032 0.168851,-0.838706 0.197986,-1.685296 l 0.05298,-1.539251 1.294132,-0.05303 c 1.589086,-0.06512 1.77311,0.141524 1.584393,1.779033 -0.206814,1.794417 -0.675381,1.675238 6.44108,1.63828 6.044607,-0.03139 6.227176,-0.02204 6.413413,0.328378 0.202772,0.381556 0.262394,3.815086 0.07825,4.507003 -0.104455,0.392492 -0.184873,0.407717 -2.153396,0.407717 -1.971061,0 -2.048499,0.0147 -2.144815,0.407718 -0.05496,0.224244 -0.07674,1.671648 -0.04844,3.216446 l 0.05147,2.808723 9.207058,0.09061 c 5.063874,0.04983 9.248513,0.132417 9.299203,0.183525 0.144467,0.145674 0.186633,9.704937 0.04379,9.937619 -0.08792,0.143327 -1.102038,0.207719 -3.271248,0.207719 h -3.143786 l 0.09094,1.494964 c 0.05007,0.822232 0.172869,2.065773 0.273015,2.763422 0.100147,0.697653 0.266947,2.083896 0.370681,3.080541 0.10376,0.996643 0.271616,2.545971 0.373067,3.442951 0.10143,0.89698 0.257795,2.405539 0.347437,3.35235 0.08967,0.946812 0.250656,2.490863 0.357777,3.431223 0.107133,0.94036 0.17061,1.909459 0.141066,2.153553 l -0.05369,0.443809 -4.228587,-0.0068 -4.228586,-0.0068 -0.121666,-0.425222 c -0.178144,-0.622606 -0.51892,-3.393979 -0.698472,-5.680255 -0.243146,-3.096033 -0.666461,-7.067799 -0.965664,-9.060402 -0.149661,-0.996645 -0.274669,-2.316424 -0.277801,-2.932838 -0.0035,-0.616413 -0.08466,-1.329919 -0.181194,-1.585568 l -0.175462,-0.46483 H 56.691201 c -12.218811,0 -21.989322,0.06975 -22.043089,0.157349 -0.05311,0.08655 -0.181441,1.283393 -0.285174,2.659663 -0.103739,1.376272 -0.307976,3.191647 -0.453873,4.034173 -0.145894,0.842523 -0.265262,2.025916 -0.265262,2.629763 0,0.603848 -0.07893,1.551305 -0.175399,2.105457 -0.09647,0.554155 -0.263807,1.945306 -0.371862,3.091447 -0.260727,2.765517 -0.595695,5.199552 -0.734701,5.338674 -0.0618,0.06184 -1.988479,0.129484 -4.281518,0.150309 -4.165141,0.03783 -4.169262,0.03748 -4.268854,-0.362437 z M 38.502199,35.183168 c 0,-0.07603 -0.182188,-0.218732 -0.404864,-0.317114 -0.369046,-0.16305 -0.409465,-0.319158 -0.456855,-1.764445 l -0.052,-1.585573 h 0.699914 c 0.796567,0 1.833257,0.317437 1.833257,0.561355 0,0.0899 0.161945,0.163477 0.359882,0.163477 0.221843,0 0.36082,-0.121631 0.362335,-0.317114 0.0015,-0.174413 0.05085,-0.499001 0.110044,-0.721308 0.107308,-0.403136 0.103087,-0.403891 -1.621918,-0.289781 l -1.729501,0.114408 V 29.731286 28.4355 h 1.168087 c 0.97321,0 1.205581,0.06046 1.392832,0.362414 0.345381,0.556936 0.642188,0.434243 0.879547,-0.363585 0.1188,-0.399299 0.182778,-0.74586 0.142181,-0.770132 -0.225311,-0.134711 -6.461686,0.09629 -6.461686,0.239357 0,0.09324 0.152031,0.169527 0.337848,0.169527 0.678118,0 0.752671,0.37821 0.701253,3.557521 -0.04809,2.973351 -0.06046,3.061444 -0.454296,3.235452 -0.7637,0.337413 -0.402509,0.45535 1.394535,0.45535 0.98967,0 1.7994,-0.06221 1.7994,-0.138236 z M 48.9046,34.551273 c 0.06579,-0.800561 -0.08224,-0.835033 -0.972671,-0.226509 -0.758427,0.518309 -1.262525,0.563008 -2.14794,0.190454 L 45.15998,34.25265 v -1.368303 -1.368311 h 0.69291 c 0.790668,0 1.826251,0.318315 1.826251,0.561355 0,0.0899 0.161946,0.163477 0.359883,0.163477 0.221842,0 0.36082,-0.121631 0.362335,-0.317114 0.0015,-0.174413 0.05085,-0.499001 0.110044,-0.721308 0.107308,-0.403136 0.103087,-0.403891 -1.621919,-0.289781 l -1.729502,0.114408 V 29.731286 28.4355 h 1.168088 c 0.973206,0 1.205577,0.06046 1.392833,0.362414 0.345376,0.556936 0.642183,0.434243 0.879548,-0.363585 0.118794,-0.399299 0.182777,-0.74586 0.142176,-0.770132 -0.225312,-0.134711 -6.461683,0.09629 -6.461683,0.239357 0,0.09324 0.152031,0.169527 0.337847,0.169527 0.678118,0 0.752669,0.37821 0.701254,3.557521 -0.04811,2.973351 -0.06046,3.061444 -0.4543,3.235452 -0.222674,0.09839 -0.404864,0.242962 -0.404864,0.321295 0,0.07833 1.437274,0.120151 3.193937,0.09293 l 3.193938,-0.04946 z m 4.352682,0.601137 c 0,-0.09294 -0.161947,-0.220762 -0.359878,-0.284024 -0.316577,-0.101183 -0.359882,-0.274172 -0.359882,-1.437547 v -1.322517 l 0.674776,0.125149 c 0.928035,0.172122 1.413608,0.458704 2.564143,1.513347 0.544318,0.498949 1.313565,1.055557 1.709432,1.236905 0.717297,0.328595 1.975033,0.431024 2.744085,0.223468 0.52823,-0.142556 0.521783,-0.42941 -0.0096,-0.42941 -0.683193,0 -2.121405,-0.845542 -3.358754,-1.974645 l -1.164152,-1.062311 0.576096,-0.488163 c 0.316847,-0.26849 0.664764,-0.787946 0.773137,-1.154344 0.552764,-1.868796 -1.198426,-2.695158 -5.202227,-2.454852 -1.969131,0.118183 -2.025671,0.132981 -1.570504,0.411109 l 0.472169,0.288512 -0.04896,3.172045 c -0.04774,3.093368 -0.05901,3.176483 -0.453827,3.350922 -0.756111,0.334064 -0.408619,0.45535 1.304567,0.45535 0.940189,0 1.709429,-0.07605 1.709429,-0.168994 z m -0.71976,-5.357851 v -1.540267 h 0.827725 c 0.701413,0 0.921083,0.09402 1.439519,0.616104 0.737668,0.742871 0.792429,1.392956 0.170123,2.019647 -0.36274,0.3653 -0.619992,0.444784 -1.439519,0.444784 h -0.997848 z m 12.235927,5.357851 c 0,-0.09294 -0.161945,-0.220762 -0.359885,-0.284024 -0.316577,-0.101183 -0.359873,-0.274172 -0.359873,-1.437547 v -1.322517 l 0.674774,0.125149 c 0.928028,0.172122 1.413609,0.458704 2.564135,1.513347 0.544318,0.498949 1.313568,1.055557 1.709435,1.236905 0.717303,0.328595 1.975033,0.431024 2.744084,0.223468 0.528236,-0.142556 0.521785,-0.42941 -0.0093,-0.42941 -0.683194,0 -2.121409,-0.845542 -3.358748,-1.974645 l -1.164151,-1.062311 0.576095,-0.488163 c 0.316847,-0.26849 0.664761,-0.787946 0.77314,-1.154344 0.55276,-1.868796 -1.198435,-2.695158 -5.202233,-2.454852 -1.96913,0.118183 -2.025671,0.132981 -1.570503,0.411109 l 0.472168,0.288512 -0.04897,3.172045 c -0.04774,3.093368 -0.059,3.176483 -0.453826,3.350922 -0.756112,0.334064 -0.408619,0.45535 1.304566,0.45535 0.940181,0 1.70943,-0.07605 1.70943,-0.168994 z m -0.719758,-5.357851 v -1.540267 h 0.827718 c 0.701418,0 0.921088,0.09402 1.439519,0.616104 0.737669,0.742871 0.792434,1.392956 0.17012,2.019647 -0.362739,0.3653 -0.619986,0.444784 -1.439518,0.444784 h -0.997839 z m 12.05598,5.38923 c 0,-0.07569 -0.161947,-0.239474 -0.359886,-0.363954 -0.311851,-0.196131 -0.359874,-0.422584 -0.359874,-1.697011 v -1.470678 l 1.559717,-1.744232 c 0.857856,-0.959324 1.667583,-1.809437 1.799403,-1.889137 0.570775,-0.345097 0.137574,-0.489318 -1.469759,-0.489318 -1.739886,0 -2.073082,0.137385 -1.249579,0.515238 l 0.459845,0.210996 -0.949722,1.086546 c -0.522343,0.597604 -1.004675,1.086546 -1.07183,1.086546 -0.06719,0 -0.541814,-0.487874 -1.054772,-1.084172 l -0.932675,-1.084179 0.465016,-0.213363 c 0.837163,-0.384126 0.493034,-0.517612 -1.334388,-0.517612 -1.079644,0 -1.799404,0.07248 -1.799404,0.181209 0,0.09966 0.07895,0.181204 0.175582,0.181204 0.09653,0 0.440701,0.304262 0.764743,0.676132 0.324043,0.371869 1.098684,1.217813 1.721442,1.879864 l 1.132267,1.203734 -0.05264,1.51779 c -0.04762,1.374545 -0.09082,1.534668 -0.457493,1.696662 -0.756114,0.334064 -0.408619,0.45535 1.304566,0.45535 0.940185,0 1.709436,-0.06193 1.709436,-0.137615 z M 54.477661,22.470513 c 0.0279,-1.23762 -0.02096,-2.32244 -0.108613,-2.410713 -0.167643,-0.168825 -11.727483,-0.202239 -11.894167,-0.03437 -0.134541,0.135487 -0.196933,3.919831 -0.07252,4.398929 l 0.10175,0.39182 5.961389,-0.04772 5.961395,-0.04772 z m 16.554476,0 c 0.02794,-1.23762 -0.01444,-2.315937 -0.0942,-2.396253 -0.07977,-0.08032 -2.774722,-0.152665 -5.988794,-0.160765 l -5.843767,-0.01474 -0.05008,2.458735 -0.05008,2.458728 5.988105,-0.04777 5.988107,-0.04777 z m 0.216687,32.813982 c -0.09758,-0.03323 -0.177479,-0.456513 -0.177479,-0.940649 0,-0.484133 -0.08396,-0.932486 -0.186516,-0.996337 -0.240409,-0.149621 -8.08504,-0.152631 -8.233468,-0.0031 -0.06168,0.0621 -0.115518,0.496873 -0.119652,0.966135 l -0.0075,0.853197 -1.484507,0.05263 -1.484507,0.05263 v -3.308337 c 0,-2.619354 0.06102,-3.469204 0.292977,-4.08087 0.270671,-0.713742 0.270671,-0.806825 0,-1.222838 -0.4652,-0.714984 -0.3775,-1.257493 0.241302,-1.492711 0.560064,-0.212889 0.932574,-0.846856 1.258292,-2.141466 0.273065,-1.085333 0.840422,-1.893357 1.534484,-2.185399 0.795566,-0.334753 6.870241,-0.353506 7.829232,-0.0242 0.515171,0.176919 0.724138,0.414153 1.14821,1.303531 0.285136,0.597989 0.560085,1.44503 0.611007,1.882321 0.08408,0.721733 0.156182,0.820237 0.782176,1.067868 0.830211,0.328411 1.005304,0.76252 0.591875,1.467343 -0.279035,0.475694 -0.284414,0.627234 -0.05648,1.587735 0.16332,0.688036 0.252054,2.114418 0.252054,4.05178 v 2.989933 l -1.307023,0.09061 c -0.718874,0.04983 -1.386906,0.06343 -1.484514,0.0302 z m -0.244123,-8.995878 c 0.05613,-0.147228 -0.08094,-0.819964 -0.304572,-1.494967 -0.223605,-0.675 -0.427379,-1.318525 -0.452835,-1.430052 -0.04996,-0.218844 -6.386501,-0.556776 -6.706433,-0.357656 -0.256713,0.15978 -1.1626,3.131365 -1.023623,3.357817 0.07787,0.126882 1.527859,0.192548 4.25182,0.192548 3.480064,0 4.149773,-0.04232 4.235643,-0.26769 z m -31.600665,5.839838 c 0.0014,-2.148763 0.08364,-3.434263 0.262884,-4.112541 0.244912,-0.926759 0.23876,-1.022528 -0.101173,-1.576436 -0.35905,-0.585051 -0.359131,-0.592328 -0.01016,-0.915983 0.193496,-0.179438 0.55453,-0.467117 0.8023,-0.63929 0.28576,-0.198572 0.494943,-0.563014 0.572054,-0.996646 0.06686,-0.375979 0.337445,-1.132093 0.601302,-1.680246 0.739591,-1.536462 1.034032,-1.63025 5.118985,-1.63059 3.915629,-3.65e-4 4.407379,0.119678 4.954782,1.209163 0.191571,0.38128 0.441565,1.136165 0.555534,1.677522 0.24322,1.155246 0.412394,1.396368 1.217329,1.735061 0.69618,0.292931 0.771752,0.725547 0.244628,1.400396 -0.352802,0.451678 -0.352782,0.458775 0.0041,1.481939 0.313088,0.897068 0.352531,1.413917 0.309513,4.055487 l -0.04933,3.027399 -1.484501,0.05263 c -1.629519,0.05777 -1.558824,0.113114 -1.490516,-1.166881 0.01673,-0.313843 -0.05898,-0.626289 -0.168297,-0.694323 -0.10931,-0.06802 -1.990512,-0.123697 -4.180451,-0.123697 -3.464681,0 -4.002653,0.03769 -4.143008,0.290262 -0.08871,0.159643 -0.110428,0.451703 -0.04826,0.64902 0.06219,0.197319 0.06167,0.521847 -0.001,0.721176 -0.101579,0.322291 -0.272257,0.362416 -1.541618,0.362416 h -1.427465 l 0.0021,-3.125838 z m 11.444519,-5.832319 c 0.05452,-0.143093 -0.07804,-0.81583 -0.29461,-1.494966 -0.216559,-0.679141 -0.419707,-1.327782 -0.451438,-1.441429 -0.03821,-0.136885 -1.049176,-0.250434 -2.994951,-0.336386 -3.302308,-0.145884 -3.746473,-0.115213 -3.927608,0.271207 -0.37501,0.800007 -0.920598,2.762507 -0.832366,2.994055 0.150092,0.393889 8.350982,0.401142 8.500973,0.0075 z M 58.235625,9.8314713 C 58.169645,9.7650228 58.115662,8.9495923 58.115662,8.0193887 V 6.3281152 h 7.197599 7.197602 v 1.7020865 c 0,1.3849215 -0.05298,1.7225862 -0.284625,1.8120816 C 71.836706,9.992811 58.385512,9.9824201 58.235625,9.8314408 Z"
       id="path2259" /></g></svg>
