<?xml version="1.0" encoding="UTF-8" standalone="no"?>
<!-- Created with Inkscape (http://www.inkscape.org/) -->

<svg
   width="420"
   height="420"
   viewBox="0 0 111.125 111.125"
   version="1.1"
   id="svg5"
   xml:space="preserve"
   inkscape:version="1.2.1 (9c6d41e410, 2022-07-14)"
   sodipodi:docname="FERRY COMINO.svg"
   xmlns:inkscape="http://www.inkscape.org/namespaces/inkscape"
   xmlns:sodipodi="http://sodipodi.sourceforge.net/DTD/sodipodi-0.dtd"
   xmlns="http://www.w3.org/2000/svg"
   xmlns:svg="http://www.w3.org/2000/svg"><sodipodi:namedview
     id="namedview7"
     pagecolor="#ffffff"
     bordercolor="#000000"
     borderopacity="0.25"
     inkscape:showpageshadow="2"
     inkscape:pageopacity="0.0"
     inkscape:pagecheckerboard="0"
     inkscape:deskcolor="#d1d1d1"
     inkscape:document-units="mm"
     showgrid="false"
     inkscape:zoom="0.63234634"
     inkscape:cx="-23.721178"
     inkscape:cy="171.58319"
     inkscape:window-width="1280"
     inkscape:window-height="748"
     inkscape:window-x="-8"
     inkscape:window-y="-8"
     inkscape:window-maximized="1"
     inkscape:current-layer="layer1" /><defs
     id="defs2" /><g
     inkscape:label="Capa 1"
     inkscape:groupmode="layer"
     id="layer1"
     transform="translate(-0.55330471,-0.87143375)"><path
       style="fill:#0f74ac;fill-opacity:1;stroke-width:0.171086"
       d="M 6.7339101,104.0464 C 6.6451171,103.954 6.5901275,102.12839 6.6115825,99.989684 l 0.038998,-3.888566 6.4486745,-0.08264 c 6.320782,-0.08097 6.459027,-0.08969 6.970415,-0.437489 0.441066,-0.29998 0.752601,-0.355389 2.014837,-0.358346 1.069421,-0.0029 1.712549,-0.08959 2.266479,-0.307078 0.425352,-0.166963 1.293573,-0.418807 1.929372,-0.559647 0.6358,-0.140839 1.322727,-0.349279 1.526492,-0.463192 0.203766,-0.113923 0.618879,-0.2591 0.922463,-0.322607 0.30357,-0.06355 0.758949,-0.233378 1.011935,-0.377468 0.252986,-0.1441 0.926073,-0.454282 1.495748,-0.689305 0.569673,-0.235023 1.092029,-0.506019 1.160789,-0.60222 0.06876,-0.09615 0.241442,-0.174903 0.383739,-0.174903 0.142293,0 0.964601,-0.393742 1.827352,-0.874979 0.862751,-0.481238 1.619558,-0.874979 1.68179,-0.874979 0.06223,0 0.787449,0.330812 1.611588,0.735148 0.824141,0.404326 1.829618,0.891898 2.234394,1.083487 0.404776,0.191588 0.901547,0.431027 1.103937,0.532074 0.719364,0.359168 3.231691,1.308297 3.463034,1.308297 0.129333,0 0.322462,0.07549 0.429177,0.167756 0.10671,0.09224 0.889128,0.333515 1.738699,0.536099 0.849571,0.202584 1.940844,0.485036 2.425054,0.627668 0.600722,0.17696 1.51388,0.259344 2.8747,0.259344 1.302416,0 2.265703,0.08274 2.776542,0.238627 0.97626,0.297825 2.439314,0.295857 3.403803,-0.0049 0.465424,-0.144972 1.460656,-0.230127 2.707413,-0.231645 1.333208,-0.002 2.256475,-0.08636 2.851836,-0.261734 0.484208,-0.142641 1.575481,-0.425093 2.425053,-0.627668 0.849572,-0.202584 1.631985,-0.443824 1.738699,-0.536098 0.106721,-0.09224 0.322359,-0.168452 0.47921,-0.169284 0.465397,-0.002 5.839385,-2.396454 7.875382,-3.508287 0.328212,-0.179232 0.481576,-0.186566 0.735957,-0.03515 0.176741,0.105179 0.838815,0.448211 1.471278,0.76228 0.632464,0.314078 1.149933,0.639133 1.149933,0.72235 0,0.08323 0.161444,0.151307 0.358765,0.151307 0.197323,0 0.838985,0.250376 1.425917,0.556396 0.586934,0.30601 1.16051,0.556572 1.274613,0.556798 0.114096,1.66e-4 0.310211,0.10747 0.435801,0.238312 0.125592,0.130843 0.570402,0.322353 0.988474,0.425574 0.418069,0.103211 0.854241,0.24876 0.969267,0.323419 0.115024,0.07471 1.228733,0.420071 2.47491,0.767587 1.746959,0.487152 2.557756,0.63183 3.540928,0.63183 1.002482,0 1.417498,0.07657 1.940833,0.357944 0.650601,0.349837 0.805299,0.359021 6.829327,0.405726 3.7843,0.02937 6.23464,0.109145 6.34757,0.206755 0.26502,0.22907 0.29501,7.750443 0.0315,7.891283 -0.29777,0.15913 -10.690408,0.0533 -12.082709,-0.12307 -0.657762,-0.0833 -2.283623,-0.21624 -3.613023,-0.29542 -1.451918,-0.0865 -2.627424,-0.23733 -2.94383,-0.37779 -0.289706,-0.12861 -1.023376,-0.32238 -1.630381,-0.43058 -0.607003,-0.1082 -1.548751,-0.36692 -2.092774,-0.57496 -0.544021,-0.20803 -1.17568,-0.37823 -1.403683,-0.37823 -0.228002,0 -0.509987,-0.0994 -0.626632,-0.22097 -0.116649,-0.12152 -0.591825,-0.30363 -1.055954,-0.40468 -0.464132,-0.10105 -1.574263,-0.5094 -2.466962,-0.90743 -1.559802,-0.695499 -1.643257,-0.71426 -2.140391,-0.481087 -0.784527,0.367977 -2.454172,1.006187 -3.613242,1.381157 -0.570254,0.18448 -1.084685,0.40238 -1.143177,0.48422 -0.0585,0.0819 -0.335574,0.14879 -0.615738,0.14879 -0.280163,0 -0.999737,0.17117 -1.599048,0.38037 -0.599314,0.20921 -1.586432,0.46318 -2.193597,0.56438 -0.607165,0.1012 -1.39372,0.28619 -1.7479,0.41109 -1.936463,0.68289 -16.090669,0.71838 -17.547999,0.044 -0.205188,-0.095 -1.053829,-0.30127 -1.885868,-0.45848 -0.832038,-0.15722 -1.865858,-0.43334 -2.297375,-0.61361 -0.431519,-0.18027 -1.048673,-0.32775 -1.371453,-0.32775 -0.322781,0 -0.678824,-0.0958 -0.791208,-0.21289 -0.112378,-0.11708 -0.555118,-0.30376 -0.983857,-0.41482 -0.732613,-0.18979 -2.410679,-0.80959 -3.792337,-1.400713 -0.482711,-0.20652 -0.676723,-0.22202 -0.919948,-0.07344 -0.724046,0.442233 -3.076444,1.465513 -3.369068,1.465513 -0.124729,0 -0.563404,0.12924 -0.974833,0.2872 -1.324002,0.50834 -3.103145,1.01734 -4.571674,1.30795 -0.78747,0.15583 -1.537023,0.35887 -1.665689,0.4512 -0.128654,0.0923 -1.347256,0.24336 -2.707989,0.33564 -1.360745,0.0923 -3.095041,0.2373 -3.853994,0.32228 -1.999123,0.22382 -11.765761,0.2815 -11.9680653,0.0707 z M 96.522907,86.73124 c -0.262389,-0.216567 -1.974696,-0.592566 -4.061134,-0.891752 -1.484341,-0.212855 -4.515213,-1.187716 -6.511685,-2.094429 -0.404776,-0.183834 -1.027068,-0.461351 -1.382872,-0.616711 -1.074855,-0.469312 -5.538014,-3.679487 -6.409993,-4.610449 -0.448639,-0.478985 -0.928546,-0.928415 -1.066464,-0.998733 -0.175369,-0.08942 -0.904706,0.412772 -2.425969,1.670413 -2.936649,2.427748 -6.329258,4.566378 -7.782165,4.905699 -0.36769,0.08587 -0.771106,0.263006 -0.896479,0.393624 -0.125377,0.130617 -0.362703,0.237823 -0.527402,0.238224 -0.1647,4.7e-4 -0.920418,0.208635 -1.679374,0.462732 -0.758956,0.254106 -1.87414,0.514548 -2.478188,0.57876 -0.604046,0.06423 -1.367244,0.213932 -1.695991,0.332702 -0.833191,0.301007 -5.406115,0.299196 -6.092365,-0.002 -0.27326,-0.120101 -0.993606,-0.269811 -1.60077,-0.332701 -0.607165,-0.06286 -1.724901,-0.322235 -2.483857,-0.576342 -0.758956,-0.254096 -1.51198,-0.46233 -1.673385,-0.462731 -0.161407,-4.8e-4 -0.443321,-0.143914 -0.626482,-0.318906 -0.18316,-0.174992 -0.506473,-0.319014 -0.718478,-0.320042 -0.969608,-0.0049 -5.792005,-3.020938 -7.978749,-4.990412 -0.828116,-0.745838 -1.691065,-1.44186 -1.917664,-1.546719 -0.364592,-0.168714 -0.45506,-0.13874 -0.786214,0.260483 -1.143647,1.378735 -5.165445,4.383129 -7.158897,5.347895 -2.465874,1.193405 -5.588049,2.287907 -7.264827,2.546752 -0.570685,0.08812 -1.410198,0.260138 -1.865567,0.382315 -0.754354,0.202398 -2.190135,0.30462 -2.983423,0.212425 -0.371658,-0.04318 -0.880352,-0.893201 -0.880352,-1.471041 0,-0.222881 -0.218602,-0.999545 -0.485793,-1.72592 C 14.821191,82.378043 14.459925,81.246822 14.285553,80.590588 13.837298,78.903632 12.150015,73.68768 11.93732,73.331446 11.839636,73.167823 11.705114,72.663145 11.638423,72.209937 11.571734,71.756729 11.359318,71.076632 11.166414,70.69861 10.973523,70.320588 10.716863,69.510174 10.596073,68.897689 10.475269,68.285203 10.294496,67.648147 10.194335,67.482006 10.09411,67.315867 9.7776839,66.385207 9.4910333,65.413874 9.2043699,64.442543 8.7933719,63.110897 8.5777043,62.454662 8.3620366,61.798428 8.0632421,60.831974 7.9137179,60.306987 c -0.149537,-0.524988 -0.51558,-1.5933 -0.81346,-2.374028 -0.6582192,-1.725221 -0.7476595,-3.636267 -0.218043,-4.659098 0.6602646,-1.275137 2.9081337,-2.436181 6.9989841,-3.615031 1.437102,-0.414124 2.614827,-0.836502 2.617189,-0.938618 0.0026,-0.102118 0.02311,-5.161116 0.04598,-11.242218 l 0.04166,-11.05655 0.643953,-1.352241 c 0.570318,-1.197585 0.833354,-1.517186 2.299875,-2.794466 1.425327,-1.241409 1.860854,-1.518305 3.127815,-1.988588 l 1.471921,-0.546363 3.29774,-0.02023 c 2.826353,-0.01734 3.329296,-0.05752 3.518381,-0.281113 0.162097,-0.191678 0.22626,-1.979924 0.241871,-6.740971 0.01169,-3.5640485 0.02223,-6.5337797 0.02343,-6.5994016 0.0012,-0.065602 11.882399,-0.119318 26.402672,-0.119318 h 26.4005 l 0.04797,6.8009736 0.04797,6.800973 2.483856,0.09296 c 2.287622,0.08562 2.599454,0.135556 3.94703,0.632154 2.381191,0.8775 4.427238,2.725752 5.537313,5.00202 l 0.543077,1.113611 0.09199,11.295181 0.09199,11.295181 4.178068,1.272696 c 2.57921,0.785663 4.34786,1.412839 4.62177,1.638907 0.51501,0.425063 1.23043,2.34765 1.2253,3.292792 -0.004,0.768643 -0.0904,1.072324 -2.0764,7.318005 -0.86252,2.712435 -1.79241,5.64759 -2.06642,6.522569 -0.27402,0.874979 -0.68901,2.199379 -0.92221,2.943111 -0.23319,0.743732 -1.34421,4.287397 -2.46892,7.874809 -1.124709,3.587412 -2.088816,6.647851 -2.142463,6.800969 -0.117882,0.336471 -0.274653,0.350395 -0.631278,0.05601 z M 28.151501,68.14044 c 0.710428,-0.286445 1.045532,-0.507802 0.982781,-0.649196 -0.05237,-0.118002 -0.153734,-0.619511 -0.225251,-1.114467 -0.08549,-0.591936 -0.214714,-0.89992 -0.37745,-0.89992 -0.136084,0 -0.62631,0.350246 -1.089402,0.778324 -0.479174,0.442938 -1.232677,0.923647 -1.74865,1.115568 -0.78493,0.291964 -1.023844,0.314534 -1.779532,0.168102 -1.830164,-0.354637 -3.93115,-1.783822 -4.802433,-3.266819 -1.241594,-2.113339 -0.745806,-5.161641 1.098942,-6.756719 1.540973,-1.3324 4.244045,-1.73711 5.92231,-0.8867 0.834902,0.423061 1.952618,1.635555 1.952618,2.11819 0,0.448417 0.539347,0.187398 0.639623,-0.309548 0.1864,-0.923779 0.423165,-2.583981 0.375158,-2.63068 -0.02574,-0.02504 -1.030443,-0.157788 -2.232684,-0.295014 -5.260419,-0.600428 -8.157247,0.261996 -9.642545,2.870723 -0.810486,1.42351 -1.040496,2.766212 -0.779797,4.552099 0.422443,2.893823 1.946433,4.615847 4.802536,5.426608 0.840009,0.238455 1.505786,0.287885 3.433901,0.254953 2.164895,-0.03698 2.494163,-0.0821 3.469875,-0.475504 z m 11.514478,-0.04288 c 2.9171,-1.378287 4.348957,-3.968938 3.866481,-6.995602 -0.383354,-2.404857 -2.396049,-4.731849 -4.758196,-5.501224 -1.483006,-0.48303 -4.086172,-0.387671 -5.569355,0.204013 -2.740374,1.093217 -4.01554,3.12619 -4.01554,6.401894 0,3.032124 1.425777,4.93965 4.538092,6.071451 0.951548,0.346034 1.293181,0.384846 3.005472,0.341455 1.737942,-0.04404 2.032395,-0.09645 2.933046,-0.521987 z M 37.83687,62.136028 c 0,-2.974928 0.04552,-5.40896 0.101121,-5.40896 0.63013,0 2.041885,1.175409 2.632602,2.19187 1.221888,2.102536 0.961879,5.667885 -0.533906,7.321137 -0.393535,0.434968 -1.755892,1.304913 -2.043525,1.304913 -0.08597,0 -0.156302,-2.434032 -0.156302,-5.40896 z m -3.9883,4.791571 c -2.376783,-1.488702 -3.190686,-5.405906 -1.673196,-8.052856 0.432461,-0.754333 1.503045,-1.763752 2.211694,-2.085329 l 0.50597,-0.229604 v 5.413045 c 0,2.977175 -0.07038,5.413046 -0.156382,5.413046 -0.08601,0 -0.485649,-0.206236 -0.888086,-0.458302 z m 27.170959,1.663692 c 0,-0.03702 -0.231747,-0.269683 -0.514994,-0.517033 -0.498257,-0.435113 -0.549524,-0.646124 -1.577681,-6.493685 -0.584478,-3.324179 -1.094318,-6.071309 -1.132977,-6.104735 -0.273684,-0.236643 -0.857552,0.667342 -3.20993,4.969841 -1.465091,2.679649 -2.715007,4.87209 -2.777593,4.87209 -0.06259,0 -1.298344,-2.255059 -2.746134,-5.011242 -1.492805,-2.841883 -2.735978,-5.011242 -2.871742,-5.011242 -0.30401,0 -0.298925,-0.02848 -1.178696,6.602113 l -0.738789,5.568047 -0.549216,0.435246 c -0.302069,0.239386 -0.549216,0.472051 -0.549216,0.517033 0,0.04498 0.993542,0.08179 2.207871,0.08179 1.214331,0 2.207874,-0.03681 2.207874,-0.08179 0,-0.04498 -0.264926,-0.286459 -0.588724,-0.536616 l -0.588724,-0.454828 0.241814,-1.889462 c 0.132997,-1.039205 0.335825,-2.492945 0.450731,-3.230536 l 0.208919,-1.341072 2.104591,3.773036 c 1.538207,2.757638 2.181901,3.760748 2.391862,3.727378 0.168222,-0.02674 1.169269,-1.549807 2.415574,-3.675244 l 2.128307,-3.629586 0.755876,3.063737 c 0.684596,2.77483 0.731328,3.104781 0.495561,3.498996 -0.143174,0.239393 -0.426814,0.480953 -0.630312,0.536799 -0.905804,0.24858 -0.215036,0.398271 1.837875,0.398271 1.214331,0 2.207873,-0.03028 2.207873,-0.06731 z m 5.88766,0 c 0,-0.03702 -0.248386,-0.282072 -0.551969,-0.544566 l -0.551968,-0.477261 v -5.596003 -5.595999 l 0.551968,-0.445829 c 0.303583,-0.245206 0.551969,-0.488697 0.551969,-0.541089 0,-0.05239 -0.993543,-0.09526 -2.207871,-0.09526 -1.214331,0 -2.207874,0.04042 -2.207874,0.08982 0,0.0494 0.248386,0.27053 0.551969,0.491403 l 0.551968,0.40159 v 5.69885 5.69885 l -0.551968,0.40159 c -0.303583,0.220873 -0.551969,0.442004 -0.551969,0.491402 0,0.0494 0.993543,0.08982 2.207874,0.08982 1.214328,0 2.207871,-0.03029 2.207871,-0.06731 z m 5.70367,0 c 0,-0.03702 -0.248385,-0.282072 -0.551968,-0.544566 l -0.551967,-0.477261 v -4.105672 -4.105669 l 0.526586,0.474202 c 0.289624,0.260811 2.447291,2.353418 4.794814,4.650237 2.347526,2.296819 4.38743,4.176035 4.533122,4.176035 0.225828,0 0.264894,-0.880958 0.264894,-5.973664 0,-6.250482 0.05454,-6.713301 0.821146,-6.967659 0.155535,-0.0516 0.282788,-0.167665 0.282788,-0.257911 0,-0.103599 -0.813827,-0.164078 -2.207871,-0.164078 -1.214331,0 -2.207872,0.03681 -2.207872,0.08179 0,0.04498 0.269083,0.289565 0.597964,0.543518 l 0.597966,0.461732 0.04883,4.268865 0.04883,4.268865 -0.600795,-0.600873 c -6.177707,-6.178522 -9.121476,-9.005464 -9.386285,-9.013781 -0.301332,-0.0095 -0.321982,0.386866 -0.321982,6.180141 v 6.190253 l -0.551968,0.40159 c -0.303582,0.220873 -0.551967,0.442004 -0.551967,0.491402 0,0.0494 0.993542,0.08982 2.207872,0.08982 1.21433,0 2.207872,-0.03028 2.207872,-0.06731 z m 20.964005,-0.493727 c 2.917099,-1.378287 4.348957,-3.968938 3.866482,-6.995602 -0.383354,-2.404857 -2.396051,-4.731849 -4.758198,-5.501224 -1.483006,-0.48303 -4.086171,-0.387671 -5.569354,0.204013 -2.740373,1.093217 -4.015541,3.12619 -4.015541,6.401894 0,3.032124 1.425777,4.93965 4.538092,6.071451 0.95155,0.346034 1.293181,0.384846 3.005473,0.341455 1.737942,-0.04404 2.032396,-0.09645 2.933046,-0.521987 z m -1.82911,-5.961536 c 0,-2.974928 0.04552,-5.40896 0.101132,-5.40896 0.630132,0 2.041885,1.175409 2.632602,2.19187 1.221888,2.102536 0.961879,5.667885 -0.533904,7.321137 -0.393536,0.434968 -1.755893,1.304913 -2.043525,1.304913 -0.08597,0 -0.156302,-2.434032 -0.156302,-5.40896 z m -3.988299,4.791571 c -2.376783,-1.488702 -3.190687,-5.405906 -1.673196,-8.052856 0.43246,-0.754333 1.503044,-1.763752 2.211694,-2.085329 l 0.505971,-0.229604 v 5.413045 c 0,2.977175 -0.07038,5.413046 -0.156383,5.413046 -0.08601,0 -0.48565,-0.206236 -0.888086,-0.458302 z M 41.503544,41.613797 c 8.424803,-2.44994 15.463316,-4.454437 15.641139,-4.454437 0.177824,0 6.972012,2.004497 15.098197,4.454437 8.126187,2.449941 14.845136,4.454438 14.931004,4.454438 0.08587,0 0.156125,-4.006476 0.156125,-8.903278 0,-8.773878 -0.0054,-8.905782 -0.372171,-9.075499 -0.472588,-0.218691 -60.271766,-0.190291 -60.760454,0.02886 -0.303787,0.136235 -0.323667,0.704075 -0.316718,9.047639 0.0038,4.896255 0.07431,8.902282 0.156231,8.902282 0.0818,0 7.041843,-2.004497 15.466647,-4.454437 z M 39.860752,17.972493 c 0,-0.05303 -0.206988,-0.237199 -0.459974,-0.409264 -0.443209,-0.301444 -0.459974,-0.379818 -0.459974,-2.1505 v -1.837654 l 1.039516,0.07453 c 0.992881,0.07119 1.356629,0.258366 1.598698,0.82263 0.155869,0.363333 0.444014,-0.156211 0.551614,-0.994592 l 0.109437,-0.852717 -0.4997,0.107599 c -0.274836,0.05918 -1.01717,0.146986 -1.649635,0.195129 l -1.149933,0.08753 V 11.405788 9.7963903 l 0.965944,0.00196 c 1.076412,0.00294 1.273521,0.076471 1.588836,0.5941427 0.119902,0.196875 0.292019,0.357944 0.38248,0.357944 0.153423,0 0.664592,-1.7428498 0.528614,-1.8023424 -0.209893,-0.091843 -6.041725,0.096935 -6.041725,0.195544 0,0.066679 0.194583,0.2112984 0.432408,0.3213537 0.408076,0.188837 0.439092,0.3134325 0.55122,2.2143227 0.06534,1.107829 0.119153,2.787072 0.119559,3.731651 7.36e-4,1.620219 -0.02529,1.739927 -0.459227,2.115135 -0.252985,0.218745 -0.459974,0.430257 -0.459974,0.470029 0,0.03977 0.745158,0.07231 1.655904,0.07231 0.910749,0 1.655905,-0.04339 1.655905,-0.09642 z m 9.636444,-0.400728 c 0.158779,-0.686445 0.143902,-1.25281 -0.0329,-1.25281 -0.08135,0 -0.428767,0.250562 -0.772052,0.556804 -0.721467,0.643619 -1.279324,0.705646 -2.161875,0.240374 l -0.597965,-0.315241 v -1.612909 -1.612908 l 1.039514,0.07453 c 0.992881,0.07119 1.356631,0.258366 1.598698,0.82263 0.155869,0.363333 0.444015,-0.156211 0.551616,-0.994592 l 0.109449,-0.852717 -0.4997,0.107599 c -0.274836,0.05918 -1.01717,0.146986 -1.649635,0.195129 l -1.149934,0.08753 V 11.405788 9.7963903 l 0.965944,0.00196 c 1.076412,0.00294 1.273521,0.076471 1.588837,0.5941427 0.119901,0.196875 0.292019,0.357944 0.382479,0.357944 0.153423,0 0.664592,-1.7428498 0.528615,-1.8023424 -0.209893,-0.091843 -6.041725,0.096935 -6.041725,0.195544 0,0.066679 0.194662,0.2113376 0.432582,0.3214321 0.405917,0.1878382 0.439942,0.3185142 0.551969,2.1199883 0.06565,1.055897 0.11938,2.735103 0.11938,3.731569 0,1.720423 -0.02318,1.831805 -0.459973,2.209473 -0.252986,0.218745 -0.459974,0.430257 -0.459974,0.470029 0,0.03977 1.314374,0.07231 2.920832,0.07231 h 2.920831 z m 4.162759,0.400728 c 0,-0.05303 -0.206987,-0.237199 -0.459974,-0.409264 -0.432642,-0.294256 -0.459973,-0.402141 -0.459973,-1.815656 v -1.502812 l 0.50597,0.104901 c 0.955814,0.198165 1.541351,0.557011 2.124944,1.302269 0.321538,0.410612 1.018495,1.122411 1.548794,1.581774 0.910647,0.788838 1.01614,0.835208 1.900128,0.835208 0.950342,0 1.647717,-0.204364 1.647717,-0.482858 0,-0.08442 -0.248146,-0.153491 -0.551439,-0.153491 -0.705048,0 -1.681468,-0.751569 -3.118062,-2.400037 -1.044044,-1.198018 -1.067481,-1.246229 -0.733037,-1.50793 1.030024,-0.805994 1.390908,-2.584657 0.718036,-3.5389292 -0.608074,-0.8623676 -1.393371,-1.0622002 -4.024129,-1.0240236 -1.25452,0.018212 -2.315175,0.062665 -2.357015,0.098874 -0.04184,0.036228 0.135936,0.2490833 0.395053,0.4731301 l 0.471126,0.4073614 v 3.5939213 3.593921 L 50.80812,17.52657 c -0.252986,0.218745 -0.459974,0.430257 -0.459974,0.470029 0,0.03977 0.745157,0.07231 1.655904,0.07231 0.910747,0 1.655905,-0.04339 1.655905,-0.09642 z m -0.917437,-6.068204 c 0.0038,-2.3710034 0.20833,-2.6747913 1.4477,-2.1507458 0.904005,0.3822558 1.353017,1.1648338 1.251453,2.1811568 -0.103329,1.0339 -0.706398,1.520688 -1.88397,1.520688 h -0.817693 l 0.0026,-1.551099 z m 11.58882,6.068204 c 0,-0.05303 -0.206987,-0.237199 -0.459973,-0.409264 -0.432642,-0.294256 -0.459974,-0.402141 -0.459974,-1.815656 v -1.502812 l 0.505971,0.104901 c 0.955815,0.198165 1.541351,0.557011 2.124943,1.302269 0.321538,0.410612 1.018495,1.122411 1.548795,1.581774 0.910648,0.788838 1.01614,0.835208 1.900129,0.835208 0.95034,0 1.647716,-0.204364 1.647716,-0.482858 0,-0.08442 -0.248148,-0.153491 -0.551438,-0.153491 -0.70505,0 -1.68147,-0.751569 -3.118065,-2.400037 -1.044042,-1.198018 -1.067478,-1.246229 -0.733036,-1.50793 1.030025,-0.805994 1.390908,-2.584657 0.718035,-3.5389292 -0.608072,-0.8623676 -1.393369,-1.0622002 -4.024128,-1.0240236 -1.254518,0.018212 -2.315176,0.062665 -2.357015,0.098874 -0.04184,0.036228 0.135935,0.2490833 0.395053,0.4731301 l 0.471125,0.4073614 v 3.5939213 3.593921 l -0.459973,0.397718 c -0.252986,0.218745 -0.459974,0.430257 -0.459974,0.470029 0,0.03977 0.745158,0.07231 1.655904,0.07231 0.910749,0 1.655905,-0.04339 1.655905,-0.09642 z m -0.917435,-6.068204 c 0.0038,-2.3710034 0.208329,-2.6747913 1.447699,-2.1507458 0.904005,0.3822558 1.353016,1.1648338 1.251452,2.1811568 -0.103329,1.0339 -0.706398,1.520688 -1.883971,1.520688 h -0.817692 l 0.0026,-1.551099 z m 11.40483,6.040892 c 0,-0.06805 -0.165591,-0.246325 -0.36798,-0.39616 -0.327619,-0.242549 -0.367907,-0.468898 -0.367329,-2.063717 l 6.47e-4,-1.791286 1.379274,-1.884848 c 0.758598,-1.036665 1.37927,-1.9383357 1.37927,-2.0037031 0,-0.065406 0.16559,-0.2484273 0.367979,-0.4067934 0.202387,-0.1583759 0.367979,-0.3484465 0.367979,-0.4223814 0,-0.073925 -0.745158,-0.1344261 -1.655905,-0.1344261 -1.640692,0 -2.017524,0.1396352 -1.287925,0.4772622 0.202388,0.093606 0.367979,0.253558 0.367979,0.3553396 0,0.1017718 -0.389191,0.7720122 -0.864868,1.4894102 l -0.86487,1.304358 -0.878791,-1.296153 c -0.483334,-0.712884 -0.880698,-1.3831244 -0.883029,-1.48941 -0.0023,-0.1062954 0.161349,-0.2698901 0.363738,-0.3635448 0.729599,-0.337627 0.352766,-0.4772622 -1.287925,-0.4772622 -0.910748,0 -1.655905,0.042397 -1.655905,0.094193 0,0.051797 0.172347,0.2844499 0.38299,0.5170348 0.210647,0.2325751 0.995628,1.2819492 1.744403,2.3319192 l 1.361412,1.909044 0.0036,1.791286 c 0.003,1.596571 -0.03651,1.820901 -0.364484,2.063717 -0.202387,0.149836 -0.367979,0.328108 -0.367979,0.39616 0,0.06805 0.703761,0.123732 1.56391,0.123732 0.86015,0 1.56391,-0.05568 1.56391,-0.123732 z"
       id="path2554" /></g></svg>
