<?xml version="1.0" encoding="UTF-8" standalone="no"?>
<!-- Created with Inkscape (http://www.inkscape.org/) -->

<svg
   width="420"
   height="420"
   viewBox="0 0 111.125 111.125"
   version="1.1"
   id="svg5"
   xml:space="preserve"
   inkscape:version="1.2.1 (9c6d41e410, 2022-07-14)"
   sodipodi:docname="PARADERO VALETA.svg"
   xmlns:inkscape="http://www.inkscape.org/namespaces/inkscape"
   xmlns:sodipodi="http://sodipodi.sourceforge.net/DTD/sodipodi-0.dtd"
   xmlns="http://www.w3.org/2000/svg"
   xmlns:svg="http://www.w3.org/2000/svg"><sodipodi:namedview
     id="namedview7"
     pagecolor="#ffffff"
     bordercolor="#000000"
     borderopacity="0.25"
     inkscape:showpageshadow="2"
     inkscape:pageopacity="0.0"
     inkscape:pagecheckerboard="0"
     inkscape:deskcolor="#d1d1d1"
     inkscape:document-units="mm"
     showgrid="false"
     inkscape:zoom="0.63234634"
     inkscape:cx="124.93154"
     inkscape:cy="171.58319"
     inkscape:window-width="1280"
     inkscape:window-height="748"
     inkscape:window-x="-8"
     inkscape:window-y="-8"
     inkscape:window-maximized="1"
     inkscape:current-layer="layer1" /><defs
     id="defs2" /><g
     inkscape:label="Capa 1"
     inkscape:groupmode="layer"
     id="layer1"
     transform="translate(-0.55330471,-0.87143375)"><path
       style="fill:#0f74ac;stroke-width:0.161466;fill-opacity:1"
       d="m 12.938741,106.73339 c -0.262469,-0.16189 -0.770055,-0.33803 -1.127976,-0.39145 -0.695529,-0.1038 -2.429175,-1.05125 -2.7933634,-1.5266 -0.1210627,-0.15801 -0.4621512,-0.38166 -0.7579791,-0.49702 -0.7581733,-0.29565 -1.9002253,-1.91841 -3.3071963,-4.699291 L 4.5576189,98.8391 4.5066828,57.034753 c -0.035012,-28.741726 0.00408,-42.190539 0.1256765,-43.040285 0.097177,-0.679769 0.2791179,-1.34661 0.4043862,-1.48187 0.1252784,-0.135261 0.2718602,-0.515116 0.3257566,-0.844123 0.065737,-0.401566 0.3204181,-0.823424 0.7747298,-1.283402 0.3722219,-0.376864 0.6767568,-0.8198927 0.6767568,-0.9845069 0,-0.3718987 1.0660765,-1.2675354 1.5087519,-1.2675354 0.2121047,0 0.4304667,-0.2015492 0.6209516,-0.5731518 0.2781482,-0.542593 1.042507,-1.0867131 2.0487668,-1.4584365 0.229815,-0.084897 0.605875,-0.2499544 0.83569,-0.3667939 1.120963,-0.5699097 2.982072,-0.5913105 44.96025,-0.5169839 22.475948,0.039793 41.295485,0.1217544 41.821195,0.1821315 1.449016,0.1664166 4.883436,1.9459394 5.218856,2.7041189 0.0921,0.2081325 -0.2899,1.0342484 -0.5467,1.1823729 -0.0774,0.044625 -0.54798,-0.2051881 -1.0458,-0.5551372 -0.49783,-0.3499499 -1.67912,-0.9791958 -2.625086,-1.398324 L 97.89092,6.5707761 55.846142,6.572544 C 14.082324,6.574314 13.798531,6.576374 13.3772,6.8857114 c -0.233296,0.171263 -0.591911,0.3113861 -0.796931,0.3113861 -0.205021,0 -0.564004,0.1403884 -0.797728,0.3119726 -0.233735,0.1715857 -0.489293,0.3119733 -0.567913,0.3119733 -0.717842,0 -3.7665504,2.9808286 -3.9810947,3.8924606 -0.057367,0.243544 -0.2503732,0.566256 -0.4290173,0.717138 -0.2324077,0.196293 -0.3247971,0.479441 -0.3247971,0.995378 0,0.396576 -0.111294,0.869327 -0.2473007,1.050555 -0.2170962,0.289268 -0.2412067,5.365396 -0.1974567,41.566076 0.035727,29.558763 0.1027604,41.498018 0.2367051,42.159804 0.1027706,0.50777 0.3420583,1.119113 0.5317368,1.358565 0.1896785,0.239423 0.3448654,0.5292 0.3448654,0.64394 0,0.24153 1.3519521,2.20352 1.891018,2.7443 0.7876425,0.79015 3.5092262,2.20244 4.2667452,2.21412 0.24431,0.004 0.745057,0.10771 1.112756,0.23099 0.574211,0.19252 6.468569,0.22492 41.768552,0.22959 36.494272,0.005 41.131366,-0.0211 41.379936,-0.23098 0.163147,-0.13781 0.594873,-0.23645 1.034784,-0.23645 0.529472,0 0.840694,-0.0885 1.042382,-0.29652 0.158146,-0.1631 0.535538,-0.33996 0.838648,-0.39303 0.30311,-0.053 0.68592,-0.2355 0.85067,-0.40541 0.16476,-0.1699 0.43217,-0.30892 0.59426,-0.30892 0.45825,0 0.82346,-0.17009 0.82346,-0.38353 0,-0.10678 0.31965,-0.66012 0.71034,-1.2296 1.42214,-2.07304 1.6296,-2.409218 1.6296,-2.640703 0,-0.129637 0.14878,-0.541688 0.33061,-0.915675 0.32672,-0.671992 0.33064,-1.171976 0.33428,-42.580275 0.003,-40.538247 -0.006,-41.912391 -0.30565,-42.272303 -0.17013,-0.204603 -0.34921,-0.657848 -0.39796,-1.00721 -0.0488,-0.349362 -0.39844,-1.111121 -0.77708,-1.692795 -0.37865,-0.581675 -0.68845,-1.199934 -0.68845,-1.3739082 0,-0.2843037 0.0789,-0.3080117 0.78008,-0.2342573 0.83938,0.088297 1.1627,0.3554589 1.64878,1.3623905 0.14496,0.300274 0.3841,0.750945 0.53143,1.001492 0.14734,0.250547 0.38652,1.268357 0.53152,2.261802 0.23457,1.60715 0.26306,6.285577 0.25845,42.440708 -0.005,36.422191 -0.0327,40.779972 -0.27074,42.038319 -0.25404,1.343012 -0.65989,2.304885 -1.21332,2.875615 -0.14111,0.14552 -0.30409,0.48637 -0.36218,0.75743 -0.16051,0.749 -2.5578,2.88728 -4.00724,3.57428 -0.63579,0.30134 -1.45683,0.69821 -1.824529,0.88192 l -0.668554,0.33402 -42.787453,0.0387 c -41.689643,0.0376 -42.799694,0.0312 -43.264673,-0.25567 z m 41.008303,-5.16082 -37.522586,-0.0817 -1.33711,-0.67297 c -1.421731,-0.71558 -3.004273,-2.033047 -3.451756,-2.873597 -0.149052,-0.279992 -0.486364,-0.9247 -0.749568,-1.432689 L 10.407469,95.58803 V 55.877162 16.166328 l 0.959621,-1.509933 c 0.534105,-0.84041 1.105437,-1.553125 1.28848,-1.607344 0.18087,-0.05358 0.571884,-0.383787 0.868916,-0.733801 0.568883,-0.670341 1.921243,-1.370295 2.652621,-1.372941 0.231662,-8.11e-4 0.972666,-0.144144 1.646667,-0.318457 1.035249,-0.267739 1.371179,-0.291794 2.164247,-0.15497 0.63178,0.108998 12.916176,0.15877 37.564406,0.152197 32.5229,-0.0087 36.750823,0.01733 37.743322,0.23215 1.716329,0.371484 3.186801,1.19258 4.241941,2.368654 0.7438,0.829044 1.69748,2.749461 1.70452,3.432351 0.003,0.268348 0.12232,0.749898 0.26567,1.07011 0.20648,0.461207 0.23828,0.91091 0.153,2.163862 -0.13802,2.027546 -0.17068,4.386808 -0.11475,8.289072 0.0246,1.715849 0.0461,17.263788 0.048,34.550977 0.003,27.675291 -0.0275,31.566582 -0.25345,32.563778 -0.25743,1.135937 -0.83003,2.365761 -1.488466,3.196914 -0.353827,0.446644 -2.66109,2.299983 -2.863304,2.299983 -0.05935,0 -0.498121,0.16794 -0.975042,0.3732 -0.705813,0.30377 -1.209152,0.38427 -2.70565,0.43269 -1.011188,0.0327 -18.72369,0.0228 -39.361114,-0.0222 z m 27.623565,-9.323511 c 0.279443,-0.23602 0.689211,-0.272644 3.05424,-0.272976 1.72683,-3.14e-4 2.797998,-0.06216 2.912299,-0.168341 0.09944,-0.09238 0.21337,-0.794311 0.253173,-1.559864 0.0398,-0.76555 0.131811,-1.742878 0.204459,-2.17184 l 0.132085,-0.779932 0.748844,-0.04972 c 0.411864,-0.02737 0.844335,-0.123683 0.961047,-0.214084 0.333751,-0.258508 0.293129,-8.826417 -0.04382,-9.242181 -0.345311,-0.426078 -0.304891,-1.080474 0.08719,-1.411629 0.201163,-0.169903 0.679988,-0.306143 1.211754,-0.344782 1.462994,-0.106302 1.635864,-0.174709 1.893016,-0.749093 0.405976,-0.906807 0.313879,-1.748065 -0.248866,-2.273261 l -0.488558,-0.45596 h -2.530923 c -1.425003,0 -2.672186,-0.07055 -2.85421,-0.161473 C 86.661283,72.2935 86.53905,72.06787 86.53905,71.797167 c 0,-0.260934 -0.164976,-0.579926 -0.411885,-0.796407 -0.340704,-0.298717 -0.408432,-0.498853 -0.391912,-1.158091 0.01372,-0.547832 -0.09264,-0.99129 -0.34024,-1.4186 -0.198116,-0.341901 -0.36021,-0.772018 -0.36021,-0.955817 0,-0.727415 0.186901,-0.716687 -12.154866,-0.697724 l -11.662368,0.01793 -0.376062,0.39639 c -0.289439,0.305085 -0.376061,0.587155 -0.376061,1.224581 0,0.591997 -0.09533,0.9413 -0.334277,1.224798 -0.183853,0.218135 -0.332155,0.561022 -0.329559,0.761972 0.0026,0.200949 -0.241845,0.807739 -0.5432,1.348422 -0.523013,0.938377 -0.57071,0.978507 -1.049334,0.882903 -0.275779,-0.05508 -1.44157,-0.09197 -2.590647,-0.08194 l -2.089231,0.01821 -0.554348,0.550819 c -0.61644,0.612516 -0.619706,0.925095 -0.02309,2.209549 0.284657,0.61284 0.356008,0.66307 0.944098,0.664659 1.025582,0.0028 1.796275,0.165149 2.228727,0.469582 0.39442,0.27766 0.397468,0.296845 0.130294,0.819731 -0.302255,0.591542 -0.343314,1.457418 -0.317874,6.70327 l 0.0157,3.236717 h 1.083216 c 1.304984,0 1.241855,-0.132614 1.299474,2.72976 l 0.04082,2.027822 3.142521,0.04015 c 1.728388,0.02211 3.272185,-0.02463 3.430663,-0.103768 0.471596,-0.23555 1.031617,-2.133454 1.031617,-3.49614 v -1.197827 h 7.093521 c 5.494292,0 7.122732,0.04395 7.223085,0.194981 0.07126,0.107243 0.137926,1.247894 0.14815,2.534779 0.01023,1.286889 0.03157,2.392441 0.04743,2.456785 0.05401,0.218975 0.75352,0.117948 1.077398,-0.155598 z M 60.568267,82.351875 c -0.572437,-0.536152 -0.94412,-1.74235 -0.627849,-2.037518 0.08589,-0.08016 1.473691,-0.156509 3.08402,-0.169677 3.316586,-0.02715 3.235385,-0.05418 4.31715,1.438198 0.855975,1.180875 0.850905,1.183029 -2.916539,1.236955 l -3.306617,0.04733 z m 18.128466,0.316663 c -0.356126,-0.12295 -0.419315,-0.488122 -0.205455,-1.187314 0.05979,-0.195446 0.442385,-0.601611 0.85023,-0.90259 l 0.741538,-0.547233 3.065352,0.03418 c 3.057827,0.03414 3.065592,0.03511 3.163174,0.397949 0.05865,0.218103 -0.01078,0.503345 -0.173409,0.7124 -0.149178,0.191764 -0.454844,0.605145 -0.679261,0.918632 -0.313519,0.437947 -0.555071,0.591959 -1.042834,0.664898 -0.861349,0.128803 -5.286648,0.05844 -5.719335,-0.09094 z M 62.257151,75.423447 c -0.279263,-0.260631 -0.10888,-1.564706 0.297526,-2.277199 0.229815,-0.402902 0.417846,-0.936879 0.417846,-1.186618 0,-0.249737 0.140623,-0.62147 0.312495,-0.826073 0.171874,-0.204602 0.365691,-0.599331 0.430706,-0.877172 0.06501,-0.277842 0.193698,-0.548708 0.285962,-0.601926 0.09227,-0.05322 4.091533,-0.09333 8.887267,-0.08913 l 8.719511,0.0076 0.359383,0.477285 c 0.197662,0.262508 0.451668,0.845818 0.56446,1.296244 0.112792,0.450426 0.311352,0.932895 0.441245,1.072151 0.129894,0.139256 0.304614,0.595516 0.388268,1.013912 0.08365,0.418395 0.201954,0.95247 0.262887,1.186833 0.0953,0.366518 0.04523,0.449382 -0.357965,0.592446 -0.31523,0.111855 -3.67428,0.159127 -10.256134,0.144338 -5.383057,-0.01209 -9.977674,0.02337 -10.210257,0.07879 -0.232584,0.05544 -0.477025,0.05026 -0.5432,-0.0115 z M 33.287559,91.962938 c 0.05579,-0.135705 0.101454,-5.786308 0.101454,-12.556901 0,-9.74511 0.04353,-12.309785 0.208923,-12.308348 0.114907,9.53e-4 4.496025,-0.02075 9.735816,-0.04834 8.354968,-0.04398 9.614172,-0.0817 10.236394,-0.306592 0.390224,-0.141042 1.480803,-0.303798 2.423508,-0.36168 1.085991,-0.06668 1.812717,-0.185334 1.983405,-0.323838 0.148169,-0.120229 0.703851,-0.28459 1.23485,-0.365246 0.530999,-0.08065 1.092602,-0.25404 1.248009,-0.385296 0.155408,-0.131257 0.474261,-0.23865 0.708564,-0.23865 0.234301,0 0.526955,-0.11352 0.650337,-0.252268 0.123383,-0.138747 1.166762,-0.841461 2.31862,-1.561585 2.716274,-1.698172 3.607018,-2.505627 5.012495,-4.543796 0.635521,-0.921606 1.310684,-1.862234 1.500364,-2.090285 0.189681,-0.22805 0.34526,-0.508825 0.34573,-0.623944 5.21e-4,-0.11512 0.186155,-0.490085 0.41263,-0.833256 0.251941,-0.381755 0.414225,-0.866133 0.418092,-1.247889 0.0036,-0.352739 0.150658,-0.827351 0.338392,-1.091905 0.22805,-0.321367 0.333569,-0.736711 0.336846,-1.325885 0.0031,-0.548474 0.134412,-1.111109 0.36419,-1.559863 0.33152,-0.647458 0.359498,-0.950131 0.360465,-3.899658 9.95e-4,-2.981234 -0.0236,-3.242181 -0.363088,-3.854449 -0.238782,-0.430648 -0.364516,-0.940785 -0.365238,-1.48187 -6.68e-4,-0.560948 -0.107425,-0.974974 -0.333175,-1.293102 -0.193541,-0.272738 -0.332534,-0.731878 -0.333176,-1.100595 -6.68e-4,-0.428685 -0.13581,-0.803042 -0.418947,-1.161207 -0.229816,-0.290713 -0.417847,-0.687947 -0.417847,-0.882743 0,-0.194794 -0.150425,-0.429305 -0.334277,-0.521134 -0.183852,-0.09183 -0.334277,-0.262488 -0.334277,-0.379241 0,-0.425687 -2.096266,-3.156624 -3.164678,-4.122826 -1.415085,-1.279711 -5.636918,-3.921196 -6.267168,-3.921196 -0.253711,0 -0.660934,-0.130499 -0.904939,-0.29 -0.2592,-0.169433 -0.86668,-0.324458 -1.461162,-0.372881 -0.559632,-0.04558 -1.27415,-0.213408 -1.587815,-0.372941 -0.542525,-0.275937 -1.160475,-0.288741 -12.687842,-0.262905 -6.664647,0.01493 -15.185117,0.03249 -18.934374,0.039 l -6.816834,0.01184 0.04777,32.749365 c 0.03879,26.616765 0.0884,32.787333 0.265001,32.952115 0.170243,0.158871 1.701751,0.208464 7.075946,0.22914 3.772269,0.0145 6.902357,0.06716 6.955752,0.116988 0.169161,0.157871 0.336579,0.09864 0.441335,-0.156133 z m 0.215749,-36.363654 c -0.169691,-0.256243 -0.115929,-18.121466 0.05483,-18.219958 0.09061,-0.05226 3.58136,-0.08897 7.757208,-0.08157 7.099606,0.01259 7.654634,0.03343 8.550425,0.321065 0.526887,0.16918 1.146601,0.307601 1.377143,0.307601 0.462192,0 2.771909,0.97165 2.950389,1.241169 0.06178,0.0933 0.51713,0.448718 1.011887,0.789827 0.937246,0.646185 2.251765,2.456587 2.251765,3.101211 0,0.176106 0.18803,0.786412 0.417846,1.356236 0.524584,1.300703 0.524584,1.90728 0,3.308574 -0.229816,0.613892 -0.417846,1.359023 -0.417846,1.655844 0,0.296822 -0.06568,0.577557 -0.145943,0.623855 -0.08026,0.0463 -0.358135,0.489152 -0.617484,0.98412 -0.520371,0.993128 -2.290213,2.693785 -2.80337,2.693785 -0.171988,0 -0.536164,0.175484 -0.809285,0.389967 -0.27312,0.214481 -0.660039,0.390428 -0.859821,0.390994 -0.199781,6.18e-4 -0.588874,0.14049 -0.864653,0.310944 -0.412445,0.254927 -0.785852,0.310099 -2.104452,0.310945 -1.053318,6.19e-4 -1.884394,0.09013 -2.423508,0.260845 -0.690758,0.218739 -1.801992,0.269896 -7.028837,0.323568 -3.414601,0.03506 -6.247932,0.0041 -6.296292,-0.06903 z M 29.450465,20.959335 c 0.913327,-1.349266 2.439011,-3.61141 3.390409,-5.026987 1.177622,-1.752174 1.86133,-2.620733 2.141805,-2.720875 0.842722,-0.300894 0.348696,-0.398852 -2.011515,-0.398852 -1.504246,0 -2.423508,0.05916 -2.423508,0.155986 0,0.08579 0.06506,0.155987 0.144598,0.155987 0.07953,0 0.338274,0.142179 0.574985,0.315953 l 0.430388,0.315954 -2.060556,3.2042 c -1.133306,1.762311 -2.114971,3.204201 -2.181478,3.204201 -0.0665,0 -1.04817,-1.44189 -2.181476,-3.204201 l -2.060556,-3.2042 0.430388,-0.315954 c 0.236712,-0.173774 0.495455,-0.315953 0.574984,-0.315953 0.07953,0 0.144599,-0.0702 0.144599,-0.155987 0,-0.09682 -0.919261,-0.155986 -2.423508,-0.155986 -2.246699,0 -3.006291,0.141643 -2.010485,0.374897 0.227161,0.05321 0.499598,0.253854 0.605415,0.445873 0.105817,0.192021 1.621146,2.472492 3.367399,5.067716 2.558779,3.802772 3.24415,4.717893 3.531262,4.715013 0.27658,-0.0028 0.727649,-0.552239 2.01685,-2.456785 z m 5.108515,2.304373 c 0,-0.08579 -0.13605,-0.155987 -0.302332,-0.155987 -0.166283,0 -0.419865,-0.08774 -0.56352,-0.194983 -0.231638,-0.172924 -0.169518,-0.375863 0.54911,-1.793843 l 0.810293,-1.59886 1.88424,0.0031 1.884239,0.0031 0.888633,1.572265 c 0.488747,0.864746 0.864808,1.586134 0.835692,1.603085 -0.02912,0.01695 -0.259773,0.113724 -0.51257,0.215048 -0.972402,0.389761 -0.474184,0.502897 2.214585,0.502897 2.516181,0 3.348207,-0.14903 2.174842,-0.389548 -0.778549,-0.159588 -1.385011,-0.968209 -4.320037,-5.760088 -2.02214,-3.301454 -2.809948,-4.457437 -3.037764,-4.457437 -0.233986,0 -0.956218,1.160849 -3.018434,4.851561 -2.17915,3.899983 -2.812662,4.9095 -3.229931,5.146967 -0.285491,0.162472 -0.650699,0.295668 -0.81157,0.295989 -0.160871,3.11e-4 -0.292493,0.07078 -0.292493,0.156569 0,0.09682 0.919262,0.155987 2.423509,0.155987 1.504246,0 2.423508,-0.05916 2.423508,-0.155987 z m 1.002831,-4.761046 c 0,-0.152513 1.357984,-2.60285 1.41181,-2.547458 0.02947,0.03031 0.364011,0.634238 0.743427,1.342025 l 0.689847,1.286887 h -1.422541 c -0.782399,0 -1.422543,-0.03665 -1.422543,-0.08145 z m 20.119403,4.644056 c 0.04693,-0.150137 0.135744,-0.606397 0.197379,-1.013912 0.100607,-0.66516 0.07892,-0.740935 -0.212051,-0.740935 -0.178267,0 -0.506459,0.18502 -0.729317,0.411156 -0.993194,1.007797 -2.269825,1.176485 -3.789751,0.50076 l -0.710338,-0.315799 v -4.193712 -4.193711 l 0.493116,-0.237986 c 0.271214,-0.130892 0.609669,-0.237985 0.752123,-0.237985 0.142453,0 0.259007,-0.0702 0.259007,-0.155987 0,-0.09769 -1.030687,-0.155986 -2.757784,-0.155986 -1.727098,0 -2.757786,0.0583 -2.757786,0.155986 0,0.08579 0.116555,0.155987 0.259008,0.155987 0.142454,0 0.468753,0.101226 0.72511,0.224948 l 0.466102,0.224948 0.106312,4.316356 c 0.06568,2.66636 0.04486,4.423514 -0.05444,4.59668 -0.08841,0.154178 -0.38734,0.373928 -0.664284,0.488336 -0.276945,0.114409 -0.503535,0.261074 -0.503535,0.325923 0,0.06484 1.98806,0.117909 4.417907,0.117909 4.063605,0 4.424749,-0.02189 4.503219,-0.272976 z m 10.362587,0 c 0.04693,-0.150137 0.135743,-0.606397 0.197379,-1.013912 0.136294,-0.901108 -0.117806,-0.979939 -0.915911,-0.284143 -0.288176,0.251237 -0.858189,0.575921 -1.266693,0.72152 -0.629323,0.224305 -0.862842,0.2365 -1.529335,0.07987 -0.43263,-0.101668 -0.998758,-0.325841 -1.25806,-0.49816 -0.470115,-0.312417 -0.471458,-0.318393 -0.471458,-2.096531 v -1.783221 h 1.258907 c 1.421122,0 2.402658,0.301027 2.536264,0.777845 0.04841,0.172733 0.221932,0.314058 0.385627,0.314058 0.236018,0 0.337491,-0.213653 0.490219,-1.032164 0.105928,-0.567691 0.149173,-1.07269 0.09609,-1.122221 -0.05307,-0.04953 -0.531411,-0.0062 -1.062976,0.09625 -0.531562,0.102467 -1.582451,0.186303 -2.33531,0.186303 h -1.36883 V 15.620376 13.74854 h 1.342476 c 1.504539,0 2.411569,0.269142 2.580436,0.765691 0.06101,0.179417 0.250957,0.326213 0.422091,0.326213 0.232667,0 0.377386,-0.212624 0.573721,-0.842936 0.384062,-1.232972 0.379826,-1.242291 -0.512882,-1.128095 -0.426499,0.05455 -2.419626,0.09919 -4.42917,0.09919 -2.009547,0 -3.653719,0.05955 -3.653719,0.132326 0,0.07278 0.302013,0.243042 0.671137,0.378365 l 0.671138,0.24604 -0.04437,4.482066 -0.04437,4.482066 -0.539404,0.248123 c -0.296673,0.136467 -0.541113,0.300767 -0.5432,0.365111 -0.002,0.06435 1.946656,0.11699 4.330541,0.11699 3.984014,0 4.341233,-0.02206 4.41965,-0.272976 z m 10.128866,0.155986 c -0.002,-0.06435 -0.246528,-0.228644 -0.5432,-0.365111 l -0.539403,-0.248123 -0.04435,-4.470464 -0.04434,-4.470467 h 1.261471 c 1.469037,0 2.337183,0.282205 2.614295,0.84982 0.106888,0.21894 0.289751,0.398072 0.406361,0.398072 0.193595,0 0.737188,-1.398085 0.73713,-1.895845 -2.1e-5,-0.172238 -1.126373,-0.209972 -6.267714,-0.209972 -3.44723,0 -6.267679,0.05939 -6.267668,0.131979 1e-5,0.07259 0.118175,0.5113 0.262587,0.974915 0.196336,0.630311 0.341055,0.842936 0.573722,0.842936 0.171135,0 0.361075,-0.146796 0.422092,-0.326213 0.168867,-0.496549 1.075897,-0.765692 2.580436,-0.765692 h 1.342476 v 4.296716 4.296716 l -0.41025,0.382874 c -0.225637,0.210581 -0.526487,0.382876 -0.668554,0.382876 -0.142068,0 -0.258304,0.0702 -0.258304,0.155987 0,0.09682 0.919262,0.155986 2.423509,0.155986 1.332929,0 2.421799,-0.05264 2.419711,-0.11699 z m 6.522197,-0.039 c 0,-0.08579 -0.136049,-0.155986 -0.302331,-0.155986 -0.166284,0 -0.419865,-0.08774 -0.56352,-0.194983 -0.231639,-0.172925 -0.169518,-0.375863 0.549109,-1.793844 l 0.810294,-1.59886 1.884239,0.0031 1.884241,0.0031 0.888631,1.572265 c 0.488747,0.864746 0.864809,1.586134 0.835693,1.603085 -0.02912,0.01694 -0.259773,0.113723 -0.512571,0.215047 -0.972401,0.389761 -0.474183,0.502897 2.214585,0.502897 2.516182,0 3.348208,-0.149029 2.174842,-0.389548 -0.778548,-0.159587 -1.38501,-0.968208 -4.320037,-5.760088 -2.02214,-3.301453 -2.809947,-4.457436 -3.037763,-4.457436 -0.233986,0 -0.956219,1.160849 -3.018435,4.851561 -2.17915,3.899984 -2.812662,4.909499 -3.229929,5.146967 -0.285493,0.162472 -0.650701,0.295669 -0.811572,0.295988 -0.16087,3.12e-4 -0.292492,0.07078 -0.292492,0.156571 0,0.09682 0.919261,0.155985 2.423508,0.155985 1.504246,0 2.423508,-0.05916 2.423508,-0.155985 z m 1.002831,-4.761047 c 0,-0.152513 1.357985,-2.602849 1.41181,-2.547457 0.02947,0.03033 0.364011,0.634237 0.743427,1.342026 l 0.689848,1.286887 h -1.422542 c -0.782399,0 -1.422543,-0.03665 -1.422543,-0.08145 z"
       id="path2780" /></g></svg>
