<?xml version="1.0" encoding="UTF-8" standalone="no"?>
<!-- Created with Inkscape (http://www.inkscape.org/) -->

<svg
   width="420"
   height="420"
   viewBox="0 0 111.125 111.125"
   version="1.1"
   id="svg5"
   xml:space="preserve"
   inkscape:version="1.2.1 (9c6d41e410, 2022-07-14)"
   sodipodi:docname="1AUTOBUS.svg"
   xmlns:inkscape="http://www.inkscape.org/namespaces/inkscape"
   xmlns:sodipodi="http://sodipodi.sourceforge.net/DTD/sodipodi-0.dtd"
   xmlns="http://www.w3.org/2000/svg"
   xmlns:svg="http://www.w3.org/2000/svg"><sodipodi:namedview
     id="namedview7"
     pagecolor="#ffffff"
     bordercolor="#000000"
     borderopacity="0.25"
     inkscape:showpageshadow="2"
     inkscape:pageopacity="0.0"
     inkscape:pagecheckerboard="0"
     inkscape:deskcolor="#d1d1d1"
     inkscape:document-units="mm"
     showgrid="false"
     inkscape:zoom="0.63234634"
     inkscape:cx="94.884711"
     inkscape:cy="320.2359"
     inkscape:window-width="1280"
     inkscape:window-height="748"
     inkscape:window-x="-8"
     inkscape:window-y="-8"
     inkscape:window-maximized="1"
     inkscape:current-layer="layer1" /><defs
     id="defs2" /><g
     inkscape:label="Capa 1"
     inkscape:groupmode="layer"
     id="layer1"
     transform="translate(-0.55330471,-0.87143375)"><path
       style="fill:#0f74ac;stroke-width:0.203535;fill-opacity:1"
       d="m 17.315667,101.70789 c -0.32949,-0.12383 -0.886095,-0.6171 -1.236877,-1.09615 -0.880211,-1.202024 -0.841651,-1.901603 0.356315,-6.464962 1.992039,-7.588234 2.670723,-10.379397 2.670723,-10.983711 0,-1.195338 0.487607,-0.948252 2.428374,1.230533 1.032796,1.159456 1.911001,2.135457 1.951555,2.168891 0.0641,0.0528 -0.286651,1.508615 -1.18715,4.927821 -0.131001,0.497367 -0.62262,2.430307 -1.092515,4.295427 -0.469905,1.865121 -0.935173,3.660847 -1.033937,3.990502 -0.402318,1.342789 -1.838744,2.314149 -2.856488,1.931649 z m 32.849672,0.1391 c -0.701497,-0.0585 -1.265269,-0.24678 -1.557558,-0.52012 -0.423943,-0.39647 -0.459814,-0.5769 -0.481001,-2.419591 -0.02252,-1.959018 -0.0314,-1.996194 -0.549725,-2.302416 C 46.889991,96.198951 46.074515,95.2606 45.756694,94.510209 45.546287,94.013422 45.495077,89.143882 45.45238,65.572596 l -0.05135,-28.340311 -1.429918,-0.03946 c -1.316515,-0.03633 -1.441318,-4.51e-4 -1.573632,0.45215 -0.07904,0.270381 -0.107195,0.923972 -0.06257,1.452424 0.06795,0.804809 0.145767,0.960819 0.479216,0.960819 0.218947,0 0.581351,0.158369 0.805341,0.351931 0.402946,0.348206 0.407257,0.413655 0.407257,6.182027 0,7.075069 0.196093,6.578396 -2.597226,6.578396 -1.649019,0 -1.97172,-0.06094 -2.23684,-0.422373 -0.272964,-0.372123 -0.311442,-1.103772 -0.323426,-6.149638 -0.01394,-5.654011 -0.0083,-5.73246 0.393344,-6.133802 0.223826,-0.223599 0.602383,-0.406541 0.84126,-0.406541 0.449854,0 0.676083,-0.551633 0.602642,-1.469489 -0.08849,-1.105974 0.06003,-1.733436 0.584915,-2.470971 0.562564,-0.790497 0.564465,-0.791192 2.336334,-0.855648 l 1.773313,-0.0645 0.09919,-8.138704 c 0.07511,-6.162108 0.161498,-8.348799 0.355721,-9.003775 0.385296,-1.299326 1.56398,-2.803611 2.799886,-3.573326 1.141848,-0.71114 1.832185,-0.860687 6.182161,-1.339244 2.370383,-0.260775 2.689962,-0.300943 5.130775,-0.644893 C 64.531391,11.854719 85.584728,12 89.287491,12.699981 c 0.655091,0.123846 2.221809,0.325183 3.481596,0.447432 5.356826,0.519824 6.712962,1.008346 8.115283,2.923382 1.32622,1.811098 1.31104,1.694324 1.41315,10.875071 l 0.0918,8.251739 1.7408,0.11304 c 0.95744,0.06217 1.87513,0.21477 2.0393,0.339111 0.62877,0.476221 1.07442,1.764707 1.07513,3.108533 5.4e-4,1.201764 0.0323,1.299933 0.41801,1.299933 0.22955,0 0.6006,0.15837 0.8246,0.351931 0.40301,0.348267 0.40726,0.412913 0.40726,6.204245 0,7.01606 0.17994,6.556178 -2.56539,6.556178 -2.74534,0 -2.56539,0.459882 -2.56539,-6.556178 0,-5.791332 0.004,-5.855978 0.40725,-6.204245 0.224,-0.193561 0.58385,-0.351931 0.79968,-0.351931 0.32722,0 0.41154,-0.172086 0.50749,-1.035604 0.18561,-1.670771 -0.001,-1.87572 -1.66759,-1.829636 l -1.42115,0.0393 -0.0916,28.485463 -0.0916,28.48546 -0.4192,0.831743 c -0.25234,0.500662 -0.74469,1.026135 -1.23689,1.320099 l -0.817678,0.488356 v 1.912268 c 0,1.777489 -0.03417,1.951329 -0.484861,2.466649 -0.474685,0.54277 -0.549512,0.55441 -3.564598,0.55441 -1.950555,0 -3.251215,-0.0964 -3.547437,-0.26292 -0.592862,-0.33326 -0.877049,-1.55538 -0.798616,-3.434312 l 0.058,-1.389467 -17.133121,-0.06214 c -9.423219,-0.03418 -17.31383,-0.0083 -17.53469,0.05751 -0.378839,0.112867 -0.395526,0.20854 -0.29483,1.690407 0.125307,1.844092 -0.111503,2.755302 -0.827736,3.184982 -0.505901,0.30349 -3.403685,0.45597 -5.439062,0.28619 z m 31.239767,-8.885223 c 0.271441,-0.179232 0.33807,-0.484798 0.332741,-1.526007 -0.0117,-2.283039 0.696991,-2.093168 -7.812474,-2.093168 -5.565543,0 -7.525883,0.06916 -7.689717,0.27129 -0.124112,0.153137 -0.219889,0.886732 -0.219889,1.68433 0,1.107251 0.06939,1.462907 0.320674,1.643474 0.429774,0.308835 14.602743,0.327722 15.068665,0.02008 z M 59.008437,85.952693 c 1.623035,-1.22089 1.774734,-3.973883 0.297946,-5.40706 -0.356035,-0.345523 -0.750086,-0.472113 -1.469596,-0.472113 -0.900332,0 -1.04398,0.07509 -1.705865,0.89169 -1.169743,1.443173 -1.182464,3.02401 -0.03575,4.442555 0.881544,1.090512 1.92781,1.286217 2.913265,0.544928 z m 32.695027,-0.641514 c 0.639292,-0.845557 0.699145,-1.0342 0.699145,-2.203485 0,-1.184002 -0.05272,-1.34381 -0.711411,-2.15647 -0.652374,-0.804866 -0.7943,-0.877704 -1.710268,-0.877704 -0.867708,0 -1.091242,0.09852 -1.702456,0.750384 -0.644149,0.686981 -0.710372,0.865909 -0.78376,2.117656 -0.07999,1.364412 -0.07843,1.369519 0.756382,2.444415 0.827301,1.065243 0.847131,1.07589 1.794881,0.963536 0.830367,-0.09844 1.051703,-0.237093 1.657487,-1.038332 z m -39.68863,-0.310191 c 0.794824,-0.671929 1.173997,-1.529848 1.173997,-2.656307 0,-1.832743 -1.00371,-3.175461 -2.373723,-3.175461 -1.525817,0 -2.571839,1.275799 -2.573126,3.138368 -0.0018,2.536535 2.145303,4.069294 3.772852,2.6934 z M 98.748567,84.51173 c 0.721086,-0.889638 0.800477,-1.094398 0.800477,-2.064509 0,-1.996321 -0.99543,-3.278001 -2.545891,-3.278001 -0.775302,0 -1.003233,0.108948 -1.543658,0.737763 -0.348725,0.405769 -0.735,1.153484 -0.85839,1.66159 -0.197441,0.81304 -0.179399,1.049186 0.150428,1.969111 0.462356,1.289553 1.280351,1.959623 2.393668,1.960793 0.704081,6.8e-4 0.901396,-0.120692 1.603366,-0.986747 z M 86.911628,71.135244 c 1.558686,-0.188783 3.328724,-0.388019 3.933424,-0.442742 7.115359,-0.643914 7.52997,-0.749638 8.322079,-2.122074 0.379322,-0.657232 0.381913,-0.78314 0.381913,-18.55243 V 32.127291 L 99.13675,31.436186 c -0.842724,-1.41261 0.822943,-1.325341 -25.278289,-1.324416 -23.357677,9.04e-4 -23.889112,0.01043 -24.463006,0.442154 -1.210504,0.910617 -1.154231,-0.04059 -1.153473,19.496899 7.32e-4,17.173364 0.01144,17.723259 0.359295,18.42723 0.705954,1.428452 1.434074,1.64762 6.969697,2.09793 1.360572,0.110676 3.215897,0.320869 4.122945,0.467093 4.338166,0.699353 21.718637,0.758209 27.217709,0.09216 z m 5.488545,-45.037153 c 0.584619,-0.657168 0.964626,-2.091194 0.554153,-2.091194 -0.124883,0 -0.527026,0.417028 -0.89365,0.926735 l -0.666586,0.92673 -1.447851,-0.191987 -1.447853,-0.19199 -0.03118,-1.311266 c -0.01715,-0.721196 0.02927,-1.357364 0.103155,-1.413703 0.267687,-0.204113 0.70797,0.181621 1.069002,0.936556 0.302338,0.632209 0.478764,0.771076 0.979626,0.771076 1.308447,0 1.443648,-1.16469 0.210878,-1.816638 -0.461878,-0.244261 -0.930703,-0.444114 -1.04183,-0.444114 -0.111131,0 -0.392898,-0.221199 -0.626156,-0.491558 -0.626511,-0.72616 -0.603948,-2.48945 0.04131,-3.227228 0.574033,-0.656355 1.261476,-0.888308 1.72521,-0.58211 0.192873,0.127344 0.603475,0.231545 0.912451,0.231545 0.55088,0 0.561771,0.02161 0.561771,1.114227 0,0.688991 -0.104899,1.243648 -0.274864,1.453339 -0.35075,0.432742 -0.339842,0.596393 0.08128,1.219191 0.662854,0.980296 0.835583,0.672118 0.827042,-1.475588 -0.0074,-1.856154 -0.04165,-2.03073 -0.531721,-2.709327 l -0.523827,-0.725334 -17.95624,0.0076 c -19.121738,0.0081 -18.818408,-0.0088 -19.071665,1.056941 -0.134259,0.564976 -0.211605,6.344786 -0.08696,6.498568 0.189433,0.233713 0.449252,-0.431507 0.881589,-2.25718 0.235562,-0.99473 0.570939,-2.215537 0.745281,-2.7129 0.174343,-0.497365 0.365563,-1.082336 0.424937,-1.299931 0.154901,-0.567706 0.826844,-0.494168 1.032861,0.113038 0.09492,0.279768 0.469641,1.707354 0.832706,3.172416 0.437974,1.767323 0.779402,2.755651 1.01456,2.93684 0.428308,0.330006 0.46393,0.968415 0.06459,1.157478 -0.584634,0.276785 -1.861291,0.141525 -2.106637,-0.223207 -0.206857,-0.307512 -0.177793,-0.420611 0.197962,-0.770296 0.389882,-0.362832 0.415581,-0.477121 0.223949,-0.996016 -0.179191,-0.485215 -0.339741,-0.586158 -0.932292,-0.586158 -0.562311,0 -0.780523,0.121827 -1.017521,0.568082 -0.292474,0.550713 -0.287127,0.574913 0.174875,0.791626 0.350946,0.164619 0.461145,0.357537 0.418055,0.731851 -0.04698,0.40818 -0.19387,0.522125 -0.745674,0.578471 -0.675513,0.06898 -0.952581,0.551281 -0.458105,0.797446 0.125975,0.06271 8.329337,0.122065 18.229683,0.13187 l 18.000633,0.01785 0.553071,-0.621707 z m -30.32411,-0.531837 c -0.876742,-0.626331 -0.999462,-1.084159 -1.003752,-3.744731 -0.004,-2.486538 -0.0117,-2.531571 -0.507993,-2.995522 -0.458994,-0.429042 -0.476682,-0.497221 -0.198428,-0.764823 0.376929,-0.3625 2.108417,-0.324411 2.408996,0.05299 0.168231,0.211225 0.12649,0.364652 -0.184615,0.678486 -0.36005,0.363217 -0.406349,0.645703 -0.443622,2.706649 -0.04394,2.429557 0.04722,2.75212 0.862643,3.052478 0.248014,0.09135 0.55552,-0.02568 0.8704,-0.331257 0.466709,-0.452927 0.486895,-0.562636 0.486895,-2.645772 0,-1.923976 -0.04595,-2.233614 -0.400704,-2.699486 -0.499327,-0.655754 -0.320485,-0.883213 0.809564,-1.029638 1.08335,-0.14037 1.396212,0.202733 0.89917,0.986099 -0.27466,0.432883 -0.35983,1.049966 -0.427341,3.096246 -0.07846,2.377953 -0.117238,2.596224 -0.55781,3.139783 -0.540247,0.666531 -1.990859,0.943232 -2.613403,0.498495 z m 5.451449,0.09952 c -0.396186,-0.197234 -0.249213,-0.896742 0.247022,-1.175693 0.318377,-0.17897 0.439775,-0.384336 0.366487,-0.619966 -0.06028,-0.193793 -0.109589,-1.368825 -0.109589,-2.611185 0,-2.029145 -0.03261,-2.251208 -0.320675,-2.183798 -0.193348,0.04525 -0.419703,0.460419 -0.570093,1.045651 -0.177818,0.691988 -0.335623,0.949268 -0.549725,0.896253 -0.23109,-0.05721 -0.298719,-0.333495 -0.293426,-1.198633 0.01183,-1.947209 -0.02693,-1.915533 2.34991,-1.915533 2.361495,0 2.315881,-0.03547 2.315881,1.800724 0,0.885022 -0.0658,1.106748 -0.356278,1.200464 -0.28175,0.09091 -0.382007,-0.03363 -0.479266,-0.595336 -0.146049,-0.843497 -0.398184,-1.275478 -0.744449,-1.275478 -0.200385,0 -0.252428,0.559324 -0.252428,2.712902 0,1.492097 0.06671,2.712901 0.148219,2.712901 0.08152,0 0.296812,0.134058 0.478427,0.297892 0.309423,0.279144 0.310803,0.321836 0.02194,0.678226 -0.297443,0.36697 -1.691314,0.509705 -2.251947,0.230609 z m 5.504673,-0.08 c -0.222685,-0.1106 -0.648142,-0.615388 -0.945465,-1.121768 -1.33865,-2.27992 -0.660342,-5.82505 1.249622,-6.53105 0.686972,-0.253934 0.828439,-0.231656 1.528335,0.240675 1.146011,0.773393 1.65451,2.111412 1.522154,4.005248 -0.189887,2.717037 -1.685432,4.235876 -3.354646,3.406892 z m 1.331711,-1.073655 c 0.811766,-0.695489 1.107701,-3.217999 0.537209,-4.579088 -0.464691,-1.108659 -0.897567,-1.238931 -1.587948,-0.477887 -0.545333,0.601152 -0.600737,0.788332 -0.667993,2.256845 -0.07032,1.53556 -0.05051,1.629491 0.482618,2.287235 0.558471,0.689019 0.876518,0.820983 1.236114,0.512895 z m 2.836291,0.974181 c -0.262535,-0.390277 -0.110991,-0.768121 0.401982,-1.002239 0.344679,-0.157309 0.368739,-0.345589 0.337412,-2.640537 -0.0326,-2.388209 -0.0503,-2.487659 -0.527324,-2.962948 -0.328036,-0.326839 -0.432133,-0.566947 -0.31035,-0.71585 0.240015,-0.293478 0.456612,-0.321411 2.198902,-0.283603 1.741729,0.03781 2.242471,0.385558 2.412095,1.675166 0.0912,0.693319 0.03383,0.953882 -0.309194,1.404359 l -0.42116,0.5531 0.487632,0.55756 c 0.364644,0.416936 0.486927,0.774108 0.484829,1.416138 -0.0033,0.980089 -0.07175,1.136529 -0.800685,1.827189 -0.452969,0.429191 -0.757906,0.500877 -2.130654,0.500877 -1.179063,0 -1.6605,-0.08691 -1.823485,-0.329212 z m 3.434421,-1.430872 c 0.320493,-0.518156 0.220295,-0.936812 -0.349759,-1.461384 -0.691722,-0.636535 -1.197349,-0.371603 -1.308842,0.685791 -0.06365,0.603722 -0.0046,0.922466 0.209731,1.132787 0.361899,0.355062 1.124633,0.167021 1.44887,-0.357194 z m -0.177769,-3.821359 c 0.04447,-0.566537 -0.04348,-0.80171 -0.410879,-1.098712 -0.639272,-0.516777 -0.960375,-0.297062 -1.064401,0.728317 -0.115128,1.134768 -0.04603,1.241848 0.748568,1.160137 0.605397,-0.06226 0.675599,-0.138554 0.726712,-0.789742 z m 3.290479,4.921402 -0.598429,-0.660042 -0.01221,-2.604765 c -0.01157,-2.476298 -0.03422,-2.627004 -0.458105,-3.055614 -0.395066,-0.39946 -0.414561,-0.488337 -0.171027,-0.779738 0.399307,-0.477792 2.382146,-0.250273 2.382146,0.273334 0,0.203376 -0.164918,0.496843 -0.366484,0.652148 -0.325985,0.251167 -0.366483,0.527211 -0.366483,2.497995 0,2.538454 0.181295,3.055629 1.071149,3.055629 1.077638,0 1.310996,-0.537881 1.310996,-3.0218 0,-2.006357 -0.03477,-2.226623 -0.398585,-2.524646 -0.261415,-0.214148 -0.357986,-0.457041 -0.280614,-0.7058 0.09052,-0.291064 0.35122,-0.379289 1.120738,-0.379289 1.162167,0 1.340589,0.193842 0.837349,0.90971 -0.30638,0.435849 -0.362672,0.847896 -0.362672,2.654784 0,3.183251 -0.639723,4.348135 -2.387876,4.348135 -0.538392,0 -0.873303,-0.167482 -1.319882,-0.660041 z m -26.2115,-3.43705 c 0.250659,-0.30925 -0.06801,-1.328719 -0.415339,-1.328719 -0.293866,0 -0.450687,1.039162 -0.202949,1.344811 0.244926,0.302179 0.362804,0.299111 0.618288,-0.01611 z m 34.04779,-1.272198 c -0.254446,-1.257851 -1.218238,-1.858996 -1.739081,-1.084718 -0.358349,0.532712 -0.143769,1.081253 0.54242,1.386618 1.083792,0.482302 1.342111,0.417131 1.196661,-0.3019 z M 9.0360138,101.14378 C 8.3765907,100.3302 8.3254033,99.589896 8.8695903,98.736373 9.3706156,97.950534 9.9015781,97.712774 10.541184,97.98786 c 0.656565,0.282385 1.051723,0.993433 1.051723,1.892494 0,0.967216 -0.50022,1.656186 -1.320005,1.818096 -0.5867471,0.11588 -0.7542577,0.0408 -1.2368882,-0.55467 z m 19.2319062,0.24916 c -0.987351,-0.6273 -1.464492,-2.002287 -1.472099,-4.24213 -0.0055,-1.695608 -0.172821,-4.270041 -0.508735,-7.839434 -0.125848,-1.33713 -0.210069,-1.571239 -0.772807,-2.147712 -2.38042,-2.4385 -4.959038,-5.391772 -5.263318,-6.028037 -0.606256,-1.267712 -1.008686,-3.051691 -0.893129,-3.959184 0.742315,-5.829086 0.962253,-8.632748 0.67722,-8.632748 -0.288977,0 -1.11258,1.038892 -1.112022,1.402695 1.93e-4,0.161079 -0.240703,1.25934 -0.535449,2.440583 -0.294747,1.181242 -0.710206,2.869758 -0.923261,3.752261 -0.403962,1.673356 -0.969262,2.582844 -1.864705,3.000072 -0.422441,0.19683 -0.519533,0.44565 -0.777503,1.992538 -0.162131,0.97219 -0.386207,2.225422 -0.497945,2.784958 -0.111763,0.559536 -0.270875,1.576873 -0.353601,2.260751 -0.08278,0.683878 -0.486281,3.125489 -0.896779,5.425803 -0.410499,2.300314 -0.747974,4.436723 -0.749938,4.747576 -0.0014,0.310853 -0.08166,0.717562 -0.177085,0.903799 -0.151346,0.295364 -0.259432,0.281518 -0.846319,-0.108407 -1.279422,-0.85008 -2.8197808,-0.297678 -3.465463,1.24278 -0.1489345,0.355337 -0.3514247,0.70754 -0.4499524,0.782678 C 7.1103933,99.381184 6.1967915,98.712224 5.63754,97.892235 5.184439,97.227885 5.1450002,97.031261 5.2307484,95.86451 c 0.05226,-0.710622 0.316319,-2.545058 0.5868725,-4.076527 0.2705533,-1.53147 0.6132811,-3.547492 0.761602,-4.480051 0.4837044,-3.041138 0.7730993,-4.015705 1.3404197,-4.514105 0.8052639,-0.707433 1.4218338,-0.75548 3.1764454,-0.247538 2.256906,0.653358 2.208688,0.667454 2.465389,-0.720678 0.477641,-2.582949 0.482854,-3.011239 0.04543,-3.741089 -0.454106,-0.757774 -0.524523,-1.993761 -0.176625,-3.100257 0.116787,-0.371607 0.373541,-1.438653 0.570456,-2.371216 0.196915,-0.932558 0.470382,-2.102496 0.607707,-2.599862 0.137269,-0.497366 0.392004,-1.503083 0.565968,-2.234928 0.507479,-2.13501 1.26603,-2.853033 6.641101,-6.286211 2.271817,-1.451059 3.127585,-1.443688 4.496057,0.03871 0.357403,0.387146 0.792026,1.163342 0.965849,1.724875 0.303232,0.979607 0.299791,1.178397 -0.08514,4.906599 -0.220689,2.137095 -0.5191,4.750364 -0.663157,5.807266 -0.144042,1.056902 -0.315301,2.684639 -0.380549,3.617202 l -0.118598,1.695562 1.26423,1.469488 c 0.695323,0.808218 1.697628,1.967315 2.227336,2.575769 1.599237,1.836984 1.543216,1.567357 2.072141,9.971398 0.314244,4.992976 0.299193,6.252674 -0.08333,6.972983 -0.709649,1.33622 -2.130465,1.82747 -3.242361,1.12104 z m 4.353229,-23.22825 c -0.583877,-0.375779 -4.315615,-3.967973 -4.752956,-4.575228 -0.269047,-0.373572 -0.272042,-0.638706 -0.03275,-2.895515 0.144891,-1.366359 0.344958,-2.584877 0.444613,-2.70782 0.22044,-0.271962 -0.0069,-0.465361 3.572675,3.03506 2.812992,2.750548 3.560241,3.725239 3.560241,4.643874 0,0.691779 -0.660038,1.874462 -1.325453,2.375008 -0.711641,0.535308 -0.81467,0.544065 -1.466387,0.124611 z M 24.786321,58.977659 c -1.000717,-0.391333 -2.290355,-2.129978 -2.663658,-3.591055 -0.300905,-1.177735 -0.300696,-1.301963 0.0042,-2.462898 0.788123,-3.001455 3.24274,-4.563859 5.331382,-3.393514 0.790422,0.442903 1.940114,1.986289 2.26503,3.040663 0.719963,2.336258 -0.611873,5.474416 -2.694983,6.350115 -0.95619,0.401967 -1.334483,0.411533 -2.241896,0.05669 z"
       id="path546" /></g></svg>
