<?xml version="1.0" encoding="UTF-8" standalone="no"?>
<!-- Created with Inkscape (http://www.inkscape.org/) -->

<svg
   width="420"
   height="420"
   viewBox="0 0 111.125 111.125"
   version="1.1"
   id="svg5"
   xml:space="preserve"
   inkscape:version="1.2.1 (9c6d41e410, 2022-07-14)"
   sodipodi:docname="1TAXI.svg"
   xmlns:inkscape="http://www.inkscape.org/namespaces/inkscape"
   xmlns:sodipodi="http://sodipodi.sourceforge.net/DTD/sodipodi-0.dtd"
   xmlns="http://www.w3.org/2000/svg"
   xmlns:svg="http://www.w3.org/2000/svg"><sodipodi:namedview
     id="namedview7"
     pagecolor="#ffffff"
     bordercolor="#000000"
     borderopacity="0.25"
     inkscape:showpageshadow="2"
     inkscape:pageopacity="0.0"
     inkscape:pagecheckerboard="0"
     inkscape:deskcolor="#d1d1d1"
     inkscape:document-units="mm"
     showgrid="false"
     inkscape:zoom="0.63234634"
     inkscape:cx="94.884711"
     inkscape:cy="67.210004"
     inkscape:window-width="1280"
     inkscape:window-height="748"
     inkscape:window-x="-8"
     inkscape:window-y="-8"
     inkscape:window-maximized="1"
     inkscape:current-layer="layer1" /><defs
     id="defs2" /><g
     inkscape:label="Capa 1"
     inkscape:groupmode="layer"
     id="layer1"
     transform="translate(-0.55330471,-0.87143375)"><path
       style="fill:#0f74ac;stroke-width:0.150957;fill-opacity:1"
       d="m 18.318439,104.22627 c -0.157363,-0.12485 -0.391778,-0.22699 -0.520923,-0.22699 -0.305341,0 -1.772399,-1.55798 -1.772399,-1.88224 0,-0.13703 -0.09949,-0.28921 -0.221094,-0.33814 -0.188841,-0.0759 -0.221095,-0.68739 -0.221095,-4.190879 0,-3.17168 -0.04178,-4.10475 -0.184246,-4.114537 -0.10133,-0.0073 -0.564377,-0.0021 -1.028985,0.01081 -0.559984,0.01553 -0.956107,-0.05833 -1.175118,-0.219239 -0.181709,-0.133512 -0.506484,-0.242738 -0.721725,-0.242738 -0.21524,0 -0.473916,-0.104379 -0.574836,-0.231901 -0.10092,-0.127552 -0.268327,-0.231911 -0.372012,-0.231911 -0.103683,0 -0.592659,-0.358484 -1.08661,-0.796631 -0.863007,-0.765515 -1.6367035,-1.872952 -1.6367035,-2.342716 0,-0.123252 -0.099492,-0.310706 -0.2210943,-0.416563 -0.3307329,-0.287908 -0.3352995,-28.22982 -0.00462,-28.688303 0.1190239,-0.165059 0.2185169,-0.448127 0.2210953,-0.62904 0.00263,-0.180911 0.1080087,-0.418867 0.2342773,-0.52879 0.1262749,-0.109924 0.3983513,-0.501915 0.6046168,-0.871091 0.3831514,-0.685774 1.6759394,-1.632465 2.5244944,-1.848649 0.219948,-0.05604 0.530741,-0.195863 0.690648,-0.310727 0.195393,-0.140352 0.763368,-0.20884 1.731908,-0.20884 1.282768,0 1.441168,-0.0302 1.441168,-0.274808 0,-0.151147 0.08992,-0.412043 0.199848,-0.579769 0.109912,-0.167728 0.236727,-0.744927 0.281802,-1.282662 0.04767,-0.568741 0.17987,-1.091189 0.316039,-1.249012 0.144052,-0.16696 0.234086,-0.551176 0.234086,-0.998949 0,-0.400203 0.09998,-0.88768 0.222162,-1.083284 0.139267,-0.222943 0.209961,-0.64977 0.189463,-1.143912 -0.0234,-0.564307 0.0391,-0.871492 0.220026,-1.081186 0.171447,-0.19871 0.254406,-0.562476 0.257951,-1.131069 0.0028,-0.460983 0.100017,-1.012083 0.215871,-1.224666 0.115856,-0.212581 0.212999,-0.703682 0.215872,-1.091335 0.0028,-0.387653 0.102601,-0.839872 0.22163,-1.004932 0.128236,-0.177835 0.218316,-0.650263 0.221094,-1.159536 0.0028,-0.509273 0.09286,-0.9817 0.221095,-1.159536 0.122053,-0.169261 0.21845,-0.641115 0.221094,-1.082235 0.0026,-0.441118 0.09904,-0.912972 0.221095,-1.082233 0.138305,-0.191799 0.218099,-0.669909 0.221095,-1.324762 0.0034,-0.717422 0.07098,-1.08236 0.225782,-1.217117 0.149661,-0.130282 0.221094,-0.47994 0.221094,-1.082234 0,-0.602294 0.07143,-0.951951 0.221096,-1.082234 0.136482,-0.118811 0.223093,-0.466261 0.226317,-0.907908 0.0028,-0.393494 0.100017,-0.889374 0.215872,-1.101955 0.115856,-0.212582 0.212998,-0.654067 0.215872,-0.981078 0.0028,-0.327011 0.101813,-0.779231 0.219883,-1.004932 0.118064,-0.225701 0.389472,-0.826442 0.603129,-1.334979 0.731713,-1.741599 2.817936,-3.625547 4.032089,-3.641146 0.210482,-0.0027 0.511446,-0.107065 0.668809,-0.231908 0.249369,-0.197837 4.094695,-0.226991 29.940276,-0.226991 26.179432,0 29.675659,0.02717 29.837648,0.231907 0.100931,0.127549 0.364168,0.231908 0.58499,0.231908 0.593263,0 1.289764,0.407277 2.35223,1.375456 1.010978,0.921266 2.070559,2.493036 2.072859,3.074873 7.36e-4,0.194315 0.09725,0.507389 0.214356,0.695721 0.117119,0.188332 0.206516,0.56874 0.198649,0.845353 -0.0081,0.276612 0.09532,0.629951 0.229235,0.785199 0.164864,0.191077 0.243538,0.559409 0.243538,1.140141 0,0.573942 0.07314,0.921574 0.221095,1.050339 0.147352,0.128273 0.222657,0.482654 0.225784,1.062512 0.0029,0.518635 0.0921,0.991264 0.221095,1.170158 0.128235,0.177834 0.21832,0.650262 0.221094,1.159535 0.0029,0.509273 0.09292,0.981701 0.221094,1.159537 0.130646,0.181172 0.216413,0.644315 0.216413,1.168638 0,0.524324 0.08574,0.987465 0.216403,1.168638 0.122053,0.169261 0.218452,0.641116 0.221094,1.082234 0.0029,0.441118 0.09906,0.912972 0.221093,1.082234 0.128237,0.177835 0.218321,0.650264 0.221096,1.159536 0.0029,0.509274 0.09292,0.981701 0.221094,1.159538 0.119025,0.165058 0.220871,0.647968 0.226318,1.073132 0.005,0.425163 0.104701,0.946954 0.22056,1.159536 0.115858,0.212582 0.213004,0.738468 0.215869,1.168638 0.0029,0.440285 0.09978,0.913293 0.221639,1.082234 0.119016,0.16506 0.218511,0.630827 0.221094,1.035041 0.0029,0.431067 0.126572,0.973466 0.299476,1.311854 0.162143,0.317304 0.294797,0.859715 0.294797,1.205356 0,0.345642 0.07344,0.70548 0.163221,0.799641 0.08979,0.09416 0.206195,0.391592 0.258711,0.660957 l 0.09553,0.489755 1.47319,0.03146 c 1.31696,0.02813 2.034667,0.180137 2.726067,0.577393 1.35849,0.780565 1.76661,1.114881 2.10892,1.727552 0.20891,0.373894 0.48314,0.769747 0.60941,0.87967 0.12627,0.109923 0.2317,0.34788 0.23428,0.528792 0.003,0.180912 0.10209,0.46398 0.22109,0.629039 0.33061,0.458483 0.32605,28.400395 -0.005,28.688303 -0.12161,0.105857 -0.22109,0.319116 -0.22109,0.473907 0,0.154794 -0.13089,0.514125 -0.29086,0.798513 -0.32806,0.583217 -2.13751,2.283487 -2.43011,2.283487 -0.10492,0 -0.27344,0.104379 -0.37436,0.231911 -0.10093,0.127543 -0.36168,0.231901 -0.57947,0.231901 -0.21778,0 -0.524713,0.102177 -0.682079,0.226992 -0.188783,0.149771 -0.649624,0.228659 -1.35474,0.231911 -0.75153,0.0031 -1.070031,0.06221 -1.073371,0.198175 -0.0029,0.106288 -5.85e-4,1.904879 0.004,3.996856 0.0081,3.23436 -0.02451,3.833 -0.216342,4.00001 -0.124079,0.10802 -0.225603,0.31199 -0.225603,0.4533 0,0.32079 -1.47632,1.86969 -1.782081,1.86969 -0.123818,0 -0.35389,0.10218 -0.511249,0.227 -0.427248,0.33895 -12.378886,0.33895 -12.806133,0 -0.15736,-0.12485 -0.38951,-0.22989 -0.51589,-0.23343 -0.400041,-0.0112 -1.278314,-0.96537 -1.757373,-1.90923 L 78.9624,101.17284 v -3.843355 -3.84336 H 56.410984 33.859331 l -0.0046,3.826471 c -0.0039,3.119534 -0.04467,3.881924 -0.221094,4.126584 -0.119024,0.16506 -0.216408,0.45815 -0.216408,0.65133 0,0.39896 -1.405644,1.90832 -1.777434,1.90859 -0.126375,8e-5 -0.358523,0.10228 -0.515887,0.22715 -0.427249,0.33895 -12.378887,0.33895 -12.806136,0 z m 8.210322,-25.118379 c 0.302512,-0.170065 0.712166,-0.30921 0.910347,-0.30921 0.198179,0 0.40132,-0.06957 0.451422,-0.154605 0.05011,-0.08504 0.203256,-0.154915 0.340341,-0.155297 0.792534,-0.0022 3.395134,-2.507451 3.412293,-3.28466 0.0034,-0.148808 0.0723,-0.270559 0.153371,-0.270559 0.08106,0 0.147397,-0.164548 0.147397,-0.365663 0,-0.201114 0.132655,-0.542556 0.294792,-0.758758 0.239422,-0.319261 0.294794,-0.627199 0.294794,-1.639441 0,-1.210849 -0.07979,-1.513284 -0.748841,-2.838467 -0.07455,-0.147653 -0.135539,-0.332904 -0.135539,-0.411668 0,-0.267191 -0.958665,-1.671731 -1.401705,-2.053636 -0.55418,-0.477711 -1.812487,-1.208658 -2.080675,-1.208658 -0.111392,0 -0.20253,-0.06183 -0.20253,-0.1374 0,-0.07556 -0.241848,-0.184987 -0.537436,-0.243152 -0.295591,-0.05817 -0.68903,-0.20994 -0.874309,-0.337277 -0.485902,-0.333946 -2.464021,-0.259423 -3.198931,0.120516 -0.306502,0.158456 -0.6777,0.288103 -0.824885,0.288103 -0.695431,0 -2.450637,1.276821 -3.461794,2.518276 -0.375877,0.461487 -0.683413,0.91001 -0.683413,0.996722 0,0.08671 -0.09949,0.244266 -0.221094,0.350123 -0.121603,0.105856 -0.223446,0.375271 -0.226318,0.598698 -0.0028,0.223429 -0.100027,0.580163 -0.215871,0.792746 -0.297493,0.545858 -0.297493,2.67852 0,2.937492 0.121601,0.105857 0.2217,0.340484 0.222441,0.521395 0.0023,0.565674 0.631612,1.691473 1.39892,2.502648 0.976676,1.032518 2.059352,1.923313 2.3376,1.923313 0.123441,0 0.265432,0.06957 0.315536,0.154604 0.05011,0.08504 0.286405,0.154605 0.525119,0.154605 0.238714,0 0.681533,0.139145 0.984045,0.30921 0.389086,0.218737 0.831622,0.309209 1.512461,0.309209 0.68084,0 1.123375,-0.09047 1.512462,-0.309209 z m 62.826079,0 c 0.324271,-0.164296 0.768074,-0.301079 0.986222,-0.303965 0.218159,-0.0028 0.437639,-0.07482 0.487744,-0.15985 0.05014,-0.08504 0.185929,-0.154604 0.301847,-0.154604 0.240241,0 1.989847,-1.342357 2.185661,-1.676919 0.07102,-0.121378 0.352941,-0.480488 0.626431,-0.798021 0.273501,-0.317532 0.497268,-0.647346 0.497268,-0.73292 0,-0.08557 0.09946,-0.242196 0.221094,-0.348052 0.121609,-0.105857 0.221094,-0.418932 0.221094,-0.695722 0,-0.276791 0.09946,-0.589865 0.221095,-0.695722 0.297498,-0.258972 0.297498,-2.391634 0,-2.937492 -0.115849,-0.212583 -0.212995,-0.569317 -0.215869,-0.792746 -0.0029,-0.223427 -0.104711,-0.492842 -0.22632,-0.598698 -0.121598,-0.105857 -0.221094,-0.279787 -0.221094,-0.386512 0,-0.106726 -0.108518,-0.288508 -0.241139,-0.403965 -0.132624,-0.115453 -0.397176,-0.469183 -0.587895,-0.786066 -0.469627,-0.780322 -2.664387,-2.288578 -3.330252,-2.288578 -0.150893,0 -0.520439,-0.130341 -0.821216,-0.289649 -0.711119,-0.376644 -2.709519,-0.448174 -3.195216,-0.114366 -0.181591,0.124804 -0.572018,0.274507 -0.86761,0.332673 -0.295593,0.05817 -0.537438,0.167583 -0.537438,0.243152 0,0.07557 -0.09109,0.1374 -0.202532,0.1374 -0.268184,0 -1.526494,0.730947 -2.080677,1.208658 -0.500758,0.43166 -1.401699,1.799974 -1.401699,2.12884 0,0.120127 -0.06627,0.218413 -0.147402,0.218413 -0.0811,0 -0.147392,0.199333 -0.147392,0.442965 0,0.24363 -0.132655,0.619859 -0.294796,0.836061 -0.436983,0.582702 -0.424656,2.568977 0.01987,3.199615 0.173056,0.245517 0.275366,0.553761 0.227359,0.684988 -0.04802,0.131226 0.009,0.339995 0.12754,0.463931 0.118158,0.123935 0.214839,0.295541 0.214839,0.381345 0,0.0858 0.248725,0.538088 0.55273,1.005077 0.562455,0.863992 2.331904,2.26231 2.862763,2.26231 0.138606,0 0.29301,0.06957 0.343116,0.154604 0.05014,0.08504 0.253244,0.154605 0.451419,0.154605 0.198184,0 0.607839,0.139145 0.910351,0.30921 0.738235,0.415021 2.240982,0.415021 3.060121,0 z m 1.424597,-24.118358 c -0.02714,-0.467679 -0.143236,-1.004417 -0.257945,-1.192748 -0.114718,-0.188332 -0.210684,-0.710124 -0.213266,-1.159537 -0.0029,-0.471972 -0.09613,-0.943878 -0.221093,-1.117223 -0.131364,-0.182171 -0.216403,-0.645596 -0.216403,-1.179256 0,-0.592856 -0.07203,-0.941827 -0.221095,-1.071616 -0.149098,-0.129789 -0.221094,-0.47876 -0.221094,-1.071615 0,-0.533662 -0.08504,-0.997086 -0.216413,-1.179257 -0.124948,-0.17328 -0.218381,-0.645181 -0.221094,-1.116635 -0.0029,-0.579821 -0.06879,-0.842326 -0.225785,-0.90552 -0.163634,-0.06586 -0.221093,-0.338152 -0.221093,-1.047833 0,-0.603731 -0.08009,-1.069986 -0.216404,-1.258949 -0.128237,-0.177835 -0.21832,-0.650262 -0.221094,-1.159536 -0.0029,-0.509273 -0.09291,-0.981701 -0.221094,-1.159536 -0.120852,-0.167586 -0.218885,-0.64146 -0.222002,-1.073132 -0.0029,-0.425164 -0.110376,-0.981742 -0.238435,-1.23684 -0.128055,-0.255098 -0.268084,-0.846461 -0.311168,-1.314141 -0.04307,-0.467679 -0.17005,-1.004416 -0.282146,-1.192748 C 86.719718,35.365079 86.628,34.834413 86.628,34.374155 c 0,-0.555244 -0.07435,-0.901602 -0.221095,-1.029303 -0.121598,-0.105856 -0.221093,-0.404656 -0.221093,-0.664001 0,-0.739131 -0.458168,-1.644057 -0.884376,-1.746705 -0.202664,-0.04881 -0.662203,-0.187307 -1.021178,-0.307766 -0.553355,-0.185686 -4.793342,-0.219095 -27.857928,-0.21951 l -27.205233,-4.65e-4 -1.068623,0.332222 c -0.793293,0.246624 -1.068625,0.401209 -1.068625,0.599978 0,0.147265 -0.09949,0.354367 -0.221095,0.460223 -0.121601,0.105856 -0.221094,0.418931 -0.221094,0.695722 0,0.276791 -0.09949,0.589866 -0.221095,0.695722 -0.151253,0.131667 -0.222744,0.491723 -0.226318,1.139815 -0.0028,0.527844 -0.0985,1.118507 -0.215872,1.333863 -0.115855,0.212581 -0.215249,0.664801 -0.220872,1.004931 -0.0057,0.340132 -0.138379,0.896709 -0.295014,1.236839 -0.157533,0.342083 -0.28912,0.963841 -0.294479,1.391444 -0.0054,0.425211 -0.107058,0.908055 -0.226096,1.073133 -0.122055,0.169261 -0.218452,0.641115 -0.221095,1.082233 -0.0026,0.441119 -0.09904,0.912973 -0.221095,1.082235 -0.136124,0.188776 -0.216407,0.654929 -0.216407,1.256559 0,0.661569 -0.06816,1.01579 -0.221094,1.148917 -0.153515,0.133636 -0.221095,0.488795 -0.221095,1.161927 0,0.71912 -0.05709,0.99244 -0.221094,1.058452 -0.162013,0.06521 -0.221095,0.333117 -0.221095,1.002541 0,0.623434 -0.07021,0.974672 -0.221095,1.106017 -0.149662,0.130283 -0.221095,0.47994 -0.221095,1.082234 0,0.602294 -0.07143,0.951952 -0.221094,1.082234 -0.148832,0.12956 -0.221095,0.47822 -0.221095,1.066764 0,0.496889 -0.08859,1.006966 -0.205227,1.181631 -0.166434,0.249238 -0.332512,1.628291 -0.25525,2.119519 0.01008,0.06395 15.489384,0.09873 34.398504,0.0773 l 34.380219,-0.039 z m -60.198922,-33.463697 -0.405341,-0.532852 0.005,-4.99427 c 0.0046,-4.613081 0.02674,-5.041465 0.289792,-5.612684 0.156635,-0.340132 0.287041,-0.8097426 0.28979,-1.0435822 0.0027,-0.2338396 0.06686,-0.4251616 0.142466,-0.4251616 0.07561,0 0.182146,-0.1565421 0.236758,-0.347863 0.13579,-0.4757222 1.398069,-1.8166072 1.710108,-1.8166072 0.139126,0 0.344249,-0.095757 0.455827,-0.2127948 0.111579,-0.1170373 0.497706,-0.2662676 0.858058,-0.331628 1.029781,-0.1867797 43.650516,-0.2597457 43.826619,-0.075048 0.08162,0.085602 0.433593,0.1556357 0.782187,0.1556357 0.348583,0 0.633794,0.064138 0.633794,0.142616 0,0.078405 0.215577,0.2192244 0.47904,0.3128576 0.504066,0.1791321 1.731911,1.2952014 1.731911,1.5742379 0,0.089808 0.128952,0.3352388 0.286554,0.5453974 0.157612,0.2101669 0.250651,0.4802708 0.206769,0.6002296 -0.04388,0.1199673 0.04802,0.4459966 0.204207,0.7245036 0.266237,0.474706 0.282892,0.831401 0.266237,5.699493 l -0.01776,5.193099 -0.362454,0.480076 c -0.491799,0.651413 -0.878707,0.624685 -1.433162,-0.09901 L 80.31014,20.866293 80.32972,15.261961 80.3493,9.657629 79.521889,8.8236341 78.694479,7.989632 56.461511,7.9904712 c -20.898165,8.393e-4 -22.255722,0.017204 -22.611866,0.2705571 -0.39981,0.284418 -0.832427,0.7174946 -1.143342,1.1445445 -0.143308,0.1968367 -0.184409,1.5572982 -0.176506,5.8425952 l 0.01029,5.586017 -0.482346,0.609368 c -0.594622,0.75121 -0.953112,0.771129 -1.477272,0.08209 z m 18.571949,-0.364588 -0.700133,-0.04712 v -0.745623 c 0,-0.478193 0.08027,-0.815502 0.223814,-0.940457 0.123098,-0.107157 0.327603,-0.446145 0.454455,-0.753303 0.126852,-0.307159 0.291873,-0.662828 0.36671,-0.790377 0.07484,-0.127549 0.173596,-0.336265 0.219463,-0.463815 0.04587,-0.127549 0.143131,-0.336266 0.216141,-0.463813 0.139291,-0.243343 1.211085,-2.538032 1.372031,-2.937497 0.05139,-0.127548 0.155769,-0.336263 0.231951,-0.463811 0.07619,-0.127546 0.259007,-0.525795 0.406277,-0.88499 l 0.267767,-0.653084 1.289719,-0.0042 c 1.164767,-0.0034 1.289718,0.02418 1.289718,0.286289 0,0.159657 0.09949,0.376892 0.221095,0.482748 0.121602,0.105857 0.221095,0.325274 0.221095,0.487601 0,0.162318 0.09949,0.33517 0.221094,0.384119 0.121603,0.04894 0.222296,0.2033 0.223765,0.343012 0.0016,0.139703 0.200454,0.630383 0.44219,1.090391 0.241735,0.460006 0.439519,0.953625 0.439519,1.096924 0,0.1433 0.132656,0.386471 0.294792,0.540378 0.162136,0.153906 0.294794,0.442978 0.294794,0.642381 0,0.199402 0.06632,0.36255 0.147396,0.36255 0.08106,0 0.147396,0.0993 0.147396,0.220673 0,0.12137 0.232149,0.687838 0.515887,1.258817 0.283738,0.570978 0.515888,1.240289 0.515888,1.487357 v 0.449213 l -0.914872,-0.04602 c -0.88327,-0.04444 -0.928847,-0.06739 -1.319427,-0.664449 -0.222504,-0.340131 -0.446202,-0.809743 -0.497106,-1.043583 l -0.09255,-0.425163 h -2.115009 c -2.402924,0 -2.349779,-0.02361 -2.951966,1.311558 -0.204159,0.45266 -0.452324,0.847137 -0.55148,0.876615 -0.09916,0.02948 -0.495341,0.03239 -0.880415,0.0065 z m 5.61455,-4.266778 c 0.0295,-0.161796 -0.05266,-0.356577 -0.182588,-0.432846 -0.129931,-0.07628 -0.236238,-0.301702 -0.236238,-0.500962 0,-0.199255 -0.09949,-0.402337 -0.221095,-0.451278 -0.126414,-0.05087 -0.221094,-0.281587 -0.221094,-0.53873 0,-0.247356 -0.09865,-0.535609 -0.219219,-0.640567 -0.333132,-0.29 -0.66516,-0.07119 -0.66516,0.4384 0,0.247354 -0.09949,0.536347 -0.221095,0.642203 -0.121601,0.105855 -0.221094,0.301215 -0.221094,0.434126 0,0.13292 -0.141048,0.399147 -0.31344,0.591625 -0.182303,0.203541 -0.275814,0.45281 -0.223506,0.595788 0.07455,0.203777 0.310689,0.238182 1.380406,0.201123 1.132774,-0.03925 1.297026,-0.08066 1.344123,-0.338882 z m 11.600067,3.794898 c -0.327621,-0.28545 -0.704975,-0.737669 -0.838567,-1.004932 -0.299839,-0.59986 -1.252853,-1.528148 -1.501164,-1.462219 -0.181237,0.04812 -1.472899,1.520972 -2.136306,2.435973 -0.328205,0.452676 -0.389601,0.472878 -1.437115,0.472878 -0.958356,0 -1.094262,-0.03481 -1.094262,-0.280284 0,-0.154157 0.198985,-0.480248 0.442189,-0.724647 0.243204,-0.244401 0.442189,-0.529258 0.442189,-0.633018 0,-0.103761 0.326279,-0.496354 0.725066,-0.872433 1.017724,-0.95977 1.687187,-2.036024 1.570306,-2.524485 -0.05056,-0.211301 -0.450365,-0.782444 -0.888459,-1.269221 -1.021938,-1.135495 -1.849102,-2.292756 -1.849102,-2.587029 0,-0.18364 0.222579,-0.230575 1.093452,-0.230575 h 1.093451 l 0.334579,0.579773 c 0.43585,0.755253 1.673628,2.048516 1.960635,2.048516 0.123303,0 0.302734,-0.156542 0.39873,-0.347864 0.09604,-0.191321 0.420823,-0.571177 0.721832,-0.844118 0.30102,-0.272942 0.630829,-0.707765 0.732918,-0.966277 0.183063,-0.463574 0.200545,-0.47003 1.2732,-0.47003 0.851772,0 1.087595,0.0486 1.087595,0.224161 0,0.368489 -0.866027,1.601051 -1.864213,2.653229 -1.293164,1.3631 -1.265907,1.737394 0.242853,3.334989 1.10539,1.170474 2.063548,2.400198 2.063548,2.648405 0,0.181172 -0.224958,0.246318 -0.988846,0.286368 -0.938215,0.04919 -1.019341,0.02527 -1.584509,-0.46716 z M 43.440852,17.516784 c 0,-2.708868 -0.04615,-3.651615 -0.184245,-3.763322 -0.10133,-0.08193 -0.797153,-0.136479 -1.546262,-0.121125 -1.273872,0.02611 -1.376416,0.005 -1.584511,-0.32827 -0.122373,-0.195897 -0.222496,-0.567341 -0.222496,-0.825433 v -0.469258 h 4.716686 4.716685 v 0.529901 c 0,0.392968 -0.104732,0.61733 -0.405339,0.868261 -0.367709,0.306956 -0.523341,0.330579 -1.676362,0.25444 -0.846916,-0.05591 -1.326445,-0.02577 -1.437116,0.09028 -0.113689,0.119254 -0.166093,1.310791 -0.166093,3.776513 v 3.602293 h -1.105473 -1.105474 z m 27.373814,-0.907867 0.03177,-4.522235 h 0.852599 0.8526 l 0.03904,4.522194 0.03904,4.522192 -0.923456,4e-5 -0.923446,4.1e-5 z"
       id="path1462" /></g></svg>
