<?xml version="1.0" encoding="UTF-8" standalone="no"?>
<!-- Created with Inkscape (http://www.inkscape.org/) -->

<svg
   width="420"
   height="420"
   viewBox="0 0 111.125 111.125"
   version="1.1"
   id="svg5"
   xml:space="preserve"
   inkscape:version="1.2.1 (9c6d41e410, 2022-07-14)"
   sodipodi:docname="FERRY VALETA.svg"
   xmlns:inkscape="http://www.inkscape.org/namespaces/inkscape"
   xmlns:sodipodi="http://sodipodi.sourceforge.net/DTD/sodipodi-0.dtd"
   xmlns="http://www.w3.org/2000/svg"
   xmlns:svg="http://www.w3.org/2000/svg"><sodipodi:namedview
     id="namedview7"
     pagecolor="#ffffff"
     bordercolor="#000000"
     borderopacity="0.25"
     inkscape:showpageshadow="2"
     inkscape:pageopacity="0.0"
     inkscape:pagecheckerboard="0"
     inkscape:deskcolor="#d1d1d1"
     inkscape:document-units="mm"
     showgrid="false"
     inkscape:zoom="0.63234634"
     inkscape:cx="148.65271"
     inkscape:cy="45.070238"
     inkscape:window-width="1280"
     inkscape:window-height="748"
     inkscape:window-x="-8"
     inkscape:window-y="-8"
     inkscape:window-maximized="1"
     inkscape:current-layer="layer1" /><defs
     id="defs2" /><g
     inkscape:label="Capa 1"
     inkscape:groupmode="layer"
     id="layer1"
     transform="translate(-0.55330471,-0.87143375)"><path
       style="fill:#0f74ac;stroke-width:0.158613;fill-opacity:1"
       d="m 47.86944,87.756705 c -0.469696,-0.112479 -1.238321,-0.207867 -1.708027,-0.211974 -0.554278,-0.0044 -1.033867,-0.110153 -1.366432,-0.299985 -0.281828,-0.160891 -0.876161,-0.334544 -1.320751,-0.385905 -0.44458,-0.05141 -0.895949,-0.184401 -1.003034,-0.295668 -0.107084,-0.111267 -0.40551,-0.202305 -0.663156,-0.202305 -0.257655,0 -0.663889,-0.132562 -0.902746,-0.294589 -0.238856,-0.162014 -0.618841,-0.294577 -0.844414,-0.294577 -0.225563,0 -0.559314,-0.09736 -0.741673,-0.216258 -0.18235,-0.118944 -0.489557,-0.21836 -0.682671,-0.220941 -0.193123,-0.0023 -0.61158,-0.170383 -0.929908,-0.37291 -0.318327,-0.202526 -0.746593,-0.368235 -0.951688,-0.368235 -0.205105,0 -0.468594,-0.09937 -0.585541,-0.220931 -0.116947,-0.121514 -0.414596,-0.222421 -0.661425,-0.224213 -0.24685,-0.0011 -0.640956,-0.132896 -0.875805,-0.291306 -0.234858,-0.158422 -0.600229,-0.289515 -0.811944,-0.291318 -0.211704,-0.0011 -0.671738,-0.135834 -1.022294,-0.297861 -0.350547,-0.162014 -0.863027,-0.294577 -1.138854,-0.294577 -0.275817,0 -0.641271,-0.109041 -0.812112,-0.242416 -0.170851,-0.13333 -0.714931,-0.274283 -1.209082,-0.313215 -0.494142,-0.03895 -1.006194,-0.145269 -1.137887,-0.236285 -0.131689,-0.09102 -0.785015,-0.212252 -1.45183,-0.269421 -0.666816,-0.05719 -1.8468,-0.18261 -2.62219,-0.278766 -1.08934,-0.135088 -1.807597,-0.1349 -3.159867,8.33e-4 -0.962538,0.09657 -2.518685,0.2221 -3.458106,0.278868 -0.939419,0.05675 -1.875922,0.186004 -2.081115,0.287212 -0.205194,0.101248 -0.743226,0.184458 -1.195626,0.184992 -0.533381,4.23e-4 -1.002684,0.10381 -1.334958,0.29362 -0.281826,0.160948 -0.704564,0.29332 -0.939419,0.294167 -0.234855,8.34e-4 -0.678667,0.133831 -0.98625,0.295545 -0.307581,0.16167 -0.70074,0.293988 -0.873684,0.293988 -0.172945,0 -0.5098726,0.132563 -0.7487284,0.294577 -0.2388557,0.162027 -0.5148235,0.29459 -0.6132615,0.29459 -0.2466162,0 -1.391821,0.682563 -1.6438151,0.979745 -0.2679115,0.315963 -0.5105599,0.01636 -0.2841195,-0.350712 0.1389354,-0.22527 0.4593172,-1.275557 0.7759776,-2.543828 0.050568,-0.202527 0.2158987,-0.799059 0.3674059,-1.325638 0.3074071,-1.068402 0.5222671,-1.903245 0.7297267,-2.835368 0.1862816,-0.836967 0.4895521,-1.28881 0.8650341,-1.28881 0.1700192,0 0.4482422,-0.132562 0.6182762,-0.294577 0.170032,-0.162026 0.51591,-0.294589 0.768616,-0.294589 0.252706,0 0.598584,-0.132562 0.768616,-0.294588 0.183412,-0.174767 0.526069,-0.294578 0.842486,-0.294578 0.293334,0 0.708184,-0.105591 0.921885,-0.234684 0.213703,-0.12908 0.788052,-0.28878 1.276332,-0.354884 0.488279,-0.06609 1.195228,-0.217892 1.570996,-0.337315 1.586109,-0.504103 10.297451,-0.427207 11.737265,0.103589 0.349268,0.128759 0.925728,0.23455 1.281022,0.235084 0.357072,4.22e-4 0.875196,0.131862 1.158419,0.29361 0.297167,0.169714 0.801391,0.293053 1.200365,0.29362 0.475592,8.35e-4 0.778246,0.09191 0.980445,0.295547 0.169319,0.170527 0.503866,0.294588 0.794381,0.294588 0.276037,0 0.611623,0.09458 0.745743,0.210294 0.134122,0.115661 0.523916,0.255601 0.866216,0.310978 0.342301,0.05541 0.622356,0.15693 0.622356,0.22567 0,0.06877 0.30836,0.204652 0.685251,0.302034 0.376879,0.09736 0.770597,0.265737 0.874922,0.374143 0.10439,0.108374 0.341094,0.197097 0.526151,0.197097 0.185046,0 0.531878,0.132563 0.770734,0.294579 0.238856,0.162025 0.623163,0.294588 0.854024,0.294588 0.230851,0 0.615159,0.132563 0.854014,0.294578 0.238856,0.162026 0.607679,0.294589 0.819603,0.294589 0.211925,0 0.720376,0.131105 1.129894,0.291351 0.409507,0.160246 0.941239,0.292809 1.181627,0.294589 0.240387,0.0023 0.586265,0.100593 0.768624,0.219483 0.18405,0.120058 0.71148,0.219463 1.185561,0.223468 0.469718,0.0044 1.430492,0.137492 2.135057,0.296737 1.654364,0.373921 5.322706,0.405743 7.088405,0.06153 0.657564,-0.128202 1.788391,-0.2782 2.512964,-0.333321 0.724573,-0.05508 1.412477,-0.18221 1.5287,-0.282427 0.116202,-0.100246 0.522572,-0.182454 0.90304,-0.182755 0.389679,-3.01e-4 0.935973,-0.128958 1.250995,-0.294589 0.307585,-0.161715 0.788244,-0.294033 1.068143,-0.294033 0.279897,0 0.795713,-0.132563 1.14627,-0.294589 0.350546,-0.162015 0.837962,-0.294577 1.083123,-0.294577 0.245183,0 0.584892,-0.132563 0.754924,-0.29459 0.172834,-0.164684 0.526066,-0.294577 0.801096,-0.294577 0.270571,0 0.662181,-0.09202 0.870244,-0.204407 0.208064,-0.112424 0.681831,-0.25046 1.052793,-0.306751 0.370973,-0.05631 0.830032,-0.196296 1.020133,-0.311122 0.190093,-0.114816 0.578324,-0.210216 0.862733,-0.212008 0.284409,-0.0011 0.852168,-0.134332 1.261675,-0.294577 0.409518,-0.160246 0.985985,-0.29371 1.281032,-0.296592 0.295048,-0.0033 0.99763,-0.115328 1.561276,-0.249849 0.739018,-0.17639 1.924454,-0.258839 4.250641,-0.295635 2.88188,-0.04563 3.340959,-0.01892 4.305803,0.24985 0.593998,0.165474 1.311866,0.300875 1.595258,0.300875 0.283402,0 0.766925,0.132317 1.074509,0.294032 0.307586,0.161726 0.799628,0.294289 1.093448,0.294589 0.293798,2.89e-4 0.624894,0.09479 0.735745,0.20997 0.110851,0.115183 0.500143,0.252932 0.865093,0.306094 0.364951,0.05319 0.754252,0.190922 0.865104,0.306106 0.110851,0.115182 0.410808,0.209425 0.666575,0.209425 0.255759,0 0.604143,0.132563 0.774176,0.294577 0.170033,0.162027 0.479023,0.29459 0.686646,0.29459 0.207634,0 0.572931,0.132562 0.811786,0.294577 0.238857,0.162026 0.635953,0.294589 0.882415,0.294589 0.661886,0 0.688472,0.302545 0.118311,1.346101 -0.281556,0.515308 -0.794194,1.500316 -1.1392,2.188909 -1.413757,2.821704 -1.398524,2.79855 -1.839893,2.79855 -0.227379,0 -0.614749,-0.136568 -0.860803,-0.303478 -0.246063,-0.166901 -0.716367,-0.34111 -1.045123,-0.387119 -0.328756,-0.04595 -0.68524,-0.174566 -0.79219,-0.285687 -0.106948,-0.111155 -0.397547,-0.202049 -0.645782,-0.202049 -0.248225,0 -0.738138,-0.132562 -1.088684,-0.294589 -0.350557,-0.162015 -0.905107,-0.294578 -1.232341,-0.294578 -0.327235,0 -0.923194,-0.115995 -1.32435,-0.25776 -1.066024,-0.376747 -8.716952,-0.371051 -9.846143,0.0078 -0.41106,0.137748 -1.064385,0.250873 -1.45183,0.251407 -0.415436,4.23e-4 -0.914654,0.121035 -1.216846,0.29362 -0.281828,0.160948 -0.791234,0.293077 -1.132013,0.293611 -0.341146,4.11e-4 -0.715151,0.100246 -0.832234,0.221909 -0.116947,0.121514 -0.457295,0.22093 -0.75634,0.22093 -0.31176,0 -0.790636,0.157098 -1.122497,0.368237 -0.318328,0.202527 -0.813644,0.370339 -1.100708,0.372909 -0.287063,0.0023 -0.671129,0.102026 -0.853478,0.220942 -0.18235,0.118943 -0.566658,0.21669 -0.854014,0.217224 -0.287358,4.12e-4 -0.753057,0.132663 -1.034875,0.293611 -0.281838,0.160958 -0.745114,0.293086 -1.029523,0.29362 -0.284409,4.12e-4 -0.668716,0.09046 -0.854025,0.199935 -0.185297,0.109375 -0.716221,0.242405 -1.179832,0.295501 -0.4636,0.05307 -1.040067,0.211083 -1.281021,0.35109 -0.249452,0.144947 -0.952958,0.295946 -1.633739,0.350656 -0.657585,0.05286 -1.50307,0.168291 -1.878837,0.256535 -0.991566,0.232848 -5.616264,0.193326 -6.661347,-0.05686 z M 95.324622,72.757486 c -0.26629,-0.191979 -0.650167,-0.393839 -0.853049,-0.448559 -0.202891,-0.05474 -0.4621,-0.196363 -0.576036,-0.314739 -0.113925,-0.118377 -0.370668,-0.216714 -0.570528,-0.218505 -0.19987,-0.0011 -0.555546,-0.132897 -0.790405,-0.291318 -0.234859,-0.15841 -0.544416,-0.289503 -0.687916,-0.291307 -0.14349,-0.0011 -0.412508,-0.0928 -0.597816,-0.202237 -0.185298,-0.109486 -0.561433,-0.2461 -0.835844,-0.303713 -0.274411,-0.05764 -0.688293,-0.233204 -0.919752,-0.3902 -0.231449,-0.157008 -0.626342,-0.285466 -0.877546,-0.285466 -0.251204,0 -0.605936,-0.09736 -0.788286,-0.216245 -0.18235,-0.118944 -0.523706,-0.220441 -0.758564,-0.225549 -0.234849,-0.0055 -0.811315,-0.172317 -1.281022,-0.371573 -0.469717,-0.199245 -1.126882,-0.362873 -1.46037,-0.363619 -0.333497,-8.34e-4 -0.679375,-0.06387 -0.768625,-0.140373 -0.08928,-0.07644 -0.854014,-0.211762 -1.699489,-0.300642 -0.845484,-0.0889 -1.806248,-0.224803 -2.135045,-0.302032 -1.133314,-0.266183 -2.788907,-0.151601 -6.661346,0.461021 -0.516677,0.08178 -1.323721,0.198844 -1.793438,0.260229 -0.469706,0.06141 -1.177619,0.256803 -1.57313,0.434262 -0.395513,0.177459 -0.975809,0.32265 -1.289562,0.32265 -0.313754,0 -0.65599,0.07377 -0.760536,0.163907 -0.104494,0.09013 -0.556009,0.222866 -1.003253,0.294922 -0.447256,0.0721 -0.947586,0.235896 -1.111859,0.364097 -0.164274,0.12819 -0.631305,0.270299 -1.037844,0.315785 -0.406548,0.04551 -0.890786,0.172429 -1.076083,0.282094 -0.185308,0.109708 -0.569616,0.199844 -0.854025,0.200378 -0.284409,4.24e-4 -0.747685,0.132665 -1.029513,0.293611 -0.281829,0.160959 -0.742995,0.293487 -1.024823,0.294522 -0.281828,8.35e-4 -0.709937,0.09079 -0.951363,0.199424 -0.241437,0.108595 -0.828247,0.242069 -1.30405,0.296491 -0.475792,0.05441 -1.123746,0.213687 -1.43988,0.353904 -0.490354,0.217482 -1.196976,0.261409 -4.80987,0.298995 -3.863239,0.04017 -4.320629,0.01835 -5.209506,-0.248479 -0.535948,-0.160892 -1.35084,-0.33884 -1.810874,-0.395441 -0.460044,-0.05663 -1.036511,-0.192925 -1.281032,-0.302956 -0.244531,-0.110043 -0.675179,-0.200902 -0.957007,-0.201938 -0.281818,-8.35e-4 -0.742995,-0.133563 -1.024823,-0.294522 -0.281818,-0.160946 -0.670657,-0.293077 -0.864065,-0.293611 -0.193418,-4.11e-4 -0.500866,-0.09824 -0.683216,-0.217224 -0.18236,-0.118934 -0.45462,-0.218361 -0.605024,-0.220941 -0.150403,-0.0023 -0.63486,-0.170383 -1.076555,-0.37291 -0.441706,-0.202527 -0.943348,-0.368237 -1.114755,-0.368237 -0.171407,0 -0.407336,-0.09937 -0.524282,-0.220929 -0.116958,-0.121514 -0.376166,-0.223012 -0.576026,-0.225538 -0.19987,-0.0023 -0.670846,-0.167889 -1.046614,-0.367478 -0.375767,-0.199579 -0.836934,-0.365322 -1.024823,-0.368315 -0.187879,-0.0033 -0.490805,-0.102812 -0.673154,-0.221697 -0.18235,-0.118934 -0.528239,-0.217727 -0.768616,-0.219529 -0.240387,-0.0011 -0.629227,-0.132886 -0.864075,-0.291307 -0.234859,-0.158421 -0.660261,-0.289503 -0.945341,-0.291307 -0.285081,-0.0011 -0.955706,-0.135834 -1.49027,-0.29786 -0.534558,-0.162026 -1.266663,-0.294589 -1.626894,-0.294589 -0.360226,0 -1.284265,-0.137224 -2.053409,-0.304947 -1.202765,-0.262288 -1.762995,-0.295613 -4.003704,-0.23811 -1.43289,0.03683 -2.989564,0.141142 -3.459275,0.231922 -0.46971,0.09079 -1.405172,0.232281 -2.078804,0.314428 -0.673632,0.08212 -1.442249,0.247168 -1.708037,0.366713 -0.265787,0.119545 -0.713835,0.218193 -0.995661,0.219228 -0.281825,8.35e-4 -0.742996,0.133576 -1.024822,0.294522 -0.281826,0.160959 -0.714369,0.293087 -0.961207,0.293621 -0.246837,4.11e-4 -0.54448,0.100358 -0.661428,0.221898 -0.116946,0.121525 -0.326399,0.220942 -0.46545,0.220942 -0.139051,0 -0.610025,0.161992 -1.0466096,0.35998 -0.4365835,0.197977 -0.9090819,0.397555 -1.0499951,0.443497 -0.140912,0.04595 -0.4867897,0.213342 -0.7686158,0.372007 -0.2818262,0.158655 -0.742996,0.398901 -1.0248222,0.533857 -0.2818261,0.134955 -0.5738761,0.335813 -0.6490012,0.446355 -0.075128,0.1106 -0.2057788,0.200982 -0.290343,0.200982 -0.251396,0 -1.6543369,0.861079 -2.1688467,1.331156 -0.2626669,0.239992 -0.5354716,0.436344 -0.6062345,0.436344 -0.1806793,0 -0.1603597,-0.542625 0.031789,-0.84893 0.088242,-0.140663 0.3607019,-1.017998 0.6054591,-1.94962 0.2447561,-0.931623 0.6295041,-2.356666 0.854994,-3.166775 0.2254909,-0.810108 0.5733399,-2.102601 0.7729991,-2.872197 0.1996582,-0.769606 0.5459786,-2.062089 0.7695999,-2.872196 0.3935587,-1.425734 0.9256835,-3.368723 1.633712,-5.965325 0.7212413,-2.645057 0.868253,-3.182897 1.0065096,-3.682304 0.078496,-0.28354 0.3061671,-1.145199 0.5059385,-1.914795 0.3099167,-1.193933 0.7264964,-2.639739 0.968788,-3.362337 0.052457,-0.15644 0.8230499,-0.188073 3.8519999,-0.158165 l 3.786431,0.03738 0.207659,-0.651943 c 0.114212,-0.358567 0.41221,-1.414184 0.662219,-2.345795 0.25001,-0.931622 0.647449,-2.389824 0.8832,-3.240434 0.39857,-1.438073 0.52467,-1.907705 0.929411,-3.461363 0.707751,-2.716801 1.274566,-4.422004 1.767321,-5.316774 0.56911,-1.03342 1.67602,-2.268766 2.032895,-2.268766 0.0991,0 0.328773,-0.115995 0.51039,-0.257759 0.305475,-0.238467 1.182986,-0.263302 11.713502,-0.331431 l 11.383288,-0.07366 0.0854,-2.724914 0.0854,-2.724902 6.508425,-0.0385 6.508403,-0.03851 0.768437,-1.434368 c 0.422622,-0.788901 0.864222,-1.646363 0.981326,-1.905481 0.297975,-0.659387 0.124605,-1.867639 -0.587608,-4.094936 -0.155419,-0.486068 -0.324727,-1.068436 -0.376229,-1.29415 l -0.09369,-0.410407 1.751787,0.04217 1.751777,0.04217 0.464188,1.399275 c 0.255307,0.769607 0.558443,1.763828 0.673637,2.209382 0.115185,0.445556 0.309053,1.108369 0.430816,1.472923 0.412413,1.234734 0.594941,1.838399 0.879591,2.909015 l 0.283916,1.067867 h 2.45906 c 2.393929,0 2.462847,0.009 2.601962,0.331407 0.136859,0.317399 0.100506,0.333265 -0.859522,0.375268 -0.551329,0.02415 -1.002424,0.106927 -1.002424,0.184113 0,0.0771 0.0769,0.140262 0.170808,0.140262 0.281126,0 0.197689,0.247802 -0.320887,0.952953 l -0.491696,0.668588 -0.525205,-0.69625 c -0.486735,-0.645256 -0.505085,-0.715431 -0.25045,-0.95807 0.260479,-0.248202 0.219846,-0.26181 -0.781792,-0.26181 h -1.056538 l 0.627108,0.846937 c 0.344912,0.465807 0.808439,1.077727 1.030069,1.359821 0.325587,0.4144 0.402961,0.705184 0.402961,1.514356 0,0.754332 -0.06327,1.022406 -0.256209,1.086261 -0.56098,0.185637 -0.202556,0.347853 0.768626,0.347853 0.971181,0 1.329606,-0.162216 0.768614,-0.347853 -0.192735,-0.06375 -0.256208,-0.331173 -0.256208,-1.079451 0,-0.969574 0.02476,-1.02582 0.982124,-2.229232 l 0.982113,-1.234556 0.047,2.298251 0.0471,2.298252 5.931087,0.0033 c 5.623524,0.0033 5.953234,0.01824 6.358105,0.291306 0.234848,0.158421 0.518869,0.289504 0.631126,0.291307 0.283916,0.0044 1.756246,1.586993 2.058701,2.212666 0.137058,0.283528 0.579687,1.112051 0.983602,1.841146 0.403916,0.729096 1.156364,2.121005 1.672086,3.093127 0.928019,1.749297 2.025076,3.766467 3.444571,6.333561 0.40315,0.729095 1.024718,1.87456 1.381256,2.545474 l 0.648247,1.219835 6.950907,-0.04149 6.95092,-0.0415 -0.21922,0.51552 c -0.12057,0.28354 -0.65593,1.344041 -1.18968,2.356677 -0.53376,1.012635 -1.18683,2.271982 -1.45127,2.798549 -2.0487,4.079548 -3.12476,6.17594 -3.6668,7.143668 -0.22687,0.405055 -1.17701,2.227787 -2.11141,4.050531 -1.851261,3.611271 -4.318788,8.399499 -4.835747,9.383771 -0.42365,0.806604 -0.534029,0.849486 -1.112709,0.432292 z M 53.372157,71.243418 c 0.81443,-0.268219 0.88703,-0.407791 0.39868,-0.766481 -0.252285,-0.185303 -2.39992,-4.347322 -2.39992,-4.650934 0,-0.03149 0.229477,-0.126188 0.509962,-0.210505 0.40593,-0.122037 0.56436,-0.106372 0.776746,0.07677 0.146742,0.126532 0.3092,0.193503 0.361027,0.148809 0.07942,-0.06854 -0.08194,-1.279442 -0.170463,-1.279442 -0.01647,0 -0.950251,0.331408 -2.075078,0.736461 -1.124826,0.405054 -2.142232,0.736461 -2.260899,0.736461 -0.294953,0 -0.273235,0.105926 0.139786,0.682252 0.417922,0.583146 0.669283,0.636566 0.669283,0.142265 0,-0.260552 0.134803,-0.394349 0.511347,-0.507541 0.613563,-0.184446 0.488592,-0.351301 1.789808,2.38978 0.659096,1.388436 0.937651,2.156052 0.868534,2.393495 -0.120786,0.415023 -0.06872,0.421443 0.881187,0.108596 z m 3.631832,-1.321612 c 0.770272,-0.265781 0.825015,-0.35416 0.370847,-0.598746 -0.173695,-0.09358 -0.49305,-0.54664 -0.709655,-1.006871 -0.315904,-0.671181 -0.349171,-0.860579 -0.168154,-0.957058 0.306755,-0.163484 0.781918,0.01202 1.960774,0.72411 1.017921,0.614903 1.682095,0.743839 2.318549,0.450106 0.512785,-0.236664 0.412415,-0.583992 -0.168773,-0.583992 -0.316817,0 -0.952254,-0.265694 -1.739649,-0.727426 l -1.240503,-0.727427 0.04333,-0.806904 c 0.07018,-1.306656 -0.64828,-2.156998 -1.822489,-2.156998 -0.459195,0 -2.299477,0.585105 -2.580014,0.8203 -0.03682,0.03081 0.09967,0.173731 0.303115,0.317532 0.490836,0.346817 2.634569,4.820983 2.493524,5.204196 -0.128184,0.348286 0.04585,0.357398 0.939087,0.04919 z m -1.6585,-4.398504 c -0.526642,-1.088029 -0.530272,-1.111617 -0.194509,-1.266578 0.492284,-0.227195 1.126463,0.176258 1.537923,0.978399 0.257005,0.501033 0.290871,0.716087 0.148819,0.944985 -0.101136,0.162983 -0.251771,0.296325 -0.334736,0.296325 -0.08298,0 -0.256576,0.03505 -0.385839,0.07778 -0.163192,0.05396 -0.399038,-0.261086 -0.771658,-1.030904 z m 7.780056,2.257718 c 0.72152,-0.254611 1.367974,-0.505161 1.436566,-0.556777 0.146081,-0.109932 -0.169446,-1.191184 -0.346245,-1.1865 -0.0661,0.0023 -0.235362,0.21717 -0.376271,0.478701 -0.183588,0.340731 -0.38991,0.48877 -0.727888,0.522284 -0.432315,0.04283 -0.514284,-0.03516 -0.982218,-0.934493 -0.28081,-0.539698 -0.472801,-1.033942 -0.426661,-1.098332 0.158891,-0.221698 0.970898,-0.311735 1.217812,-0.135033 0.376501,0.269454 0.45036,0.07198 0.220537,-0.589478 -0.225825,-0.649973 -0.343023,-0.72025 -0.657018,-0.393995 -0.110904,0.115228 -0.420534,0.275317 -0.688084,0.355741 -0.476462,0.143234 -0.495651,0.127935 -0.934703,-0.745083 -0.246546,-0.490229 -0.426713,-0.902026 -0.400358,-0.915089 0.684484,-0.339518 1.052457,-0.373153 1.376061,-0.125776 0.340486,0.260274 0.34335,0.255968 0.248424,-0.374856 -0.05288,-0.350978 -0.127889,-0.665628 -0.166812,-0.699198 -0.116747,-0.100696 -3.095022,1.057453 -3.161463,1.229372 -0.03378,0.08734 0.104284,0.180596 0.306735,0.207088 0.299768,0.03927 0.582719,0.49054 1.523181,2.429502 0.744673,1.535264 1.10376,2.451042 1.010733,2.577608 -0.40167,0.546406 -0.126966,0.538195 1.527672,-0.04573 z m 3.281684,-1.233433 c 0.719778,-0.320969 1.074395,-0.997225 0.977749,-1.864534 -0.101347,-0.90966 -0.4245,-1.212438 -1.97242,-1.848102 -1.728329,-0.709756 -2.252192,-1.508405 -1.146396,-1.747738 0.303681,-0.06576 0.545873,-0.0138 0.776986,0.166543 0.437698,0.341587 0.553133,0.219995 0.411081,-0.433015 -0.09484,-0.435708 -0.189347,-0.530564 -0.528909,-0.530564 -0.618767,0 -1.546105,0.377394 -1.755197,0.714308 -0.301363,0.48559 -0.220999,1.415386 0.158283,1.831189 0.18856,0.206722 0.921893,0.622591 1.629626,0.924146 1.816215,0.773879 2.2199,1.369344 1.335177,1.96947 -0.574819,0.38991 -0.669556,0.384225 -1.198475,-0.07188 -0.554151,-0.477868 -0.680572,-0.369072 -0.425202,0.365955 0.25882,0.744928 0.845736,0.921998 1.737697,0.524231 z M 43.215388,64.52482 c -0.265871,-0.246033 -0.552137,-1.1071 -1.111282,-3.342642 -0.414229,-1.656178 -0.830913,-3.033577 -0.925954,-3.060905 -0.09505,-0.02725 -1.01109,1.123257 -2.035661,2.556824 -1.165596,1.630865 -2.043446,2.70128 -2.345292,2.859746 l -0.482432,0.253276 1.094233,0.164317 c 1.41061,0.211841 1.422224,0.210862 1.116035,-0.09347 -0.235362,-0.233915 -0.204926,-0.33697 0.328903,-1.113788 0.560047,-0.814969 0.614225,-0.851532 1.1296,-0.762286 1.212848,0.210004 1.163802,0.154705 1.402511,1.581484 0.0983,0.587298 0.0728,0.699643 -0.158556,0.699643 -0.151579,0 -0.275596,0.05908 -0.275596,0.131351 0,0.141231 1.304238,0.411886 2.12212,0.440403 l 0.499481,0.01736 z M 40.35408,61.476367 c -0.573297,-0.09447 -0.573884,-0.138616 -0.0128,-0.957859 l 0.398418,-0.581768 0.123662,0.775315 c 0.06799,0.426418 0.09652,0.791828 0.06347,0.812 -0.03315,0.02013 -0.29082,-0.0011 -0.572647,-0.04773 z m 32.277941,2.87273 c 1.429924,-0.371107 2.13877,-1.228459 1.559617,-1.886365 -0.325776,-0.370083 -0.415382,-0.328514 -0.723564,0.335701 -0.318087,0.685546 -0.651228,0.87945 -1.510887,0.87945 -1.416956,0 -2.84665,-1.190739 -3.086628,-2.570754 -0.291302,-1.675172 1.749206,-2.952386 3.028371,-1.895567 0.262502,0.21688 0.51782,0.359367 0.567359,0.316642 0.141644,-0.122149 -0.297439,-1.594704 -0.475508,-1.594704 -0.457139,0 -2.329376,0.504138 -2.801464,0.754354 -0.829716,0.439768 -1.315507,1.434757 -1.206523,2.471192 0.151746,1.44308 1.078318,2.692947 2.348554,3.167965 0.757044,0.283106 1.275755,0.288079 2.300673,0.02203 z M 35.656982,63.548636 c 0,-0.0711 -0.10334,-0.203217 -0.229645,-0.293621 -0.183514,-0.131327 -0.21313,-0.756322 -0.147413,-3.111163 0.05854,-2.09972 0.0278,-2.946812 -0.106927,-2.946812 -0.104074,0 -1.012025,0.896373 -2.017733,1.991946 -1.005717,1.095562 -1.883978,1.940652 -1.951699,1.877976 -0.06767,-0.06264 -0.47661,-1.168686 -0.908642,-2.457785 -0.432022,-1.289089 -0.82552,-2.37832 -0.874431,-2.4205 -0.200276,-0.172708 -0.437728,0.319278 -1.355589,2.808686 -0.660927,1.792556 -1.069667,2.675166 -1.304595,2.817065 -0.417648,0.252262 -0.243706,0.331272 1.056774,0.480047 0.859538,0.09835 0.871676,0.09435 0.676436,-0.22023 -0.162783,-0.262288 -0.113441,-0.546384 0.272267,-1.567732 0.259087,-0.686057 0.519244,-1.247385 0.578121,-1.247385 0.05886,0 0.392333,0.795376 0.740991,1.767511 0.348669,0.972124 0.701009,1.7675 0.782978,1.7675 0.08194,0 0.789524,-0.656872 1.572354,-1.459716 0.78282,-0.802831 1.431824,-1.449087 1.44222,-1.436092 0.01049,0.01301 0.06725,0.637389 0.126368,1.387558 0.09861,1.251915 0.07837,1.389038 -0.24664,1.669319 -0.194761,0.167946 -0.328483,0.323116 -0.297167,0.344826 0.04501,0.03116 1.031748,0.202593 2.063873,0.3585 0.0705,0.01112 0.128099,-0.03883 0.128099,-0.109931 z m 40.203406,-0.388242 c 0.661331,-0.238288 0.771846,-0.424993 0.367185,-0.620276 -0.138317,-0.06676 -0.755868,-1.177244 -1.372338,-2.467755 -0.838948,-1.756251 -1.094464,-2.449942 -1.015968,-2.75815 0.0577,-0.226471 0.06672,-0.411762 0.02004,-0.411762 -0.204412,0 -1.650367,0.587719 -1.650367,0.670803 0,0.05062 0.143048,0.202137 0.317886,0.336636 0.402437,0.309577 2.414975,4.537309 2.414975,5.073112 0,0.463257 0.08152,0.478991 0.918557,0.177392 z M 25.924954,61.532288 c 0.257083,-0.671747 0.139944,-0.761261 -0.490022,-0.374433 -0.643139,0.394918 -0.925931,0.390923 -1.469595,-0.0207 -0.437091,-0.330984 -0.437367,-0.332731 -0.212277,-1.362458 0.222,-1.015595 0.232889,-1.03037 0.727036,-0.986153 0.275912,0.02471 0.679727,0.21579 0.897361,0.424682 0.450233,0.432147 0.654566,0.341309 0.818074,-0.363697 0.103381,-0.445754 0.08059,-0.474194 -0.381108,-0.475719 -0.270083,-8.35e-4 -0.768176,-0.04117 -1.10687,-0.08945 l -0.615813,-0.0879 0.235731,-0.969775 c 0.129651,-0.533377 0.268675,-0.998193 0.308942,-1.032908 0.04029,-0.03472 0.349347,-0.01847 0.686846,0.03615 0.419755,0.06787 0.673783,0.213098 0.804,0.459553 0.259959,0.492009 0.397158,0.454167 0.696175,-0.192068 l 0.255582,-0.552337 -2.059761,-0.330951 c -1.132866,-0.18201 -2.098741,-0.297316 -2.146383,-0.256237 -0.04764,0.04105 0.04798,0.15959 0.212534,0.263347 0.282827,0.178337 0.270495,0.320035 -0.225975,2.596256 -0.288821,1.324192 -0.525128,2.462247 -0.525128,2.529006 0,0.06676 -0.162676,0.252074 -0.361504,0.411808 l -0.361501,0.290427 0.660407,0.101146 c 0.363226,0.05563 1.121579,0.185993 1.685228,0.289683 1.642408,0.302166 1.740656,0.286821 1.968021,-0.307262 z m 54.057325,0.166021 c 0.862019,-0.3106 1.277863,-0.993842 1.27864,-2.100809 4.83e-4,-0.744183 -0.140385,-1.210533 -0.759866,-2.51482 -0.508524,-1.070716 -0.725789,-1.71565 -0.655749,-1.946605 0.07848,-0.258784 0.04427,-0.325922 -0.136229,-0.267718 -0.132527,0.04272 -0.529183,0.166632 -0.88147,0.275362 -0.620153,0.191421 -0.888447,0.580399 -0.400318,0.580399 0.262388,0 1.651082,2.699255 1.98886,3.865816 0.173967,0.600827 0.162332,0.751772 -0.08288,1.074443 -0.649264,0.854493 -1.839977,0.756044 -2.582248,-0.213519 -0.222709,-0.290906 -0.745104,-1.229838 -1.160885,-2.086534 -0.56886,-1.17208 -0.714564,-1.621407 -0.588689,-1.815366 0.256481,-0.39523 0.08466,-0.416682 -0.779284,-0.09736 -0.853217,0.315385 -0.926226,0.402629 -0.548549,0.655514 0.134331,0.08991 0.560541,0.826343 0.947146,1.636451 0.923088,1.934277 1.399268,2.536206 2.278682,2.88052 0.862628,0.337727 1.307385,0.353571 2.082799,0.07422 z M 20.797067,61.056091 c 0,-0.06487 -0.08602,-0.192012 -0.191153,-0.282671 -0.311043,-0.268231 0.810193,-5.192625 1.259512,-5.531686 0.190557,-0.143791 0.316359,-0.28176 0.279566,-0.306585 -0.128407,-0.08668 -2.11715,-0.356231 -2.190556,-0.296947 -0.04071,0.03283 0.01695,0.138214 0.128103,0.234083 0.286839,0.247344 0.265312,0.449015 -0.338355,3.169622 -0.445541,2.007958 -0.595545,2.448216 -0.854019,2.506498 -0.562962,0.126955 -0.331039,0.305716 0.583174,0.449494 1.207432,0.189899 1.323728,0.195005 1.323728,0.0582 z M 18.12702,60.177188 c 0.207713,-0.628322 0.06109,-0.728908 -0.503861,-0.345683 -0.587438,0.398467 -0.971597,0.39336 -1.503774,-0.02002 l -0.426641,-0.331406 0.496068,-2.209383 c 0.272839,-1.215163 0.49897,-2.290118 0.502517,-2.388789 0.0036,-0.09869 0.21782,-0.275251 0.47616,-0.392391 l 0.46971,-0.212976 -0.427008,-0.07967 c -1.318864,-0.246099 -2.139169,-0.359435 -2.202997,-0.304403 -0.03976,0.03427 0.06131,0.189655 0.224599,0.345249 0.282794,0.269465 0.27193,0.39771 -0.228785,2.700701 -0.289122,1.32979 -0.525676,2.459656 -0.525676,2.510816 0,0.05118 -0.162675,0.2237 -0.3615,0.383435 l -0.361502,0.290438 0.660407,0.101146 c 0.363225,0.05563 1.121578,0.187383 1.685229,0.292786 1.522425,0.284675 1.83809,0.231757 2.027054,-0.33984 z m 66.746237,-0.196364 c 1.49303,-0.542735 2.090751,-0.990571 2.472447,-1.852452 0.363733,-0.821313 0.229098,-1.890716 -0.371267,-2.948892 -0.955822,-1.684717 -2.508232,-2.058783 -4.931076,-1.188181 -1.34141,0.482017 -1.748514,0.778709 -1.19858,0.87352 0.386279,0.06654 2.653411,4.776887 2.522689,5.241235 -0.121175,0.430402 0.0063,0.419797 1.505787,-0.12523 z m -0.593315,-0.832161 c -0.393456,-0.570029 -1.966755,-4.197158 -1.892718,-4.363522 0.05298,-0.119134 0.368351,-0.327902 0.700757,-0.463925 1.138601,-0.465928 2.299623,0.02715 3.026787,1.285537 0.519793,0.8995 0.55327,1.585135 0.117807,2.411965 -0.464524,0.881987 -1.650211,1.568112 -1.952633,1.129945 z m -71.341729,0.332242 c 0.689947,-0.307675 1.026709,-0.780835 1.026709,-1.442569 0,-0.660322 -0.1548,-0.940746 -1.071139,-1.94043 -0.844222,-0.921008 -1.035224,-1.332804 -0.796555,-1.717376 0.140776,-0.226838 0.324547,-0.283038 0.811341,-0.248123 0.523757,0.03761 0.670333,0.125453 0.873672,0.523843 0.302124,0.591936 0.425094,0.598924 0.693821,0.0395 0.309924,-0.645233 0.131591,-0.842186 -0.935545,-1.033218 -1.035237,-0.185338 -1.754239,-0.06476 -2.340065,0.392424 -0.481095,0.375457 -0.409902,1.356126 0.149092,2.053688 1.787567,2.230723 1.832965,2.327304 1.291648,2.747979 -0.164398,0.127767 -0.494386,0.27435 -0.733307,0.325743 -0.570647,0.12275 -1.359036,-0.394295 -1.359036,-0.891298 0,-0.453356 -0.436631,-0.473184 -0.5755603,-0.02615 -0.1910343,0.614724 -0.1095324,0.976385 0.2719573,1.206817 0.488416,0.295002 2.040155,0.300297 2.692967,0.009 z m 75.835254,-0.90058 c 0.759687,-0.262132 0.803466,-0.3187 0.431015,-0.556944 -0.151569,-0.09692 -0.299003,-0.525466 -0.362108,-1.052412 -0.102815,-0.858365 -0.09075,-0.895027 0.349098,-1.067869 0.702855,-0.276163 0.865313,-0.226783 1.519762,0.461956 0.430207,0.452743 0.580852,0.733846 0.513056,0.957392 -0.119558,0.394283 -0.02298,0.393827 1.093511,-0.0055 0.986131,-0.352469 1.099049,-0.486834 0.51571,-0.613722 -0.211367,-0.04595 -1.414176,-1.097086 -2.672904,-2.335816 -1.258727,-1.238717 -2.354009,-2.274317 -2.433953,-2.301322 -0.205651,-0.06943 -0.186096,0.433939 0.132988,3.423933 0.213068,1.996619 0.234229,2.703729 0.08697,2.907023 -0.364532,0.503359 -0.204382,0.538808 0.826821,0.183 z m -0.230495,-3.629486 c -0.05665,-0.182277 -0.104074,-0.489662 -0.105333,-0.683065 -0.0021,-0.323941 0.0384,-0.307418 0.514946,0.209649 0.389888,0.423067 0.463507,0.590735 0.298918,0.680805 -0.372987,0.204119 -0.601435,0.137247 -0.708531,-0.207389 z m 6.749306,1.34768 c 1.49304,-0.542735 2.090761,-0.990559 2.472457,-1.852452 0.363733,-0.821312 0.229088,-1.890716 -0.371267,-2.948892 -0.955832,-1.684717 -2.508243,-2.058774 -4.931087,-1.18818 -1.341409,0.482017 -1.748514,0.778719 -1.19858,0.873519 0.38628,0.06654 2.653412,4.776898 2.52269,5.241246 -0.121164,0.4304 0.0063,0.419787 1.505787,-0.125241 z m -0.593315,-0.832161 c -0.393457,-0.570029 -1.966756,-4.197158 -1.892718,-4.363523 0.05298,-0.119133 0.368361,-0.32789 0.700757,-0.463914 1.138612,-0.465938 2.299633,0.02715 3.026786,1.285527 0.519793,0.8995 0.553281,1.585135 0.117808,2.411977 -0.464514,0.881976 -1.6502,1.568099 -1.952633,1.129933 z m 5.975027,-1.122789 c 1.29439,-0.479802 1.33929,-0.513094 1.313,-0.973503 -0.0428,-0.750737 -0.33539,-0.862549 -0.6356,-0.242939 -0.19226,0.396809 -0.36064,0.534323 -0.65219,0.532643 -0.5791,-0.0033 -0.714901,-0.130559 -1.158936,-1.085881 -0.390676,-0.840529 -0.393288,-0.873374 -0.08487,-1.067869 0.376302,-0.237275 0.704206,-0.257849 0.850766,-0.05341 0.25687,0.358422 0.45962,0.12196 0.34732,-0.405054 -0.13467,-0.632004 -0.383,-0.930265 -0.56795,-0.68213 -0.128756,0.172753 -1.236376,0.699756 -1.301685,0.619354 -0.09463,-0.116562 -0.783544,-1.644184 -0.783544,-1.737547 0,-0.05719 0.202126,-0.183423 0.449165,-0.280492 0.368927,-0.144957 0.500981,-0.136023 0.739354,0.04995 0.45439,0.354617 0.567056,0.271144 0.439838,-0.325855 -0.142031,-0.666485 -0.33783,-0.872918 -0.638995,-0.673685 -0.121416,0.08033 -0.777742,0.339318 -1.458513,0.575559 -1.159678,0.402429 -1.622996,0.797759 -0.934954,0.797759 0.40381,0 2.650841,4.613703 2.492841,5.118396 -0.136659,0.43651 -4.82e-4,0.422302 1.584933,-0.165385 z M 45.809523,50.679366 c 0.833651,-1.559453 1.580517,-2.857464 1.659716,-2.884469 0.07921,-0.02704 0.144004,-0.10982 0.144004,-0.184113 0,-0.07433 -0.499607,-0.135021 -1.110223,-0.135021 -1.155975,0 -1.304049,0.0662 -0.824303,0.368759 0.260332,0.164151 0.203952,0.340052 -0.629773,1.964841 -0.503635,0.981503 -0.930926,1.769337 -0.949537,1.750733 -0.01857,-0.01858 -0.432631,-0.826498 -0.920036,-1.795361 -0.782999,-1.556416 -0.854895,-1.781285 -0.617413,-1.931029 0.461533,-0.291028 0.304237,-0.357943 -0.841446,-0.357943 -0.626279,0 -1.110223,0.06421 -1.110223,0.147296 0,0.08099 0.05928,0.147282 0.13175,0.147282 0.07249,0 0.817263,1.292492 1.655142,2.872197 0.837867,1.579703 1.607384,2.872196 1.710011,2.872196 0.102604,0 0.868691,-1.275913 1.702331,-2.835368 z m 1.462111,2.700358 c 0,-0.07432 -0.09316,-0.161815 -0.207108,-0.194561 -0.154935,-0.04451 -0.126609,-0.288825 0.112446,-0.969675 l 0.319555,-0.910136 h 0.803267 0.803268 l 0.370564,0.835043 c 0.254404,0.573288 0.31538,0.882631 0.194509,0.986854 -0.357303,0.30813 -0.148484,0.387485 1.019577,0.387485 0.657585,0 1.195622,-0.03627 1.195622,-0.08066 0,-0.0444 -0.183996,-0.22666 -0.408868,-0.405053 -0.236893,-0.187908 -0.937388,-1.422886 -1.665339,-2.935953 -0.691052,-1.436393 -1.333571,-2.612891 -1.427815,-2.614437 -0.09421,-0.0023 -0.716075,1.239963 -1.381864,2.758906 -0.915735,2.089181 -1.300357,2.797136 -1.579394,2.907123 -0.640422,0.25244 -0.404692,0.370127 0.741359,0.370127 0.610626,0 1.110221,-0.06075 1.110221,-0.135011 z m 0.512418,-2.741916 c 0,-0.04306 0.120608,-0.324797 0.268032,-0.625995 l 0.268042,-0.547608 0.244375,0.495614 c 0.339152,0.687848 0.314865,0.756366 -0.268043,0.756366 -0.281828,0 -0.512406,-0.03527 -0.512406,-0.07833 z m 8.809138,2.354543 c 0.152261,-0.699879 0.01815,-0.766492 -0.616459,-0.30605 -0.605811,0.439591 -0.669514,0.450428 -1.267099,0.215623 -0.518124,-0.203573 -0.480807,0.02448 -0.442209,-2.701259 0.02434,-1.71664 0.08571,-2.245856 0.275429,-2.372911 0.433375,-0.290282 0.266573,-0.351991 -0.951479,-0.351991 -1.239633,0 -1.436524,0.09403 -0.854024,0.407691 0.319009,0.171807 0.341607,0.343491 0.341607,2.59501 0,1.963451 -0.04753,2.445067 -0.256198,2.594398 -0.511756,0.366256 -0.220769,0.441872 1.700285,0.441872 h 1.956505 z m 4.513543,0.16621 c 0,-0.195909 0.04668,-0.461033 0.103654,-0.58918 0.15458,-0.347373 -0.395501,-0.293831 -0.615012,0.05987 -0.259995,0.418952 -0.90753,0.5173 -1.436816,0.218228 -0.405909,-0.229355 -0.443101,-0.33548 -0.443101,-1.264477 v -1.014103 h 0.5441 c 0.323291,0 0.704272,0.129758 0.938753,0.319723 0.463842,0.375769 0.486367,0.363329 0.636182,-0.351534 l 0.114713,-0.547342 -1.116875,0.08991 -1.116873,0.08989 V 49.117198 48.064852 H 59.2391 c 0.649339,0 1.184396,0.235227 1.184396,0.520703 0,0.445166 0.335471,0.193237 0.517054,-0.388275 0.103759,-0.33223 0.164347,-0.61666 0.134678,-0.632093 -0.02969,-0.01547 -0.976259,0.0078 -2.103561,0.05174 -1.782245,0.06932 -1.99951,0.104479 -1.66534,0.269041 0.373911,0.184168 0.384307,0.254423 0.384307,2.59639 0,1.959957 -0.04763,2.441173 -0.256208,2.59047 -0.511997,0.366435 -0.220381,0.441873 1.708039,0.441873 1.963607,0 1.964247,-1.11e-4 1.964247,-0.356175 z m 4.44089,0.224645 c 0,-0.07233 -0.115289,-0.169692 -0.256198,-0.216324 -0.213865,-0.07077 -0.256208,-0.499385 -0.256208,-2.593362 v -2.508591 h 0.596368 c 0.411386,0 0.662537,0.09135 0.809699,0.294589 0.263091,0.363285 0.642751,0.384927 0.645908,0.03683 0.001,-0.141764 0.04364,-0.390322 0.09411,-0.552338 0.08918,-0.285965 0.0084,-0.294588 -2.750602,-0.294588 h -2.842434 l 0.09347,0.496949 c 0.125854,0.668722 0.213068,0.71245 0.674928,0.338282 0.23447,-0.189954 0.615462,-0.319713 0.938741,-0.319713 h 0.544112 v 2.419799 c 0,1.954539 -0.04931,2.462282 -0.256209,2.640741 -0.140919,0.121514 -0.256208,0.258817 -0.256208,0.305104 0,0.04628 0.499596,0.08411 1.110223,0.08411 0.610626,0 1.110221,-0.05919 1.110221,-0.131528 z m 2.90366,-0.0033 c 0,-0.07422 -0.09316,-0.161816 -0.207108,-0.194561 -0.154937,-0.04451 -0.126599,-0.288826 0.112446,-0.969676 l 0.319555,-0.910125 h 0.803267 0.803279 l 0.370553,0.835032 c 0.254414,0.573289 0.31538,0.882632 0.194519,0.986866 -0.357314,0.308119 -0.148494,0.387485 1.019567,0.387485 0.657596,0 1.195622,-0.03627 1.195622,-0.08067 0,-0.0444 -0.183986,-0.226661 -0.408868,-0.405054 -0.236883,-0.187907 -0.937388,-1.422885 -1.665339,-2.935963 -0.691052,-1.436383 -1.333561,-2.61288 -1.427805,-2.614426 -0.09421,-0.0011 -0.716085,1.239951 -1.381874,2.758905 -0.915735,2.089171 -1.300357,2.797137 -1.579395,2.907123 -0.640421,0.25243 -0.404691,0.370127 0.74136,0.370127 0.610626,0 1.110221,-0.06075 1.110221,-0.135021 z m 0.512418,-2.741915 c 0,-0.04306 0.120618,-0.324799 0.268042,-0.625997 L 69.499786,49.464386 69.74415,49.96 c 0.339152,0.687849 0.314876,0.756377 -0.268043,0.756377 -0.281828,0 -0.512406,-0.03527 -0.512406,-0.07833 z m 35.300489,2.263835 c 0.49394,-0.400158 0.80409,-1.205459 0.67639,-1.756139 -0.17166,-0.740166 -0.61806,-1.143562 -1.79018,-1.617757 -1.74799,-0.707175 -2.29827,-1.292448 -1.65082,-1.755817 0.27809,-0.199033 1.11244,-0.08767 1.11244,0.148507 0,0.07945 0.12047,0.144491 0.26771,0.144491 0.18615,0 0.23819,-0.0898 0.1708,-0.294589 -0.32138,-0.976952 -0.25706,-0.923767 -1.01151,-0.836523 -0.88477,0.10237 -1.64745,0.76993 -1.64745,1.442113 0,0.777719 0.48961,1.266155 1.9063,1.901743 1.92816,0.865051 2.40152,1.562435 1.45048,2.136881 -0.47466,0.286689 -0.50836,0.281259 -1.15196,-0.185748 l -0.55426,-0.402172 0.11024,0.585806 c 0.0606,0.322194 0.24651,0.672995 0.41305,0.779555 0.39349,0.251773 1.19967,0.113981 1.69877,-0.290351 z M 37.45042,40.226491 c 0,-5.855693 -0.0042,-5.932566 -0.341608,-5.871814 -0.187878,0.03382 -2.508065,0.100133 -5.155957,0.147293 l -4.814348,0.08578 -0.516371,0.426917 c -0.809519,0.669279 -1.225539,1.58786 -1.807902,3.991849 -0.310903,1.283413 -0.427917,1.732195 -0.768118,2.945843 -0.845134,3.014997 -1.0286,3.731285 -1.028604,4.015827 0,0.239134 0.466007,0.253576 7.216456,0.223679 l 7.216452,-0.03194 z m 35.472735,5.738176 c 0.170043,-0.230901 0.178814,-11.177766 0.0094,-11.376966 -0.08005,-0.09403 -2.643088,-0.147283 -7.085731,-0.147283 -3.828133,0 -6.968908,0 -6.979495,0 -0.115215,0 -0.108952,11.502862 0.0063,11.622663 0.234848,0.244051 13.867915,0.148563 14.049792,-0.09835 z m 17.049395,0.08712 c 0,-0.228786 -0.961297,-2.12254 -2.305246,-4.541327 -0.315075,-0.567069 -0.856039,-1.56129 -1.202136,-2.209372 -1.451223,-2.717525 -1.717902,-3.113755 -2.602267,-3.866417 -0.499722,-0.425305 -1.046057,-0.77329 -1.214086,-0.77329 -0.16803,0 -0.350778,-0.03906 -0.406119,-0.08679 -0.05529,-0.04773 -1.339751,-0.09747 -2.854257,-0.110488 -2.623889,-0.02259 -2.757548,-0.01003 -2.83639,0.270879 -0.04554,0.162025 -0.06138,2.780135 -0.03515,5.818039 l 0.04763,5.523452 6.490536,0.07633 c 3.569797,0.04195 6.586617,0.09169 6.704046,0.110487 0.11743,0.01881 0.21351,-0.07633 0.21351,-0.211505 z m -34.673128,-5.756477 3.1e-5,-5.854859 -7.045674,0.02982 -7.045674,0.02982 -0.04469,5.825084 -0.04469,5.825071 h 7.090305 7.090314 z M 50.346094,28.538237 c 0,-0.04629 -0.115289,-0.183578 -0.256198,-0.305103 -0.174597,-0.150566 -0.256208,-0.522529 -0.256208,-1.167807 V 26.11845 h 0.541666 c 0.297912,0 0.682691,0.110042 0.855064,0.244574 0.369304,0.288213 0.401251,0.267886 0.53533,-0.340485 l 0.10229,-0.464126 -1.017175,0.07956 -1.017175,0.07956 v -0.830559 -0.830559 h 0.674728 c 0.461618,0 0.730363,0.08145 0.850888,0.257759 0.153644,0.224804 0.198076,0.229511 0.347482,0.03683 0.09422,-0.121514 0.172488,-0.370072 0.173936,-0.552349 0.0021,-0.322784 -0.04406,-0.331407 -1.790826,-0.331407 -1.636435,0 -2.201802,0.127935 -1.537229,0.347852 0.2114,0.06998 0.256198,0.457506 0.256198,2.216448 0,1.262229 -0.06966,2.168793 -0.170799,2.222692 -0.411606,0.219372 -0.100927,0.368236 0.768615,0.368236 0.516687,0 0.939413,-0.03783 0.939413,-0.08423 z m 5.775449,-0.468174 c 0.06127,-0.548143 -0.1215,-0.607604 -0.565934,-0.184113 -0.354197,0.337515 -0.8896,0.373732 -1.32372,0.08957 -0.222521,-0.145659 -0.298908,-0.407958 -0.298908,-1.026355 v -0.830693 h 0.541656 c 0.297922,0 0.682691,0.110043 0.855074,0.244575 0.369294,0.288214 0.40125,0.267885 0.53533,-0.340485 l 0.10229,-0.464126 -1.017176,0.07956 -1.017164,0.07956 V 24.886988 24.05643 h 0.674728 c 0.461607,0 0.730363,0.08145 0.850888,0.25776 0.153645,0.224801 0.198066,0.229508 0.347483,0.03683 0.09421,-0.121514 0.172488,-0.370072 0.173924,-0.552348 0.0021,-0.322784 -0.04406,-0.331408 -1.790824,-0.331408 -1.636437,0 -2.201803,0.127934 -1.537231,0.347853 0.211411,0.06998 0.256209,0.457505 0.256209,2.216448 0,1.262229 -0.06966,2.168793 -0.170809,2.22269 -0.511106,0.272403 -0.02885,0.375135 1.57994,0.336559 l 1.750738,-0.04195 z m 2.423137,0.413743 c 0,-0.07622 -0.0769,-0.179562 -0.170809,-0.22962 -0.0939,-0.05007 -0.170799,-0.451675 -0.170799,-0.892457 0,-0.666296 0.05036,-0.800851 0.298898,-0.798136 0.383845,0.0044 0.890041,0.367391 1.495914,1.073276 0.715519,0.83364 1.694537,1.178133 2.546705,0.89614 0.399153,-0.132086 0.327969,-0.352359 -0.114135,-0.353205 -0.459038,-8.79e-4 -1.053139,-0.420464 -1.896473,-1.339392 -0.614959,-0.670079 -0.617991,-0.680127 -0.283969,-0.940801 0.387203,-0.302178 0.602159,-1.082255 0.446028,-1.61867 -0.168113,-0.577606 -0.913877,-0.813757 -2.56989,-0.813757 -1.34634,0 -1.831626,0.140195 -1.204109,0.347852 0.211504,0.06998 0.256208,0.458985 0.256208,2.229767 0,1.77077 -0.0447,2.159768 -0.256208,2.229755 -0.544479,0.180173 -0.215146,0.347853 0.683215,0.347853 0.516676,0 0.939424,-0.06242 0.939424,-0.138605 z m -0.341608,-3.543701 c 0,-0.993363 0.01511,-1.031038 0.414607,-1.031038 0.482432,0 1.122623,0.622602 1.122623,1.091778 0,0.523454 -0.476421,0.97031 -1.034507,0.97031 h -0.502723 z m 6.661335,3.543701 c 0,-0.07622 -0.0769,-0.179562 -0.170798,-0.22962 -0.0939,-0.05007 -0.170809,-0.451675 -0.170809,-0.892457 0,-0.666296 0.05036,-0.800851 0.298908,-0.798136 0.383846,0.0044 0.890041,0.367391 1.495905,1.073276 0.715528,0.83364 1.694536,1.178133 2.546714,0.89614 0.399152,-0.132086 0.327969,-0.352359 -0.114135,-0.353205 -0.459038,-8.79e-4 -1.053139,-0.420464 -1.896473,-1.339392 -0.614959,-0.670079 -0.617991,-0.680127 -0.283968,-0.940801 0.387202,-0.302178 0.602148,-1.082255 0.446027,-1.61867 -0.168113,-0.577606 -0.913877,-0.813757 -2.56989,-0.813757 -1.34634,0 -1.831626,0.140195 -1.204109,0.347852 0.211504,0.06998 0.256198,0.458985 0.256198,2.229767 0,1.77077 -0.04469,2.159768 -0.256198,2.229755 -0.544479,0.180173 -0.215146,0.347853 0.683215,0.347853 0.516677,0 0.939413,-0.06242 0.939413,-0.138605 z M 64.5228,24.940105 c 0,-0.993363 0.01521,-1.031038 0.414616,-1.031038 0.482433,0 1.122624,0.622602 1.122624,1.091778 0,0.523454 -0.476432,0.97031 -1.034507,0.97031 H 64.5228 Z"
       id="path2102" /></g></svg>
