<?xml version="1.0" encoding="UTF-8" standalone="no"?>
<!-- Created with Inkscape (http://www.inkscape.org/) -->

<svg
   width="412mm"
   height="412mm"
   viewBox="0 0 412 412"
   version="1.1"
   id="svg5"
   xml:space="preserve"
   inkscape:version="1.2.2 (732a01da63, 2022-12-09)"
   sodipodi:docname="punto de venta.svg"
   xmlns:inkscape="http://www.inkscape.org/namespaces/inkscape"
   xmlns:sodipodi="http://sodipodi.sourceforge.net/DTD/sodipodi-0.dtd"
   xmlns="http://www.w3.org/2000/svg"
   xmlns:svg="http://www.w3.org/2000/svg"><sodipodi:namedview
     id="namedview7"
     pagecolor="#ffffff"
     bordercolor="#000000"
     borderopacity="0.25"
     inkscape:showpageshadow="2"
     inkscape:pageopacity="0.0"
     inkscape:pagecheckerboard="0"
     inkscape:deskcolor="#d1d1d1"
     inkscape:document-units="mm"
     showgrid="false"
     showguides="true"
     inkscape:zoom="0.2102413"
     inkscape:cx="-66.590151"
     inkscape:cy="1051.1731"
     inkscape:window-width="1280"
     inkscape:window-height="747"
     inkscape:window-x="-8"
     inkscape:window-y="-8"
     inkscape:window-maximized="1"
     inkscape:current-layer="layer1" /><defs
     id="defs2"><rect
       x="1717.0746"
       y="1645.728"
       width="28.538636"
       height="294.89924"
       id="rect4596" /><rect
       x="-646.87575"
       y="-237.82197"
       width="2587.503"
       height="3072.6598"
       id="rect4590" /><rect
       x="-675.41439"
       y="1698.0488"
       width="1179.5969"
       height="233.06552"
       id="rect1142" /></defs><g
     inkscape:label="Capa 1"
     inkscape:groupmode="layer"
     id="layer1"><rect
       style="fill:#000000;fill-opacity:1;stroke:#f2b23e;stroke-width:0.0539999;stop-color:#000000"
       id="rect1034"
       width="412.77963"
       height="409.00424"
       x="1.5517412e-06"
       y="1.8877108"
       inkscape:transform-center-x="685.86864"
       inkscape:transform-center-y="118.29661" /><text
       xml:space="preserve"
       transform="matrix(0.26458333,0,0,0.26458333,247.9195,-118.92585)"
       id="text1140"
       style="font-weight:bold;font-size:200px;line-height:normal;font-family:sans-serif;-inkscape-font-specification:'sans-serif, Bold';text-decoration-color:#000000;white-space:pre;shape-inside:url(#rect1142);display:inline;fill:#f2b23e;fill-opacity:1;stroke:#f2b23e;stroke-width:0.204094;stop-color:#000000"
       inkscape:transform-center-x="677.3793"
       inkscape:transform-center-y="268.31523"><tspan
         x="-675.41406"
         y="1880.5149"
         id="tspan426">PD Venta</tspan></text><text
       xml:space="preserve"
       transform="scale(0.26458333)"
       id="text4588"
       style="font-weight:bold;font-size:200px;line-height:normal;font-family:sans-serif;-inkscape-font-specification:'sans-serif, Bold';text-decoration-color:#000000;white-space:pre;shape-inside:url(#rect4590);display:inline;fill:#f2b23e;fill-opacity:1;stroke:#f2b23e;stroke-width:0.204094;stop-color:#000000" /><text
       xml:space="preserve"
       transform="scale(0.26458333)"
       id="text4594"
       style="font-weight:bold;font-size:200px;line-height:normal;font-family:sans-serif;-inkscape-font-specification:'sans-serif, Bold';text-decoration-color:#000000;white-space:pre;shape-inside:url(#rect4596);display:inline;fill:#f2b23e;fill-opacity:1;stroke:#f2b23e;stroke-width:0.204094;stop-color:#000000" /><path
       id="path4638"
       style="fill:#f2b23e;fill-opacity:1;stroke-width:1.12149"
       d="m 212.02667,18.563842 c -8.14515,0.0078 -16.27343,0.871617 -22.37803,2.589581 -38.19115,10.747884 -64.61786,42.587932 -69.35994,83.568077 -2.98119,25.76281 5.90263,53.96992 28.36249,90.05439 13.33381,21.42242 22.07242,33.26869 51.22568,69.44209 8.06393,10.00577 15.02562,17.76514 15.47073,17.24348 4.12752,-4.837 39.00295,-52.45212 46.77021,-63.85495 38.177,-56.04665 49.24537,-93.63157 38.42589,-130.484233 -9.4178,-32.078547 -34.69949,-57.350086 -66.0384,-66.012459 -6.17185,-1.705971 -14.33348,-2.553949 -22.47863,-2.545976 z m 0.002,11.876078 c 7.18492,-0.0078 14.35825,0.743335 19.98793,2.2562 23.23836,6.244966 42.25704,22.634533 52.7874,45.489688 13.53498,29.376312 10.65134,58.249342 -9.64429,96.565372 -9.81727,18.53396 -22.65815,37.79296 -46.94798,70.4124 -7.18,9.64216 -13.4309,17.53095 -13.89051,17.53095 -2.70496,0 -40.16052,-49.06956 -53.80094,-70.48299 -30.9434,-48.57645 -36.7808,-81.03607 -20.71324,-115.175646 10.1907,-21.65271 29.76772,-38.276945 52.16395,-44.295581 5.67634,-1.525356 12.87275,-2.292443 20.05768,-2.300393 z m -0.48456,12.723012 c -35.99936,0.30721 -68.39454,30.381137 -68.39454,72.206118 0,12.50006 1.42689,20.20104 5.50361,29.70828 9.63855,22.47789 26.19499,36.58876 49.74732,42.39859 8.69269,2.14429 24.0281,1.30908 33.92289,-1.84709 21.00733,-6.70074 39.63933,-26.00458 46.00478,-47.66441 9.79034,-33.31351 -4.56036,-70.199566 -33.53586,-86.1984 -10.86981,-6.001736 -22.22799,-8.697126 -33.2482,-8.603088 z m 16.09294,15.200723 c 4.05117,0.07806 6.49904,3.968645 10.64426,15.798621 l 4.22956,12.070595 9.12578,0.574957 c 9.77074,0.615419 12.73145,1.94315 15.56333,6.980359 3.27141,5.819118 1.98628,11.805483 -3.68329,17.160843 -2.94144,2.77843 -3.12362,3.63829 -5.48571,25.86548 -2.34803,22.09471 -3.28263,26.5909 -5.91101,28.435 -0.66211,0.4646 -18.95678,0.85297 -40.65488,0.86186 -31.318,0.0139 -39.8653,-0.30028 -41.46103,-1.52632 -2.3468,-1.80311 -3.03484,-6.26247 -5.06781,-32.85906 -1.34354,-17.57715 -1.58845,-18.83074 -4.0061,-20.49523 -6.61507,-4.55427 -7.50529,-13.240178 -2.00429,-19.554176 3.66371,-4.205169 3.938,-4.305826 13.26458,-4.868756 l 9.52392,-0.574957 4.17338,-11.959279 c 2.29538,-6.577693 4.93518,-12.759511 5.86597,-13.737504 2.64408,-2.77827 9.27633,-2.281251 11.7109,0.877925 2.71092,3.517663 2.58445,6.377524 -0.68765,15.51172 -1.50434,4.199516 -2.73513,8.140746 -2.73513,8.758586 0,0.663343 4.92798,1.123509 12.03438,1.123509 6.78536,0 12.03497,-0.471548 12.03497,-1.081048 0,-0.594599 -1.2308,-4.666366 -2.73514,-9.048364 -1.50435,-4.382052 -2.73513,-9.011731 -2.73513,-10.287784 0,-3.399041 3.34815,-7.06886 7.15234,-7.839345 0.65382,-0.132423 1.26506,-0.198791 1.8438,-0.187632 z m -56.2935,56.033935 0.6432,6.03531 c 0.35375,3.31943 1.22098,13.15527 1.92712,21.85746 l 1.28393,15.82271 36.21791,-0.30297 36.21792,-0.30297 1.81849,-16.09414 c 1,-8.85181 2.1247,-18.55115 2.49935,-21.55447 l 0.68084,-5.46093 h -40.64419 z m 19.17005,7.60697 c 0.68242,0.0129 1.18033,0.0991 1.32899,0.25535 0.29722,0.31253 0.54073,6.68995 0.54073,14.17187 l -6.1e-4,13.60324 h -3.64685 c -2.0058,0 -3.85182,-0.21341 -4.10241,-0.47454 -0.25063,-0.26099 -0.30356,-6.41442 -0.1179,-13.67439 l 0.33765,-13.19986 3.22402,-0.49748 c 0.88664,-0.13685 1.75395,-0.19707 2.43638,-0.18419 z m 9.52823,0.44012 h 3.82895 3.82957 v 13.79545 13.79489 h -3.82957 -3.82895 v -13.79489 z m 16.41084,0 h 3.82956 3.82895 v 13.79545 13.79489 h -3.82895 -3.82956 v -13.79489 z m 15.31702,5.6e-4 h 4.41103 4.41104 l -0.30801,13.50741 -0.30865,13.50799 -4.10239,0.35632 -4.10302,0.35692 v -13.86432 z m 23.38727,120.51664 -4.19746,5.38231 c -2.99499,3.84028 -3.8125,5.63221 -2.85427,6.25449 0.73865,0.47968 6.01415,1.21691 11.72387,1.63879 28.34147,2.09329 63.84276,11.46266 63.84276,16.84927 0,1.99636 -10.85973,6.85377 -21.57927,9.65201 -24.59728,6.42089 -50.44087,9.00647 -90.01638,9.00647 -29.81523,0 -46.91592,-1.10711 -68.74146,-4.44987 -20.96783,-3.21135 -41.45454,-9.89965 -42.60421,-13.90908 -0.21748,-0.75841 2.08625,-2.69967 5.11904,-4.31445 10.22238,-5.44294 35.82411,-10.9142 61.7354,-13.19298 6.51961,-0.57337 12.04088,-1.239 12.26953,-1.47926 0.22851,-0.2401 -1.41304,-2.8892 -3.64809,-5.88727 l -4.06411,-5.45116 -8.75233,0.65644 c -22.90095,1.71775 -49.67284,7.55731 -61.44773,13.40298 -18.113519,8.99257 -18.074385,22.86093 0.0908,31.97021 15.59331,7.81965 42.86574,12.57316 88.70901,15.46296 10.45559,0.65911 52.23762,-0.39915 66.67111,-1.68872 51.3744,-4.58998 78.29374,-14.92572 78.29374,-30.06116 0,-4.11562 -0.64454,-5.40439 -4.78943,-9.57742 -8.97572,-9.0366 -33.61059,-16.09747 -68.03465,-19.50082 z M 136.0573,319.66379 c -0.0393,-0.003 -0.0755,0.0845 -0.10744,0.25706 0.0411,-0.022 0.11431,-0.0463 0.18272,-0.07 -0.0254,-0.0684 -0.0518,-0.18482 -0.0753,-0.18706 z m -0.14011,0.61283 c -0.032,0.27608 -0.0593,0.61728 -0.0777,1.09826 0.0927,-0.0323 0.18413,-0.0673 0.27715,-0.0987 -0.0665,-0.33381 -0.13056,-0.65962 -0.19937,-0.99957 z m -3.79871,1.18892 c -0.38007,-0.0164 -0.81374,0.0566 -1.20863,0.22264 -0.87278,0.36692 -0.61346,0.63912 0.66111,0.6943 1.15311,0.05 1.79925,-0.22172 1.43578,-0.60363 -0.18176,-0.19098 -0.50818,-0.29685 -0.88826,-0.31331 z" /></g></svg>
