<?xml version="1.0" encoding="UTF-8" standalone="no"?>
<!-- Created with Inkscape (http://www.inkscape.org/) -->

<svg
   width="412mm"
   height="412mm"
   viewBox="0 0 412 412"
   version="1.1"
   id="svg5"
   xml:space="preserve"
   inkscape:version="1.2.2 (732a01da63, 2022-12-09)"
   sodipodi:docname="Vendedor.svg"
   xmlns:inkscape="http://www.inkscape.org/namespaces/inkscape"
   xmlns:sodipodi="http://sodipodi.sourceforge.net/DTD/sodipodi-0.dtd"
   xmlns="http://www.w3.org/2000/svg"
   xmlns:svg="http://www.w3.org/2000/svg"><sodipodi:namedview
     id="namedview7"
     pagecolor="#ffffff"
     bordercolor="#000000"
     borderopacity="0.25"
     inkscape:showpageshadow="2"
     inkscape:pageopacity="0.0"
     inkscape:pagecheckerboard="0"
     inkscape:deskcolor="#d1d1d1"
     inkscape:document-units="mm"
     showgrid="false"
     showguides="true"
     inkscape:zoom="0.2102413"
     inkscape:cx="1598.1636"
     inkscape:cy="580.2856"
     inkscape:window-width="1280"
     inkscape:window-height="747"
     inkscape:window-x="-8"
     inkscape:window-y="-8"
     inkscape:window-maximized="1"
     inkscape:current-layer="layer1" /><defs
     id="defs2"><rect
       x="-675.41439"
       y="1698.0488"
       width="1217.6485"
       height="304.41211"
       id="rect1142" /></defs><g
     inkscape:label="Capa 1"
     inkscape:groupmode="layer"
     id="layer1"><rect
       style="fill:#000000;fill-opacity:1;stroke:#f2b23e;stroke-width:0.0539999;stop-color:#000000"
       id="rect1034"
       width="412.77963"
       height="409.00424"
       x="-2.5169184"
       y="1.8877124"
       inkscape:transform-center-x="23.911017"
       inkscape:transform-center-y="-13.84322" /><text
       xml:space="preserve"
       transform="matrix(0.26458333,0,0,0.26458333,231.55933,-117.66737)"
       id="text1140"
       style="font-weight:bold;font-size:200px;line-height:normal;font-family:sans-serif;-inkscape-font-specification:'sans-serif, Bold';text-decoration-color:#000000;white-space:pre;shape-inside:url(#rect1142);display:inline;fill:#f2b23e;fill-opacity:1;stroke:#f2b23e;stroke-width:0.204094;stop-color:#000000"><tspan
         x="-675.41406"
         y="1880.5149"
         id="tspan1693">Vendedor</tspan></text><path
       style="fill:#f2b23e;fill-opacity:1;stroke-width:0.546881"
       d="m 303.15423,310.00706 c -0.8383,-0.28631 -2.4204,-1.30083 -3.51578,-2.2545 l -1.99161,-1.73393 -112.86501,-0.003 c -111.014095,-0.003 -112.892577,-0.0194 -114.547103,-1.11324 -3.588197,-2.37025 -3.309589,8.31004 -3.307418,-126.78802 0.0014,-121.630678 0.0072,-122.27758 1.062341,-124.151989 1.898919,-3.374188 2.817635,-3.523344 21.703781,-3.523344 16.425309,0 17.070759,0.04127 18.406609,1.179751 1.7347,1.478255 1.89809,4.525137 0.33357,6.220071 -1.00564,1.089473 -1.7514,1.138447 -17.338903,1.138447 H 74.806657 V 178.22872 297.4798 h 26.796483 26.79647 v -6.51073 -6.51074 l -17.23188,-0.17749 c -15.406983,-0.15877 -17.381527,-0.2839 -18.645128,-1.18162 -2.796576,-1.98686 -3.251751,-3.46937 -3.448162,-11.23097 -0.204517,-8.08253 0.329411,-11.10655 2.318676,-13.13222 l 1.361054,-1.38599 17.69137,-0.2846 17.69137,-0.28461 0.15907,-2.67479 0.15906,-2.67481 -17.25955,-0.17126 c -15.439606,-0.15316 -17.408578,-0.27715 -18.67283,-1.17535 -2.796605,-1.98682 -3.25178,-3.46934 -3.448177,-11.23095 -0.204516,-8.08256 0.329412,-11.10657 2.318676,-13.13224 l 1.361054,-1.38598 17.691367,-0.2846 17.69137,-0.28461 0.29362,-6.54601 c 0.25397,-5.66187 0.48906,-6.95655 1.7405,-9.58575 1.90517,-4.00264 4.95238,-7.51668 8.06006,-9.29485 1.38376,-0.79178 11.57431,-4.74285 22.64569,-8.7802 l 20.12975,-7.34062 0.93161,-2.28161 c 0.60838,-1.48997 1.5998,-2.67144 2.85741,-3.40517 1.05919,-0.61796 1.92581,-1.29476 1.92581,-1.504 0,-0.20933 -1.14623,-1.17727 -2.54716,-2.15118 -5.42357,-3.77041 -11.88623,-12.51962 -14.36673,-19.44985 l -1.20779,-3.37443 -2.62979,-0.015 c -13.22871,-0.0699 -22.60772,-12.4127 -20.33633,-26.7625 0.80702,-5.09855 2.66892,-9.07011 5.88606,-12.55541 l 2.54127,-2.75312 0.19818,-19.514269 c 0.19719,-19.405521 0.20614,-19.539701 1.61176,-24.068044 0.77739,-2.50456 1.41647,-4.745862 1.42017,-4.98067 0.004,-0.234754 -7.79579,-0.426865 -17.33219,-0.426865 -16.63832,0 -17.38135,-0.046 -18.38972,-1.138448 -1.56453,-1.694934 -1.40113,-4.741816 0.33356,-6.22007 1.34388,-1.145226 1.95517,-1.17986 20.8855,-1.183648 l 19.50106,-0.0041 1.28097,-2.037433 c 3.18978,-5.073519 11.96421,-12.026736 18.58246,-14.725486 7.23942,-2.952049 10.81476,-3.243216 37.04426,-3.016827 22.55075,0.194699 24.25036,0.280668 28.01591,1.418271 4.69377,1.418058 11.32337,4.905284 14.81556,7.793115 1.35539,1.120823 2.6087,2.03787 2.78513,2.03787 0.17653,0 1.65213,-0.871997 3.27933,-1.937744 12.52873,-8.205878 28.78733,-9.117049 41.96799,-2.351989 9.82787,5.044215 16.99886,12.912233 21.62983,23.732188 3.11279,7.272893 3.94297,11.508619 3.94297,20.118159 0,9.776196 -1.95487,17.783365 -5.97565,24.47637 -1.12771,1.87715 -1.70567,2.30754 -3.29217,2.4516 -2.3465,0.21299 -4.08586,-1.39333 -4.08586,-3.77358 0,-0.88359 0.68936,-2.99683 1.53194,-4.696035 2.8797,-5.80761 3.96609,-10.863567 3.96609,-18.458355 0,-9.779862 -1.93858,-16.195535 -7.25645,-24.015093 -4.67937,-6.880635 -12.86389,-12.730769 -20.67111,-14.775251 -5.25235,-1.375448 -13.07836,-1.240753 -18.26693,0.314359 -6.58894,1.974875 -10.95731,4.767764 -16.09332,10.2892 -7.47334,8.03418 -10.413,15.172935 -10.85531,26.361242 -0.32272,8.163491 0.52141,12.681889 3.69073,19.755908 1.7709,3.952645 3.03793,5.779475 6.92135,9.979395 7.62526,8.24671 15.44231,11.83904 25.77047,11.84282 6.68191,0.003 11.26009,-1.19421 17.39577,-4.54695 4.49446,-2.45594 4.87739,-2.56745 6.29283,-1.83251 1.8493,0.96025 2.71573,3.30704 2.0217,5.47598 -0.38946,1.21712 -1.61015,2.1696 -5.48698,4.28143 -5.85597,3.18989 -11.37448,4.81171 -18.12103,5.32546 l -4.87343,0.37112 -0.27646,2.23295 c -0.15212,1.22812 -0.92808,3.67584 -1.72452,5.43938 -3.13712,6.94651 -9.44389,11.37833 -16.98941,11.93863 l -4.15912,0.30882 -0.891,2.62572 c -2.39215,7.04945 -8.41371,15.43163 -14.1723,19.72834 -2.69935,2.01409 -3.54363,3.10458 -2.40362,3.10458 0.95183,0 3.7687,3.01295 4.45413,4.76418 0.6786,1.73378 1.26154,1.98815 21.62417,9.43618 14.81574,5.41913 21.67983,8.20338 23.50554,9.5344 l 2.57877,1.88004 h 8.11731 c 12.70993,0 12.79392,0.10272 12.79392,15.6252 0,9.79985 -0.0754,10.64065 -1.05082,11.69723 -1.56453,1.69494 -4.37701,1.51793 -5.74152,-0.36135 -0.99076,-1.36456 -1.08898,-2.26295 -1.08898,-9.96131 v -8.46151 h -31.78796 -31.78799 v 43.82977 43.82975 h 23.65697 23.65696 l 0.49192,-1.40175 c 0.31946,-0.91023 0.293,-2.02001 -0.0754,-3.165 -0.33346,-1.03631 -0.42204,-3.09845 -0.21482,-5.00195 0.19382,-1.78129 0.32458,-3.81502 0.29038,-4.51945 -0.0677,-1.39585 -0.0845,-8.47256 -0.0252,-10.53053 0.0204,-0.70439 -0.10566,-2.63506 -0.27997,-4.29036 -0.41066,-3.89865 -0.0423,-5.33586 2.01946,-7.87985 2.33256,-2.87804 4.30625,-3.62556 9.57271,-3.62556 h 4.48294 v -6.18463 c 0,-5.39492 0.13895,-6.37615 1.08898,-7.68444 1.36451,-1.8793 4.17698,-2.05633 5.74151,-0.36138 0.93649,1.01454 1.05083,1.89739 1.05083,8.11242 v 6.97399 l 2.49575,1.99118 c 1.63729,1.30628 2.99276,3.05424 3.94067,5.08166 l 1.4449,3.09048 v 15.56968 c 0,16.72594 -0.10364,17.50199 -2.86065,21.41789 -0.736,1.04539 -2.58051,2.64569 -4.0989,3.55622 -2.62536,1.57436 -3.10854,1.66149 -9.85392,1.77709 -3.90125,0.0669 -7.77906,-0.1127 -8.61734,-0.39904 z m 16.01755,-10.11647 1.53196,-1.85895 V 283.4818 268.93193 l -1.5522,-1.6816 -1.55222,-1.68157 -6.46046,0.16005 c -6.04197,0.14974 -6.4704,0.23512 -6.61368,1.31931 -0.0881,0.66731 0.41349,1.73603 1.18222,2.5184 1.78111,1.81276 1.79042,4.48364 0.0219,6.28362 -0.72245,0.7353 -1.31355,1.70352 -1.31355,2.15164 0,0.44809 0.5911,1.57576 1.31355,2.50591 0.75609,0.97347 1.31357,2.40892 1.31357,3.38234 0,1.07276 -0.48035,2.17343 -1.31357,3.01002 -0.72245,0.72535 -1.31355,1.72607 -1.31355,2.22381 0,0.49774 0.5911,1.54535 1.31355,2.32802 0.83493,0.9045 1.31357,2.06463 1.31357,3.18375 0,1.14693 -0.45793,2.22046 -1.31357,3.07954 -1.40097,1.40662 -1.73988,3.45301 -0.65678,3.96592 0.36123,0.17103 3.33666,0.25644 6.61207,0.18974 l 5.95528,-0.12135 1.53197,-1.85894 z M 212.99241,256.59156 v -40.88885 l -1.7076,-2.0355 -1.70764,-2.03556 -9.983,6.47538 c -5.49066,3.56145 -10.7227,6.63468 -11.6268,6.82941 -1.04878,0.22592 -2.2259,0.0281 -3.25196,-0.54691 -3.2132,-1.80009 -3.24827,-1.99554 -3.24827,-18.11062 0,-8.07016 -0.17733,-14.67564 -0.39405,-14.67887 -0.21673,-0.004 -9.01921,3.12427 -19.56102,6.94997 -16.71286,6.06521 -19.43116,7.21385 -21.23034,8.97104 -4.20104,4.10297 -3.9763,1.38404 -3.98925,48.26416 l -0.0116,41.69517 h 38.35575 38.35573 z m -43.99638,22.9348 c -7.17585,-2.09363 -12.65158,-6.96907 -15.96623,-14.21586 -1.91341,-4.18326 -2.19465,-5.31657 -2.4302,-9.79208 -0.43688,-8.30074 1.94654,-15.10302 7.26871,-20.74485 15.45122,-16.37927 41.46316,-4.57984 41.46316,18.80839 0,7.82173 -2.58082,14.28032 -7.83316,19.60278 -5.98428,6.06419 -14.87008,8.56839 -22.50228,6.34162 z m 10.03976,-8.51961 c 12.38219,-3.49399 16.59524,-19.86484 7.67493,-29.82281 -3.05198,-3.40701 -5.8647,-4.75364 -10.56432,-5.05782 -5.35838,-0.34685 -8.5229,0.81068 -12.21768,4.46898 -3.88658,3.8482 -5.29147,7.39211 -5.28837,13.34013 10e-4,3.66346 0.25175,5.10548 1.27806,7.37582 2.22866,4.9302 6.55484,8.69185 11.42623,9.93519 2.94444,0.75155 4.33219,0.70833 7.69115,-0.23949 z m -8.96592,-20.77689 c -1.68142,-0.73372 -2.94996,-3.0923 -2.50781,-4.66272 0.83269,-2.95753 1.60034,-3.30087 7.38062,-3.30087 5.20502,0 5.43615,0.0533 6.48632,1.49981 0.59893,0.8249 1.08899,1.83745 1.08899,2.2501 0,1.68337 -1.28946,3.62869 -2.77795,4.19081 -1.89278,0.71482 -8.05112,0.72939 -9.67017,0.0228 z m 70.76987,9.70092 v -37.54962 l -8.2754,-5.37021 -8.27538,-5.37022 -1.7076,2.031 -1.70763,2.03098 v 40.88885 40.88882 h 9.98301 9.983 z M 127.87421,270.44256 V 265.6042 H 112.63698 97.399758 v 4.83836 4.83833 h 15.237222 15.23723 z m 0,-33.01465 v -4.83833 H 112.63698 97.399758 v 4.83833 4.83836 h 15.237222 15.23723 z m 94.77627,-37.79733 5.57914,-7.3442 v -5.74779 -5.74783 h -11.29655 -11.29655 v 5.73616 5.73616 l 5.5501,7.35583 c 3.05254,4.04573 5.62538,7.35589 5.7174,7.35589 0.0919,0 2.67794,-3.30491 5.74646,-7.34422 z m 54.44331,0.67259 c -0.43346,-0.1762 -6.16713,-2.31441 -12.74147,-4.75161 l -11.95333,-4.43127 v 4.79655 4.79654 l 12.74147,-0.0449 c 7.00781,-0.0247 12.38681,-0.1891 11.95333,-0.36527 z m -40.8382,-29.62694 c 9.10368,-3.65533 15.58995,-9.69986 19.28611,-17.97261 3.00267,-6.7206 3.64703,-11.17009 3.66943,-25.33859 l 0.018,-11.58824 -2.56716,-3.49603 c -5.01489,-6.82939 -8.80358,-15.827649 -9.80044,-23.27635 l -0.36184,-2.703775 h -5.70242 -5.70243 l -2.62291,2.523664 c -3.20906,3.087672 -6.23732,5.04807 -10.32698,6.685398 -2.90237,1.161961 -4.32377,1.267974 -21.23757,1.583834 -9.96987,0.186322 -18.59991,0.561384 -19.17786,0.833777 -2.22537,1.048787 -4.52343,3.335472 -5.65315,5.625132 -1.15018,2.33117 -1.17735,2.81303 -1.17735,20.88577 0,16.34513 0.11261,18.89732 0.96661,21.91489 2.73836,9.67535 8.82363,17.65262 16.66552,21.84709 6.95066,3.71779 9.06443,4.03113 25.97783,3.8511 13.53193,-0.14416 14.95515,-0.25436 17.74626,-1.37506 z m -23.7886,-7.7414 c -4.13605,-0.97899 -7.48949,-2.98085 -10.51764,-6.27868 -5.8556,-6.377 -6.21554,-12.7818 -0.91508,-16.2829 1.59485,-1.05345 2.66844,-1.1312 15.6361,-1.13236 12.22015,-0.001 14.14408,0.12054 15.72528,0.99399 2.35975,1.30359 3.72506,3.39716 4.07882,6.25453 0.78238,6.31931 -7.42483,14.91745 -15.84973,16.6047 -3.70239,0.74146 -4.41061,0.72765 -8.15775,-0.15922 z m 10.2672,-9.67533 c 1.45671,-0.73489 3.32429,-2.20525 4.1502,-3.26745 l 1.50164,-1.9313 -5.566,-0.16135 c -3.0613,-0.0886 -8.2151,-0.0886 -11.45285,0 l -5.88686,0.16135 1.50154,1.9313 c 2.16855,2.78922 6.09052,4.60358 9.95121,4.60358 2.20552,0 3.94817,-0.40138 5.80112,-1.33613 z m -11.19993,-22.63152 c -6.90401,-6.81335 -6.90295,-6.79993 -1.12796,-14.3227 2.33441,-3.04087 4.76714,-5.67103 5.40606,-5.84476 2.78142,-0.75627 5.56698,2.08064 4.88057,4.97056 -0.17276,0.72748 -1.38923,2.73151 -2.70319,4.45341 l -2.38903,3.13069 2.63651,2.64813 c 2.95448,2.9675 3.30317,4.53382 1.54753,6.9518 -0.80078,1.10288 -1.5691,1.49981 -2.90307,1.49981 -1.48656,0 -2.45204,-0.62957 -5.34742,-3.48694 z m -17.53015,-6.7075 c -1.14981,-1.00756 -1.2531,-1.55905 -1.41393,-7.54962 -0.15866,-5.91188 -0.077,-6.59542 0.95764,-8.02052 1.40663,-1.9373 4.19582,-2.13958 5.78365,-0.41943 0.93235,1.01008 1.05082,1.89738 1.05082,7.86983 0,6.30027 -0.0779,6.81066 -1.21604,7.96905 -1.50052,1.52717 -3.52396,1.58622 -5.16214,0.15059 z m 40.62216,-0.23047 c -1.03842,-1.19746 -1.14244,-1.92309 -1.14244,-7.96902 0,-5.8927 0.11998,-6.78153 1.05084,-7.79008 1.32757,-1.43823 3.71896,-1.46108 5.32737,-0.051 1.11998,0.98194 1.25816,1.61975 1.42322,6.56972 0.10045,3.01522 0.0353,6.11842 -0.14477,6.89601 -0.81511,3.51831 -4.38284,4.80224 -6.51428,2.34432 z m -67.87091,3.59431 v -14.23045 h -1.2182 c -2.32603,0 -6.40954,1.68082 -8.05975,3.31748 -2.83851,2.81525 -4.03427,6.04985 -4.03427,10.91297 0,4.8516 1.0235,7.64327 3.93145,10.7233 1.75276,1.85651 5.27249,3.3944 7.93587,3.46749 l 1.4449,0.0397 z m 105.67297,13.35241 c 3.98506,-1.52322 7.81799,-6.61889 7.81799,-10.39356 0,-1.43776 -0.27564,-1.7287 -2.23305,-2.357 -1.74801,-0.56107 -6.95673,-3.05491 -10.50843,-5.0312 -0.21673,-0.12067 -0.39404,4.02852 -0.39404,9.22026 v 9.43951 h 1.5102 c 0.83061,0 2.54392,-0.39511 3.80733,-0.87801 z M 92.331792,197.48869 c -2.748117,-0.61968 -3.938711,-4.73059 -2.03134,-7.01386 0.921409,-1.10303 1.58825,-1.14581 17.870438,-1.14581 15.71809,0 16.97478,0.0736 17.7829,1.04098 1.24742,1.49329 1.12042,4.79784 -0.23556,6.12833 -1.03029,1.01095 -2.15972,1.08978 -16.68212,1.16445 -8.56735,0.0441 -16.084299,-0.0342 -16.704318,-0.17404 z m 0,-17.0819 c -2.745512,-0.606 -3.939247,-4.72458 -2.03134,-7.00849 0.9361,-1.12063 1.565237,-1.1458 28.641588,-1.1458 26.15296,0 27.73254,0.0576 28.55401,1.04096 1.24768,1.49359 1.12042,4.79795 -0.236,6.12834 -1.05403,1.03381 -2.33386,1.08784 -27.45324,1.15907 -14.49124,0.0412 -26.854999,-0.0372 -27.475018,-0.17404 z m 0,-17.07653 c -2.745512,-0.60601 -3.939247,-4.72457 -2.03134,-7.00849 0.9361,-1.12063 1.565237,-1.14581 28.641588,-1.14581 26.15296,0 27.73254,0.0576 28.55401,1.04098 1.24768,1.49359 1.12042,4.79794 -0.236,6.12834 -1.05403,1.03378 -2.33386,1.08783 -27.45324,1.15906 -14.49124,0.0412 -26.854999,-0.0372 -27.475018,-0.17404 z m 0,-17.08648 c -2.740706,-0.58078 -3.940217,-4.71345 -2.03134,-6.99853 0.929051,-1.11218 1.579103,-1.14581 22.155238,-1.14581 20.49757,0 21.23286,0.0376 22.24898,1.13845 2.12066,2.29743 1.07877,5.88329 -1.97651,6.80253 -1.87531,0.56422 -37.839147,0.74527 -40.396368,0.20331 z M 105.53693,122.87633 C 88.812288,116.4128 83.760562,94.330202 96.006369,81.215468 c 5.311361,-5.688234 10.089451,-7.664029 17.740391,-7.335776 4.56231,0.195777 5.43365,0.421873 9.01521,2.339521 11.78312,6.308969 16.3978,21.749872 10.34289,34.607777 -1.87994,3.99215 -6.12811,8.34395 -10.354,10.60659 -3.68318,1.97206 -4.36611,2.14098 -9.2779,2.29473 -4.06142,0.12717 -5.9184,-0.0722 -7.93603,-0.85198 z m 13.72901,-9.13605 c 3.26906,-1.81558 5.08124,-3.6943 6.79347,-7.04303 1.37767,-2.69435 1.55207,-3.57918 1.55207,-7.873815 0,-4.294654 -0.17437,-5.179475 -1.55207,-7.873833 -1.69757,-3.320045 -3.47724,-5.177029 -6.79347,-7.088521 -3.12885,-1.80349 -10.15624,-1.787269 -13.31347,0.03071 -5.40552,3.112592 -8.115629,7.560248 -8.459659,13.883532 -0.424071,7.794797 3.362679,13.984417 10.259149,16.769017 2.82434,1.14037 8.75913,0.72594 11.51398,-0.80406 z m 169.10052,-1.51437 c -1.08484,-1.17527 -1.28967,-1.94369 -1.28967,-4.83834 v -3.44118 h -4.7288 c -4.02822,0 -4.88445,-0.16866 -5.77963,-1.13842 -1.56452,-1.69496 -1.40112,-4.741842 0.33358,-6.220097 1.28671,-1.09648 2.06709,-1.179737 11.05771,-1.179737 9.56989,0 9.68713,-0.01502 10.96299,-1.397189 2.37255,-2.570298 1.20013,-7.221159 -2.00876,-7.968457 -0.64219,-0.149523 -4.12314,-0.353296 -7.73542,-0.45272 -7.32931,-0.201798 -8.50959,-0.625524 -11.72229,-4.208857 -5.97433,-6.663576 -3.72434,-17.968205 4.29922,-21.600607 0.97448,-0.441166 2.57045,-0.802118 3.5466,-0.802118 h 1.7748 v -3.441196 c 0,-2.894628 0.20483,-3.663072 1.28967,-4.838346 1.56971,-1.700534 3.36967,-1.783346 5.18266,-0.238352 1.16095,0.989304 1.38263,1.676088 1.51576,4.696033 l 0.1559,3.537253 4.83726,0.163294 c 4.49601,0.151876 4.91307,0.26767 5.91102,1.642118 1.22689,1.689751 1.3089,2.420058 0.49033,4.366387 -0.97738,2.323936 -2.52341,2.651025 -12.53019,2.651025 h -9.38615 l -1.4068,1.811269 c -1.707,2.197751 -1.50289,4.623749 0.55399,6.584703 1.24168,1.183729 1.84863,1.281151 8.01325,1.286292 5.88987,0.0041 6.97952,0.16178 9.31839,1.341707 4.592,2.316548 7.0717,6.534659 7.0717,12.029361 0,6.961349 -4.22856,12.338954 -10.45742,13.298934 l -2.41538,0.37225 -0.1559,3.53228 c -0.13301,3.01453 -0.35526,3.70208 -1.51576,4.69105 -1.81299,1.54496 -3.61295,1.46218 -5.18266,-0.23838 z"
       id="path810" /></g></svg>
